<svg width="512" height="512" viewBox="0 0 512 512" fill="none" xmlns="http://www.w3.org/2000/svg">
<rect width="512" height="512" fill="#0CA385"/>
<g style="mix-blend-mode:overlay" filter="url(#filter0_f_55094_43287)">
<path fill-rule="evenodd" clip-rule="evenodd" d="M322.938 148.574C324.013 148.727 325.096 148.895 326.188 149.078C341.136 152.071 364.169 159.977 362.708 159.674C415.45 177.915 429.468 202.485 420.641 236.112C416.42 255.23 407.979 269.757 407.979 269.757C400.977 283.073 393.843 293.234 385.812 300.565C397.061 293.649 406.282 282.018 415.274 264.902C415.274 264.902 423.294 251.092 427.303 232.916C435.689 200.947 422.372 177.588 372.267 160.247C373.655 160.534 351.774 153.018 337.573 150.172C332.494 149.323 327.611 148.811 322.938 148.574Z" fill="white"/>
</g>
<g style="mix-blend-mode:overlay" filter="url(#filter1_f_55094_43287)">
<path fill-rule="evenodd" clip-rule="evenodd" d="M361.399 157.548C363.268 158.19 364.233 158.557 363.896 158.487C416.638 176.727 432.44 202.484 423.613 236.111C419.392 255.229 410.95 269.755 410.95 269.755C407.623 276.082 404.198 281.697 400.618 286.635C405.298 280.822 409.718 273.804 414.085 265.494C414.085 265.494 422.104 251.684 426.114 233.508C434.5 201.539 421.182 178.18 371.077 160.838C371.71 160.969 367.507 159.478 361.399 157.548Z" fill="url(#paint0_linear_55094_43287)"/>
</g>
<g style="mix-blend-mode:multiply" opacity="0.5">
<path fill-rule="evenodd" clip-rule="evenodd" d="M258.429 269.402C266.544 276.049 293.857 293.985 293.857 293.985H293.851C323.506 313.475 348.815 314.258 355.503 314.258C385.158 314.258 403.107 300.223 420.277 267.469C420.277 267.469 428.862 252.652 433.154 233.15C438.739 211.813 435.333 194.05 419.049 179.192C446.082 197.33 452.499 219.722 445.212 247.563C440.415 269.353 430.825 285.908 430.825 285.908C411.645 322.498 391.592 338.182 358.459 338.182C350.992 338.182 322.71 337.31 289.583 315.531V315.525C289.583 315.525 259.066 295.49 250 288.061C205.921 251.957 201.016 221.669 206.754 205.755C214.601 183.976 243.371 165.678 243.371 165.678C243.371 165.678 245.523 164.091 249.608 161.824C242.684 166.733 225.295 180.248 219.719 195.73C214.588 209.978 218.976 237.087 258.429 269.402Z" fill="#073F53"/>
</g>
<g style="mix-blend-mode:multiply" filter="url(#filter2_b_55094_43287)">
<path fill-rule="evenodd" clip-rule="evenodd" d="M348.798 133.962C337.128 135.064 301.337 142.292 301.337 142.292V142.298C297.784 143.014 294.382 143.825 291.131 144.712C303.855 142.273 319.36 141.397 337.097 144.37C352.299 147.424 375.723 155.488 374.237 155.179C427.875 173.786 442.132 198.849 433.154 233.151C432.545 235.921 431.848 238.597 431.102 241.15C438.1 226.615 439.713 216.238 439.713 216.238C439.713 216.238 447.264 183.003 437.496 162.013C430.355 146.668 405.54 128.607 348.798 133.962ZM350.172 314.078C339.573 313.372 318.173 309.971 293.851 293.986H293.857C293.857 293.986 266.544 276.05 258.429 269.403C224.695 241.772 216.597 217.948 218.166 202.714C212.704 219.18 214.336 238.189 221.873 262.676C221.873 262.676 226.718 281.182 238.662 300.031C258.537 334.309 289.571 342.99 346.783 315.614C346.421 315.848 347.751 315.253 350.172 314.078Z" fill="#5B4883" fill-opacity="0.75"/>
</g>
<g style="mix-blend-mode:screen" opacity="0.5" filter="url(#filter3_f_55094_43287)">
<ellipse cx="1.53427" cy="6.25666" rx="1.53427" ry="6.25666" transform="matrix(0.915643 -0.401992 0.403799 0.914848 432.012 157.358)" fill="white"/>
</g>
<g style="mix-blend-mode:screen" opacity="0.8" filter="url(#filter4_f_55094_43287)">
<ellipse cx="1.21728" cy="3.64523" rx="1.21728" ry="3.64523" transform="matrix(0.915643 -0.401992 0.403799 0.914848 433.506 159.572)" fill="white"/>
</g>
<g filter="url(#filter5_f_55094_43287)">
<path fill-rule="evenodd" clip-rule="evenodd" d="M425.467 184.405C441.478 199.315 447.843 216.315 446.97 234.739C449.043 215.185 442.839 198.574 425.467 184.405Z" fill="url(#paint1_linear_55094_43287)"/>
</g>
<g filter="url(#filter6_f_55094_43287)">
<path fill-rule="evenodd" clip-rule="evenodd" d="M425.467 184.405C441.478 199.315 447.843 216.315 446.97 234.739C449.043 215.185 442.839 198.574 425.467 184.405Z" fill="url(#paint2_linear_55094_43287)"/>
</g>
<g opacity="0.8" filter="url(#filter7_f_55094_43287)">
<ellipse cx="1.21728" cy="6.51823" rx="1.21728" ry="6.51823" transform="matrix(0.915643 -0.401992 0.403799 0.914848 437.31 198.609)" fill="white"/>
</g>
<path fill-rule="evenodd" clip-rule="evenodd" d="M205.844 237.333C205.707 237.8 205.851 238.221 205.995 238.643C206.102 238.955 206.208 239.267 206.201 239.598C205.624 239.616 205.279 239.871 205.077 240.446C203.704 244.294 200.642 246.399 196.569 246.678C196.157 246.706 195.747 246.741 195.339 246.775L195.338 246.775C193.542 246.926 191.768 247.076 189.922 246.713C185.487 245.854 182.503 241.353 183.722 236.995C185.131 231.955 188.87 228.243 194.578 228.67C195.263 228.723 195.95 228.713 196.639 228.704C197.121 228.698 197.603 228.691 198.085 228.706C198.173 228.709 198.271 228.697 198.37 228.685C198.666 228.65 198.98 228.613 199.114 228.955C199.288 229.406 198.984 229.593 198.673 229.784L198.673 229.784C198.592 229.834 198.51 229.884 198.436 229.939C195.939 231.831 195.517 232.975 196.361 235.459C197.562 238.987 202.063 240.084 204.685 237.831C204.741 237.782 204.796 237.731 204.85 237.681L204.85 237.681C205.125 237.423 205.386 237.179 205.838 237.327L205.844 237.333ZM82.7576 248.654C82.9187 248.641 83.0799 248.628 83.2411 248.615L83.5562 248.585C89.7452 246.948 92.6525 242.3 92.2363 239.086C91.9886 239.239 91.7445 239.391 91.5023 239.542L91.5006 239.543L91.5005 239.543C90.9818 239.866 90.4717 240.184 89.9533 240.491C88.6454 241.274 86.0948 240.942 84.8939 239.922C83.3779 238.641 82.8547 237.046 82.6466 235.084C82.4542 233.3 83.4622 232.533 84.492 231.749C84.7666 231.54 85.0428 231.33 85.2982 231.099C85.1453 230.657 84.7865 230.668 84.4271 230.679C84.0876 230.69 83.7475 230.7 83.58 230.328C77.3256 229.753 72.6823 231.977 70.001 237.871C68.8238 240.474 70.0486 245.312 72.4683 247.008C75.6587 249.242 79.2027 248.949 82.7569 248.655L82.7572 248.654L82.7576 248.654ZM91.312 303.862L91.312 303.85C91.3132 301.487 91.3143 299.124 91.3143 296.76L91.3083 296.766H91.2191C91.2191 296.118 91.2224 295.47 91.2257 294.822C91.2324 293.525 91.239 292.228 91.2191 290.932C91.1673 287.755 91.1955 284.579 91.2236 281.402V281.402V281.402V281.402V281.401C91.2729 275.827 91.3222 270.254 90.9397 264.683C90.8386 263.153 90.2976 262.192 88.627 261.836C82.9578 260.625 77.2236 260.856 71.5068 261.087L71.4452 261.089C68.9482 261.19 66.5582 261.914 64.8578 264.125C63.6747 265.667 63.9482 267.208 64.3108 268.815C64.6557 270.345 65.595 270.819 67.2359 270.831C71.1182 270.855 72.4737 271.94 73.5082 275.646C74.2657 278.362 74.1944 281.101 74.1233 283.836C74.0978 284.815 74.0723 285.793 74.0849 286.769C74.1056 288.313 74.1283 289.857 74.151 291.402C74.3233 303.124 74.4957 314.853 73.8233 326.573C73.8157 326.707 73.8087 326.834 73.8021 326.955C73.7354 328.174 73.7009 328.803 73.369 329.131C73.0146 329.482 72.3211 329.491 70.8873 329.508H70.8872L70.8388 329.508C70.543 329.512 70.2467 329.506 69.9512 329.5H69.9508H69.9503H69.9499H69.9495C68.3508 329.467 66.7776 329.434 65.4583 330.955C64.0073 332.628 64.2256 334.404 64.4455 336.191L64.4455 336.191C64.485 336.513 64.5247 336.835 64.5546 337.157C64.6616 338.385 65.4048 338.924 66.8019 338.912C76.6948 338.847 86.5937 338.847 96.4867 338.901C98.5734 338.912 99.8338 337.792 100.458 336.131C100.983 334.723 100.844 333.178 100.707 331.666C100.679 331.364 100.652 331.063 100.631 330.765C100.571 329.947 99.8814 329.55 98.948 329.574C96.9325 329.627 94.9112 329.603 92.8957 329.58C92.8132 329.579 92.7258 329.584 92.6372 329.59C92.2215 329.618 91.7812 329.648 91.7126 328.969C91.6703 328.539 91.6131 328.11 91.5559 327.68C91.444 326.841 91.3321 326.002 91.3321 325.162C91.3053 318.06 91.3087 310.962 91.312 303.862ZM135.833 263.375C135.812 263.728 135.79 264.081 135.767 264.433L135.767 264.433L135.767 264.434L135.767 264.434C135.712 265.306 135.656 266.177 135.631 267.051C135.629 267.116 135.623 267.184 135.618 267.254C135.588 267.628 135.554 268.041 136.071 268.196C136.487 268.317 136.791 268.062 137.081 267.818L137.105 267.798C141.088 264.46 145.809 262.497 150.666 260.92C156.077 259.159 161.659 258.151 167.402 258.329C169.608 258.4 170.197 259.047 170.244 261.306C170.315 265.035 169.15 268.492 167.759 271.854C166.691 274.427 164.415 274.956 162.103 275.493L162.103 275.494C161.57 275.617 161.034 275.742 160.512 275.892C157.283 276.817 155.761 274.92 154.198 272.785C154.144 272.711 154.095 272.634 154.047 272.556L154.047 272.556L154.047 272.556C153.851 272.241 153.656 271.929 153.098 271.896C147.361 271.546 141.6 274.582 139.923 280.487C138.883 284.146 138.806 287.97 138.835 291.777L138.84 292.43V292.431C138.915 303.752 138.991 315.072 139.364 326.386C139.4 327.448 139.715 327.697 140.702 327.679C142.88 327.638 145.058 327.646 147.237 327.655C147.859 327.657 148.481 327.66 149.103 327.661C149.14 327.661 149.178 327.661 149.215 327.66L149.282 327.66C149.845 327.651 150.37 327.644 150.714 328.379C151.475 329.992 151.142 334.557 150.018 335.933C149.394 336.692 148.508 336.935 147.575 336.935C143.597 336.939 139.619 336.94 135.641 336.942H135.632C128.674 336.944 121.715 336.946 114.757 336.964C114.002 336.964 113.336 336.71 113.164 336.134C112.587 334.267 112.087 332.405 112.866 330.395C113.877 327.792 115.833 327.412 118.288 327.501C121.741 327.625 121.743 327.532 121.819 324.145L121.82 324.086C121.854 322.581 121.898 321.076 121.942 319.571C122.073 315.117 122.203 310.663 122.087 306.209V305.379C122.236 296.325 122.349 287.259 121.416 278.24C121.371 277.809 121.338 277.373 121.306 276.935C121.162 274.993 121.014 273.007 119.763 271.285C118.461 269.5 116.529 269.156 114.62 268.877C113.711 268.747 113.271 268.415 112.908 267.692C110.892 263.683 113.205 259.877 117.658 259.841C120.354 259.823 123.041 259.622 125.729 259.422L125.729 259.422C128.179 259.239 130.631 259.056 133.092 259.011C135.25 258.97 136.041 259.551 135.72 261.644C135.687 261.851 135.738 262.071 135.789 262.291C135.812 262.392 135.836 262.493 135.851 262.592C135.595 262.853 135.595 263.114 135.851 263.375H135.833ZM204.867 302.134C204.868 299.767 204.87 297.4 204.87 295.033L204.864 295.039H204.774C204.774 294.393 204.778 293.748 204.781 293.103L204.781 293.094C204.788 291.797 204.794 290.501 204.774 289.204C204.723 286.027 204.751 282.85 204.779 279.674C204.828 274.1 204.877 268.526 204.495 262.955C204.394 261.425 203.853 260.465 202.182 260.109C196.513 258.898 190.779 259.129 185.062 259.359L185 259.362C182.503 259.463 180.113 260.186 178.413 262.398C177.23 263.939 177.503 265.481 177.866 267.088C178.211 268.618 179.15 269.092 180.791 269.104C184.673 269.127 186.029 270.213 187.063 273.918C187.821 276.635 187.75 279.373 187.679 282.108C187.653 283.087 187.628 284.065 187.64 285.042C187.661 286.586 187.684 288.13 187.706 289.674V289.674V289.674C187.879 301.396 188.051 313.126 187.379 324.846C187.371 324.979 187.364 325.106 187.357 325.228V325.228C187.291 326.446 187.256 327.075 186.924 327.404C186.57 327.755 185.876 327.763 184.443 327.78H184.442L184.394 327.781C184.098 327.785 183.801 327.778 183.506 327.772H183.505H183.505C181.906 327.739 180.333 327.707 179.014 329.228C177.563 330.901 177.781 332.676 178.001 334.464C178.04 334.785 178.08 335.108 178.11 335.43C178.217 336.657 178.96 337.197 180.357 337.185C190.25 337.12 200.149 337.12 210.042 337.173C212.129 337.185 213.389 336.064 214.013 334.404C214.539 332.995 214.399 331.451 214.262 329.939C214.235 329.637 214.208 329.336 214.186 329.038C214.126 328.22 213.437 327.822 212.503 327.846C210.488 327.899 208.466 327.876 206.451 327.852C206.368 327.851 206.281 327.857 206.192 327.863C205.777 327.891 205.336 327.921 205.268 327.241C205.226 326.812 205.168 326.383 205.111 325.954L205.111 325.953C204.999 325.113 204.887 324.274 204.887 323.435C204.861 316.333 204.864 309.235 204.867 302.135V302.135V302.134ZM275.417 299.503C276.477 300.154 277.539 300.807 278.471 301.667V301.655C280.82 303.825 282.592 306.226 283.519 309.369C284.53 312.766 284.589 316.152 284.209 319.609C283.742 319.869 283.685 320.328 283.632 320.762C283.614 320.903 283.597 321.041 283.567 321.168C282.996 323.528 282.11 325.556 280.98 327.323C281.013 327.352 281.046 327.38 281.08 327.409C281.096 327.422 281.112 327.435 281.129 327.448C280.689 328.141 280.213 328.823 279.69 329.499C274.946 334.61 268.697 336.816 262.122 337.996C256.94 338.923 251.644 338.79 246.365 338.657C246.005 338.648 245.645 338.639 245.285 338.63C240.832 338.524 236.486 337.859 232.199 336.851C229.019 336.104 225.202 332.381 226.985 327.145C227.159 326.634 227.296 326.108 227.433 325.582C227.819 324.106 228.205 322.626 229.393 321.459C230.053 320.807 230.463 320.753 231.326 321.18C237.021 323.997 243.061 325.93 249.34 326.748C254.12 327.37 259.096 327.323 263.68 325.675C265.82 324.904 267.39 322.983 268.008 321.299C268.013 321.28 268.019 321.261 268.024 321.242C268.054 321.138 268.084 321.036 268.109 320.925C268.941 317.237 267.395 314.118 264.435 311.794C262.657 310.4 260.64 309.431 258.624 308.462C258.118 308.219 257.612 307.976 257.11 307.726C253.711 306.031 250.151 304.74 246.594 303.45C245.51 303.057 244.426 302.664 243.347 302.26C238.775 300.546 231.908 296.069 229.048 291.925C228.05 290.478 227.574 288.569 227.194 286.802C225.588 279.372 226.825 272.506 231.51 266.411C236.254 261.228 242.503 258.987 249.078 257.795C254.241 256.86 259.518 256.994 264.778 257.126C265.157 257.136 265.536 257.146 265.915 257.155C270.368 257.267 274.714 257.937 279.001 258.963C282.181 259.722 285.998 263.499 284.215 268.806C284.042 269.324 283.905 269.856 283.768 270.388C283.382 271.889 282.996 273.389 281.807 274.575C281.147 275.239 280.737 275.293 279.875 274.86C274.179 272.002 268.139 270.045 261.86 269.215C257.08 268.587 252.235 269.049 247.52 270.306C247.33 270.359 247.165 270.516 247 270.672C246.922 270.746 246.845 270.819 246.765 270.881C244.381 272.174 242.937 273.988 242.758 276.9C242.443 282.088 245.148 285.047 249.363 287.335C253.446 289.553 257.74 291.265 262.033 292.977C265.58 294.392 269.126 295.806 272.55 297.504C273.431 298.282 274.423 298.892 275.417 299.503Z" fill="white"/>
<g filter="url(#filter8_f_55094_43287)">
<path fill-rule="evenodd" clip-rule="evenodd" d="M246.114 258.416C247.092 258.181 248.081 257.976 249.078 257.795C254.241 256.861 259.518 256.994 264.779 257.127C265.158 257.136 265.536 257.146 265.915 257.155C270.368 257.268 274.714 257.938 279.001 258.964C282.181 259.723 285.998 263.5 284.215 268.806C284.042 269.325 283.905 269.857 283.768 270.389C283.382 271.889 282.996 273.389 281.807 274.576C281.147 275.24 280.737 275.293 279.875 274.86C274.179 272.002 268.139 270.046 261.861 269.215C260.532 269.041 259.199 268.95 257.865 268.938C253.531 265.363 249.625 261.852 246.114 258.416Z" fill="#00FFAA"/>
</g>
<g style="mix-blend-mode:luminosity" filter="url(#filter9_b_55094_43287)">
<path d="M293.857 293.986C293.857 293.986 266.544 276.05 258.429 269.403C218.976 237.088 214.588 209.979 219.719 195.73C226.741 176.234 252.495 159.858 252.495 159.858C252.495 159.858 285.272 135.683 337.097 144.37C352.299 147.424 375.723 155.488 374.237 155.179C427.875 173.786 442.132 198.849 433.154 233.151C428.862 252.652 420.277 267.47 420.277 267.47C403.107 300.224 385.158 314.258 355.503 314.258C348.815 314.258 323.506 313.476 293.851 293.986H293.857Z" fill="#131917" fill-opacity="0.1"/>
</g>
<g filter="url(#filter10_f_55094_43287)">
<path fill-rule="evenodd" clip-rule="evenodd" d="M245.216 258.272C246.194 258.037 247.184 257.832 248.181 257.651C253.344 256.716 258.621 256.85 263.881 256.983C264.26 256.992 264.639 257.002 265.018 257.011C269.471 257.123 273.817 257.793 278.103 258.819C281.284 259.578 285.101 263.355 283.317 268.662C283.144 269.18 283.008 269.712 282.871 270.244C282.485 271.745 282.099 273.245 280.909 274.431C280.249 275.095 279.839 275.149 278.977 274.716C273.282 271.858 267.241 269.901 260.963 269.071C259.634 268.896 258.301 268.806 256.966 268.794C252.632 265.219 248.727 261.708 245.216 258.272Z" fill="#00FFAA" style="mix-blend-mode:luminosity"/>
</g>
<g style="mix-blend-mode:overlay" filter="url(#filter11_f_55094_43287)">
<path fill-rule="evenodd" clip-rule="evenodd" d="M360.187 308.331C381.233 305.153 395.353 292.001 408.944 266.14C408.944 266.14 416.846 252.534 420.797 234.628C429.06 203.132 415.937 180.119 366.565 163.035C367.933 163.318 346.372 155.913 332.379 153.109C291.044 146.198 262.874 161.941 256.089 166.268C257.622 165.19 258.545 164.605 258.545 164.605C258.545 164.605 289.162 142.075 337.573 150.17C351.773 153.016 373.655 160.532 372.266 160.245C422.371 177.586 435.689 200.945 427.303 232.915C423.293 251.09 415.273 264.9 415.273 264.9C400.308 293.383 384.71 306.678 360.187 308.331Z" fill="white"/>
</g>
<g style="mix-blend-mode:overlay" filter="url(#filter12_f_55094_43287)">
<path fill-rule="evenodd" clip-rule="evenodd" d="M322.942 148.573C324.015 148.726 325.097 148.894 326.187 149.076C341.135 152.07 364.168 159.975 362.707 159.673C415.449 177.913 429.467 202.484 420.64 236.111C416.419 255.229 407.977 269.755 407.977 269.755C400.975 283.072 393.841 293.233 385.809 300.565C397.059 293.649 406.28 282.017 415.273 264.901C415.273 264.901 423.292 251.091 427.302 232.915C435.688 200.946 422.371 177.587 372.266 160.245C373.654 160.533 351.773 153.017 337.572 150.171C332.495 149.322 327.613 148.81 322.942 148.573Z" fill="white"/>
</g>
<g style="mix-blend-mode:overlay" filter="url(#filter13_f_55094_43287)">
<path fill-rule="evenodd" clip-rule="evenodd" d="M361.414 157.552C363.273 158.191 364.233 158.556 363.896 158.486C416.638 176.727 432.44 202.483 423.613 236.11C419.392 255.228 410.951 269.754 410.951 269.754C407.623 276.084 404.196 281.7 400.615 286.638C405.297 280.825 409.718 273.806 414.085 265.494C414.085 265.494 422.104 251.684 426.114 233.508C434.5 201.539 421.183 178.179 371.078 160.838C371.71 160.969 367.514 159.481 361.414 157.552Z" fill="url(#paint3_linear_55094_43287)"/>
</g>
<g style="mix-blend-mode:overlay" filter="url(#filter14_f_55094_43287)">
<path fill-rule="evenodd" clip-rule="evenodd" d="M361.414 157.552C363.273 158.191 364.233 158.556 363.896 158.486C416.638 176.727 432.44 202.483 423.613 236.11C419.392 255.228 410.951 269.754 410.951 269.754C407.623 276.084 404.196 281.7 400.615 286.638C405.297 280.825 409.718 273.806 414.085 265.494C414.085 265.494 422.104 251.684 426.114 233.508C434.5 201.539 421.183 178.179 371.078 160.838C371.71 160.969 367.514 159.481 361.414 157.552Z" fill="url(#paint4_linear_55094_43287)"/>
</g>
<g style="mix-blend-mode:overlay" filter="url(#filter15_f_55094_43287)">
<path d="M423.987 194.367C427.598 200.607 430.824 213.045 427.256 213.045C425.107 214.282 423.437 204.492 419.825 198.253C416.213 192.013 408.529 183.102 408.529 181.619C410.678 180.382 420.375 188.128 423.987 194.367Z" fill="white" style="mix-blend-mode:overlay"/>
</g>
<g style="mix-blend-mode:color-dodge" filter="url(#filter16_f_55094_43287)">
<path d="M423.391 195.553C427.003 201.792 429.039 208.301 425.472 208.301C423.391 206.522 424.03 206.27 420.419 200.031C416.807 193.792 415.662 191.403 415.662 189.92C417.811 188.683 419.779 189.314 423.391 195.553Z" fill="white" style="mix-blend-mode:overlay"/>
</g>
<defs>
<filter id="filter0_f_55094_43287" x="272.938" y="98.574" width="206.696" height="251.991" filterUnits="userSpaceOnUse" color-interpolation-filters="sRGB">
<feFlood flood-opacity="0" result="BackgroundImageFix"/>
<feBlend mode="normal" in="SourceGraphic" in2="BackgroundImageFix" result="shape"/>
<feGaussianBlur stdDeviation="25" result="effect1_foregroundBlur_55094_43287"/>
</filter>
<filter id="filter1_f_55094_43287" x="331.399" y="127.548" width="127.046" height="189.087" filterUnits="userSpaceOnUse" color-interpolation-filters="sRGB">
<feFlood flood-opacity="0" result="BackgroundImageFix"/>
<feBlend mode="normal" in="SourceGraphic" in2="BackgroundImageFix" result="shape"/>
<feGaussianBlur stdDeviation="15" result="effect1_foregroundBlur_55094_43287"/>
</filter>
<filter id="filter2_b_55094_43287" x="174.94" y="93" width="307.557" height="278.828" filterUnits="userSpaceOnUse" color-interpolation-filters="sRGB">
<feFlood flood-opacity="0" result="BackgroundImageFix"/>
<feGaussianBlur in="BackgroundImageFix" stdDeviation="20"/>
<feComposite in2="SourceAlpha" operator="in" result="effect1_backgroundBlur_55094_43287"/>
<feBlend mode="normal" in="SourceGraphic" in2="effect1_backgroundBlur_55094_43287" result="shape"/>
</filter>
<filter id="filter3_f_55094_43287" x="429.052" y="152.707" width="13.7826" height="19.515" filterUnits="userSpaceOnUse" color-interpolation-filters="sRGB">
<feFlood flood-opacity="0" result="BackgroundImageFix"/>
<feBlend mode="normal" in="SourceGraphic" in2="BackgroundImageFix" result="shape"/>
<feGaussianBlur stdDeviation="2" result="effect1_foregroundBlur_55094_43287"/>
</filter>
<filter id="filter4_f_55094_43287" x="432.246" y="157.047" width="7.69287" height="10.742" filterUnits="userSpaceOnUse" color-interpolation-filters="sRGB">
<feFlood flood-opacity="0" result="BackgroundImageFix"/>
<feBlend mode="normal" in="SourceGraphic" in2="BackgroundImageFix" result="shape"/>
<feGaussianBlur stdDeviation="1" result="effect1_foregroundBlur_55094_43287"/>
</filter>
<filter id="filter5_f_55094_43287" x="423.467" y="182.405" width="25.8876" height="54.3335" filterUnits="userSpaceOnUse" color-interpolation-filters="sRGB">
<feFlood flood-opacity="0" result="BackgroundImageFix"/>
<feBlend mode="normal" in="SourceGraphic" in2="BackgroundImageFix" result="shape"/>
<feGaussianBlur stdDeviation="1" result="effect1_foregroundBlur_55094_43287"/>
</filter>
<filter id="filter6_f_55094_43287" x="423.467" y="182.405" width="25.8876" height="54.3335" filterUnits="userSpaceOnUse" color-interpolation-filters="sRGB">
<feFlood flood-opacity="0" result="BackgroundImageFix"/>
<feBlend mode="normal" in="SourceGraphic" in2="BackgroundImageFix" result="shape"/>
<feGaussianBlur stdDeviation="1" result="effect1_foregroundBlur_55094_43287"/>
</filter>
<filter id="filter7_f_55094_43287" x="436.198" y="196.099" width="9.71814" height="15.9671" filterUnits="userSpaceOnUse" color-interpolation-filters="sRGB">
<feFlood flood-opacity="0" result="BackgroundImageFix"/>
<feBlend mode="normal" in="SourceGraphic" in2="BackgroundImageFix" result="shape"/>
<feGaussianBlur stdDeviation="1" result="effect1_foregroundBlur_55094_43287"/>
</filter>
<filter id="filter8_f_55094_43287" x="226.114" y="237.033" width="78.5558" height="58.1061" filterUnits="userSpaceOnUse" color-interpolation-filters="sRGB">
<feFlood flood-opacity="0" result="BackgroundImageFix"/>
<feBlend mode="normal" in="SourceGraphic" in2="BackgroundImageFix" result="shape"/>
<feGaussianBlur stdDeviation="10" result="effect1_foregroundBlur_55094_43287"/>
</filter>
<filter id="filter9_b_55094_43287" x="213.983" y="138.486" width="225.667" height="179.772" filterUnits="userSpaceOnUse" color-interpolation-filters="sRGB">
<feFlood flood-opacity="0" result="BackgroundImageFix"/>
<feGaussianBlur in="BackgroundImageFix" stdDeviation="2"/>
<feComposite in2="SourceAlpha" operator="in" result="effect1_backgroundBlur_55094_43287"/>
<feBlend mode="normal" in="SourceGraphic" in2="effect1_backgroundBlur_55094_43287" result="shape"/>
</filter>
<filter id="filter10_f_55094_43287" x="230.216" y="241.889" width="68.5562" height="48.1061" filterUnits="userSpaceOnUse" color-interpolation-filters="sRGB">
<feFlood flood-opacity="0" result="BackgroundImageFix"/>
<feBlend mode="normal" in="SourceGraphic" in2="BackgroundImageFix" result="shape"/>
<feGaussianBlur stdDeviation="7.5" result="effect1_foregroundBlur_55094_43287"/>
</filter>
<filter id="filter11_f_55094_43287" x="244.089" y="136.415" width="197.544" height="183.916" filterUnits="userSpaceOnUse" color-interpolation-filters="sRGB">
<feFlood flood-opacity="0" result="BackgroundImageFix"/>
<feBlend mode="normal" in="SourceGraphic" in2="BackgroundImageFix" result="shape"/>
<feGaussianBlur stdDeviation="6" result="effect1_foregroundBlur_55094_43287"/>
</filter>
<filter id="filter12_f_55094_43287" x="310.942" y="136.573" width="130.692" height="175.992" filterUnits="userSpaceOnUse" color-interpolation-filters="sRGB">
<feFlood flood-opacity="0" result="BackgroundImageFix"/>
<feBlend mode="normal" in="SourceGraphic" in2="BackgroundImageFix" result="shape"/>
<feGaussianBlur stdDeviation="6" result="effect1_foregroundBlur_55094_43287"/>
</filter>
<filter id="filter13_f_55094_43287" x="357.414" y="153.552" width="75.0311" height="137.086" filterUnits="userSpaceOnUse" color-interpolation-filters="sRGB">
<feFlood flood-opacity="0" result="BackgroundImageFix"/>
<feBlend mode="normal" in="SourceGraphic" in2="BackgroundImageFix" result="shape"/>
<feGaussianBlur stdDeviation="2" result="effect1_foregroundBlur_55094_43287"/>
</filter>
<filter id="filter14_f_55094_43287" x="357.414" y="153.552" width="75.0311" height="137.086" filterUnits="userSpaceOnUse" color-interpolation-filters="sRGB">
<feFlood flood-opacity="0" result="BackgroundImageFix"/>
<feBlend mode="normal" in="SourceGraphic" in2="BackgroundImageFix" result="shape"/>
<feGaussianBlur stdDeviation="2" result="effect1_foregroundBlur_55094_43287"/>
</filter>
<filter id="filter15_f_55094_43287" x="400.529" y="173.488" width="36.2778" height="47.664" filterUnits="userSpaceOnUse" color-interpolation-filters="sRGB">
<feFlood flood-opacity="0" result="BackgroundImageFix"/>
<feBlend mode="normal" in="SourceGraphic" in2="BackgroundImageFix" result="shape"/>
<feGaussianBlur stdDeviation="4" result="effect1_foregroundBlur_55094_43287"/>
</filter>
<filter id="filter16_f_55094_43287" x="407.662" y="181.4" width="27.6721" height="34.9016" filterUnits="userSpaceOnUse" color-interpolation-filters="sRGB">
<feFlood flood-opacity="0" result="BackgroundImageFix"/>
<feBlend mode="normal" in="SourceGraphic" in2="BackgroundImageFix" result="shape"/>
<feGaussianBlur stdDeviation="4" result="effect1_foregroundBlur_55094_43287"/>
</filter>
<linearGradient id="paint0_linear_55094_43287" x1="361.262" y1="157.309" x2="394.754" y2="286.678" gradientUnits="userSpaceOnUse">
<stop stop-color="white" stop-opacity="0"/>
<stop offset="0.462537" stop-color="white"/>
<stop offset="1" stop-color="white" stop-opacity="0"/>
</linearGradient>
<linearGradient id="paint1_linear_55094_43287" x1="425.422" y1="184.312" x2="440.613" y2="233.439" gradientUnits="userSpaceOnUse">
<stop stop-color="white" stop-opacity="0"/>
<stop offset="0.462537" stop-color="white"/>
<stop offset="1" stop-color="white" stop-opacity="0"/>
</linearGradient>
<linearGradient id="paint2_linear_55094_43287" x1="425.422" y1="184.312" x2="440.613" y2="233.439" gradientUnits="userSpaceOnUse">
<stop stop-color="white" stop-opacity="0"/>
<stop offset="0.462537" stop-color="white"/>
<stop offset="1" stop-color="white" stop-opacity="0"/>
</linearGradient>
<linearGradient id="paint3_linear_55094_43287" x1="361.277" y1="157.313" x2="394.775" y2="286.678" gradientUnits="userSpaceOnUse">
<stop stop-color="white" stop-opacity="0"/>
<stop offset="0.462537" stop-color="white"/>
<stop offset="1" stop-color="white" stop-opacity="0"/>
</linearGradient>
<linearGradient id="paint4_linear_55094_43287" x1="361.277" y1="157.313" x2="394.775" y2="286.678" gradientUnits="userSpaceOnUse">
<stop stop-color="white" stop-opacity="0"/>
<stop offset="0.462537" stop-color="white"/>
<stop offset="1" stop-color="white" stop-opacity="0"/>
</linearGradient>
</defs>
</svg>
