<svg width="134" height="192" viewBox="0 0 134 192" fill="none" xmlns="http://www.w3.org/2000/svg">
<path d="M0 10.7896C0 5.26672 4.47715 0.789551 10 0.789551H124C129.523 0.789551 134 5.2667 134 10.7895V191.211H0V10.7896Z" fill="#4B1763"/>
<path fill-rule="evenodd" clip-rule="evenodd" d="M45.8421 14.8949C42.4339 14.8949 39.6711 12.132 39.6711 8.72381C39.6711 8.42452 39.6924 8.1302 39.7335 7.84229H11.5263C7.10803 7.84229 3.52631 11.424 3.52631 15.8423V144.317V191.211H130.474V15.8423C130.474 11.424 126.892 7.84229 122.474 7.84229H94.723C94.7642 8.1302 94.7855 8.42452 94.7855 8.72381C94.7855 12.132 92.0226 14.8949 88.6144 14.8949H45.8421Z" fill="#E1E2E5"/>
<rect x="10.8376" y="32.542" width="28.2105" height="28.2105" rx="6" fill="white"/>
<rect x="10.8376" y="73.9761" width="28.2105" height="28.2105" rx="6" fill="white"/>
<rect x="10.8376" y="115.41" width="28.2105" height="28.2105" rx="6" fill="white"/>
<rect x="10.8376" y="153.303" width="28.2105" height="28.2105" rx="6" fill="white"/>
<rect x="53.1533" y="32.542" width="28.2105" height="28.2105" rx="6" fill="white"/>
<rect x="53.1533" y="73.9761" width="28.2105" height="28.2105" rx="6" fill="white"/>
<rect x="53.1533" y="115.41" width="28.2105" height="28.2105" rx="6" fill="white"/>
<rect x="53.1533" y="153.303" width="28.2105" height="28.2105" rx="6" fill="white"/>
<g filter="url(#filter0_d_56333_5996)">
<rect x="92.5658" y="29.8816" width="32.6184" height="32.6184" rx="6" fill="#5FDBB9"/>
</g>
<rect x="95.2105" y="73.9607" width="28.2105" height="28.2105" rx="6" fill="white"/>
<rect x="95.2105" y="115.395" width="28.2105" height="28.2105" rx="6" fill="white"/>
<rect x="95.2105" y="153.287" width="28.2105" height="28.2105" rx="6" fill="white"/>
<path d="M108.742 52.5739C109.06 52.3821 109.458 52.3821 109.776 52.5739L113.733 54.9621C114.49 55.4192 115.424 54.7402 115.223 53.8788L114.173 49.3775C114.089 49.0161 114.212 48.6376 114.492 48.3945L117.99 45.3647C118.658 44.7855 118.301 43.6872 117.419 43.6124L112.816 43.2219C112.447 43.1906 112.125 42.9572 111.98 42.6157L110.18 38.3672C109.835 37.5542 108.683 37.5542 108.338 38.3672L106.538 42.6157C106.393 42.9572 106.071 43.1906 105.701 43.2219L101.098 43.6124C100.217 43.6872 99.8596 44.7855 100.528 45.3647L104.026 48.3945C104.306 48.6376 104.429 49.0161 104.345 49.3775L103.295 53.8788C103.094 54.7402 104.028 55.4192 104.785 54.9621L108.742 52.5739Z" fill="white"/>
<defs>
<filter id="filter0_d_56333_5996" x="88.5658" y="29.8816" width="40.6184" height="40.6184" filterUnits="userSpaceOnUse" color-interpolation-filters="sRGB">
<feFlood flood-opacity="0" result="BackgroundImageFix"/>
<feColorMatrix in="SourceAlpha" type="matrix" values="0 0 0 0 0 0 0 0 0 0 0 0 0 0 0 0 0 0 127 0" result="hardAlpha"/>
<feOffset dy="4"/>
<feGaussianBlur stdDeviation="2"/>
<feComposite in2="hardAlpha" operator="out"/>
<feColorMatrix type="matrix" values="0 0 0 0 0 0 0 0 0 0 0 0 0 0 0 0 0 0 0.25 0"/>
<feBlend mode="normal" in2="BackgroundImageFix" result="effect1_dropShadow_56333_5996"/>
<feBlend mode="normal" in="SourceGraphic" in2="effect1_dropShadow_56333_5996" result="shape"/>
</filter>
</defs>
</svg>
