<svg width="288" height="288" viewBox="0 0 288 288" fill="none" xmlns="http://www.w3.org/2000/svg">
<g filter="url(#filter0_f_55083_35874)">
<path d="M71.3107 126.008C58.8156 165.028 80.2649 206.773 119.219 219.246C158.173 231.72 199.881 210.2 212.376 171.18C224.871 132.159 203.421 90.415 164.467 77.9412C125.513 65.4674 83.8057 86.9877 71.3107 126.008Z" fill="#F3FFF9"/>
</g>
<path fill-rule="evenodd" clip-rule="evenodd" d="M95.3851 55.83C95.135 55.959 94.9581 56.1765 94.8785 56.4252C94.7997 56.6712 94.8139 56.9442 94.9382 57.1904C95.1903 57.6893 95.7977 57.8895 96.2962 57.6365C99.7776 55.8744 103.398 54.2953 107.054 52.9395C107.576 52.745 107.845 52.1613 107.651 51.6386C107.457 51.1159 106.877 50.8482 106.353 51.0419C102.624 52.4224 98.9333 54.0356 95.3851 55.83ZM117.787 47.5279C117.434 47.6157 117.168 47.8811 117.065 48.2041C117.01 48.3758 116.998 48.564 117.045 48.7515C117.179 49.2945 117.724 49.6273 118.266 49.493C122.054 48.5611 125.936 47.8399 129.799 47.3446C130.352 47.273 130.746 46.7661 130.675 46.2121C130.604 45.6581 130.098 45.2644 129.545 45.3359C125.606 45.8407 121.649 46.5773 117.787 47.5279ZM141.475 44.5016C141.03 44.5088 140.653 44.8037 140.524 45.2061L140.522 45.2053C140.49 45.3053 140.472 45.4153 140.473 45.5259C140.48 46.0849 140.937 46.5337 141.496 46.526C145.396 46.4777 149.337 46.6546 153.209 47.0552C153.764 47.1113 154.262 46.7111 154.319 46.153C154.378 45.5982 153.974 45.0986 153.419 45.0425C149.47 44.6343 145.452 44.4525 141.475 44.5016ZM165.222 46.9594C164.708 46.8458 164.197 47.1457 164.039 47.6379L164.037 47.637C164.028 47.6651 164.022 47.6917 164.015 47.72L164.015 47.7205L164.015 47.7211L164.013 47.7284C163.892 48.2745 164.236 48.8141 164.781 48.935C167.791 49.605 170.808 50.4213 173.751 51.3636C174.521 51.6102 175.293 51.8688 176.062 52.135C176.591 52.3182 177.165 52.0388 177.349 51.5097C177.531 50.9858 177.254 50.4054 176.726 50.2222C175.941 49.951 175.156 49.6884 174.368 49.436C171.369 48.4757 168.29 47.6423 165.222 46.9594ZM186.437 55.2508C186.415 55.2945 186.398 55.3373 186.384 55.3808L186.387 55.3817C186.235 55.8558 186.451 56.38 186.91 56.6006C190.427 58.289 193.881 60.1977 197.178 62.2709C197.653 62.5671 198.274 62.4241 198.573 61.9515C198.869 61.4756 198.727 60.8535 198.255 60.5555C194.894 58.4423 191.374 56.4953 187.786 54.7755C187.281 54.5349 186.678 54.7457 186.437 55.2508ZM54.2192 210.859C53.9629 210.81 53.726 210.66 53.5683 210.426C51.3673 207.115 49.3294 203.641 47.518 200.102C47.2637 199.603 47.461 198.996 47.9571 198.742C48.4533 198.487 49.0647 198.685 49.3195 199.181C51.0977 202.651 53.0935 206.059 55.2546 209.308C55.5646 209.773 55.4377 210.4 54.9719 210.71C54.7422 210.862 54.4728 210.908 54.2192 210.859ZM43.4345 189.799C43.1016 189.735 42.8067 189.502 42.6779 189.163C41.2776 185.44 40.0787 181.598 39.112 177.746C38.9756 177.205 39.3069 176.656 39.8486 176.52C40.3903 176.384 40.9403 176.715 41.0766 177.256C42.0249 181.033 43.1996 184.803 44.5725 188.454C44.77 188.977 44.5039 189.558 43.9805 189.755C43.7999 189.824 43.6115 189.834 43.4345 189.799ZM37.6861 166.858C37.2712 166.778 36.9339 166.439 36.8742 165.998C36.3556 162.054 36.0613 158.043 36.0002 154.073C35.9903 153.516 36.4387 153.055 36.9966 153.049C37.5576 153.04 38.0138 153.487 38.0236 154.044C38.0832 157.936 38.3733 161.871 38.8819 165.738C38.9556 166.292 38.564 166.799 38.0097 166.872C37.9 166.886 37.7886 166.881 37.6855 166.861L37.6861 166.858ZM37.3227 143.221C36.8154 143.122 36.4572 142.651 36.5094 142.127C36.825 139 37.2888 135.844 37.8881 132.752C38.0456 131.94 38.2137 131.13 38.3902 130.318C38.5097 129.772 39.0533 129.428 39.5951 129.547C40.1421 129.667 40.4875 130.205 40.3679 130.751C40.1945 131.546 40.029 132.344 39.8751 133.137C39.287 136.171 38.8329 139.263 38.5232 142.331C38.4675 142.887 37.9723 143.292 37.4157 143.236L37.4088 143.235L37.4086 143.235L37.408 143.235L37.4079 143.235C37.3786 143.232 37.3513 143.229 37.3222 143.223L37.3227 143.221ZM42.3716 120.118C42.3267 120.109 42.2823 120.098 42.2363 120.081C41.7063 119.901 41.4256 119.327 41.6049 118.798C42.8888 115.032 44.4062 111.305 46.1077 107.719C46.3478 107.215 46.9487 107.001 47.4564 107.239C47.9609 107.479 48.1763 108.079 47.9382 108.585C46.2691 112.104 44.7819 115.76 43.5207 119.451C43.3559 119.934 42.861 120.21 42.3721 120.115L42.3716 120.118ZM62.0548 218.541C62.0661 218.264 62.19 217.995 62.4183 217.805C62.8469 217.448 63.4845 217.506 63.8408 217.935C66.3349 220.941 69.0273 223.83 71.8405 226.525C72.2443 226.911 72.2585 227.552 71.871 227.957C71.4861 228.361 70.8455 228.376 70.4418 227.987C67.5743 225.239 64.8304 222.293 62.2849 219.229C62.1183 219.029 62.0423 218.783 62.0521 218.541L62.0548 218.541ZM79.1441 234.909C79.1522 234.71 79.2195 234.511 79.3474 234.341C79.6856 233.894 80.3183 233.809 80.7618 234.145C83.8685 236.502 87.1455 238.704 90.4986 240.689C90.9792 240.972 91.1394 241.593 90.8536 242.074C90.5705 242.556 89.9508 242.716 89.4704 242.43C86.049 240.405 82.7092 238.16 79.5398 235.757C79.2659 235.55 79.1284 235.229 79.1414 234.909L79.1441 234.909ZM99.5046 246.955C99.5096 246.831 99.5362 246.705 99.5923 246.584C99.8201 246.073 100.416 245.844 100.925 246.07C104.486 247.656 108.175 249.053 111.897 250.22C112.431 250.388 112.725 250.954 112.558 251.489C112.391 252.021 111.825 252.318 111.292 252.151C107.497 250.96 103.734 249.535 100.105 247.919C99.7171 247.744 99.4909 247.355 99.5074 246.952L99.5046 246.955ZM235.654 200.076C235.89 200.002 236.099 199.83 236.227 199.582C238.012 196.074 239.631 192.419 241.033 188.722C241.229 188.201 240.994 187.616 240.509 187.411C240.024 187.207 239.469 187.463 239.272 187.981C237.895 191.606 236.31 195.191 234.558 198.634C234.306 199.127 234.477 199.738 234.938 200.001C235.165 200.13 235.421 200.15 235.654 200.076ZM244 178.074C244.306 177.978 244.563 177.718 244.655 177.368C245.657 173.528 246.461 169.588 247.047 165.662C247.129 165.11 246.774 164.596 246.256 164.514C245.738 164.431 245.251 164.814 245.169 165.366C244.594 169.216 243.807 173.08 242.825 176.847C242.683 177.386 242.98 177.938 243.486 178.083C243.66 178.134 243.837 178.126 244 178.074ZM229.136 208.316C229.375 208.494 229.517 208.766 229.549 209.055L229.551 209.055C229.579 209.307 229.522 209.571 229.372 209.797C227.09 213.234 224.603 216.565 221.98 219.701C221.611 220.144 220.979 220.186 220.57 219.797C220.159 219.408 220.126 218.734 220.495 218.294C223.069 215.219 225.509 211.951 227.745 208.58C228.064 208.098 228.688 207.98 229.136 208.316ZM213.674 227.153C213.813 227.32 213.894 227.523 213.916 227.73L213.919 227.73C213.955 228.064 213.843 228.412 213.589 228.655C210.643 231.455 207.518 234.106 204.296 236.533C203.844 236.876 203.222 236.763 202.908 236.284C202.591 235.805 202.703 235.141 203.156 234.801C206.313 232.422 209.379 229.822 212.267 227.075C212.679 226.683 213.308 226.715 213.674 227.153ZM194.631 241.79C194.695 241.912 194.73 242.042 194.745 242.171L194.742 242.168C194.787 242.589 194.593 243.017 194.224 243.235C190.768 245.252 187.165 247.081 183.515 248.669C183.002 248.892 182.422 248.631 182.219 248.089C182.015 247.544 182.264 246.923 182.777 246.701C186.358 245.145 189.889 243.351 193.28 241.371C193.766 241.089 194.369 241.276 194.631 241.79Z" fill="#1C4778"/>
<path d="M39.2173 117.558C41.2789 117.12 43.6178 115.914 44.9474 112.883L39.2173 117.558Z" fill="white"/>
<path d="M39.1257 118.265C38.8485 118.23 38.6144 118.007 38.5605 117.695C38.4959 117.308 38.7355 116.935 39.0988 116.857C41.5669 116.333 43.3324 114.895 44.3444 112.587C44.5005 112.227 44.8988 112.069 45.2326 112.23C45.5663 112.391 45.7063 112.813 45.5502 113.173C44.3579 115.887 42.2101 117.644 39.3357 118.254C39.2657 118.27 39.193 118.273 39.1257 118.262V118.265Z" fill="#1C4778"/>
<path d="M87.0656 103.702C87.3024 103.5 87.0575 102.764 86.5246 102.058C85.9917 101.351 85.3673 100.94 85.1304 101.141L87.0656 103.702Z" fill="white"/>
<path d="M82.482 107.622C82.2479 107.823 81.6234 107.412 81.0878 106.706C80.5523 105.999 80.31 105.263 80.5469 105.061L82.482 107.622Z" fill="white"/>
<path d="M202.066 156.999H183.843L182.723 131.887H203.189L202.066 156.999Z" fill="#FF897D"/>
<path d="M202.066 157.947H183.846C183.344 157.947 182.93 157.549 182.908 157.043L181.786 131.928C181.774 131.67 181.869 131.417 182.044 131.233C182.222 131.046 182.465 130.941 182.723 130.941H203.189C203.445 130.941 203.691 131.046 203.868 131.233C204.046 131.42 204.139 131.67 204.126 131.928L203.004 157.043C202.98 157.549 202.568 157.947 202.066 157.947ZM184.742 156.054H201.17L202.208 132.832H183.705L184.742 156.054Z" fill="#1C4778"/>
<path d="M205.97 131.887H179.938V129.662C179.938 126.848 182.2 124.568 184.99 124.568H200.917C203.708 124.568 205.97 126.85 205.97 129.662V131.887Z" fill="#FF897D"/>
<path d="M205.97 132.832H179.938C179.419 132.832 179 132.409 179 131.887V129.662C179 126.33 181.688 123.619 184.99 123.619H200.917C204.219 123.619 206.907 126.33 206.907 129.662V131.887C206.907 132.409 206.486 132.832 205.97 132.832ZM180.877 130.939H205.032V129.662C205.032 127.375 203.186 125.513 200.919 125.513H184.993C182.723 125.513 180.88 127.375 180.88 129.662V130.939H180.877Z" fill="#1C4778"/>
<path d="M233.061 156.999H214.838L213.715 131.887H234.183L233.061 156.999Z" fill="#FFD766"/>
<path d="M233.061 157.947H214.838C214.336 157.947 213.922 157.549 213.9 157.043L212.778 131.928C212.766 131.67 212.861 131.417 213.036 131.233C213.214 131.046 213.457 130.941 213.715 130.941H234.181C234.437 130.941 234.683 131.046 234.86 131.233C235.038 131.42 235.131 131.67 235.118 131.928L233.996 157.043C233.972 157.549 233.56 157.947 233.058 157.947H233.061ZM215.736 156.054H232.165L233.202 132.832H214.699L215.736 156.054Z" fill="#1C4778"/>
<path d="M236.964 131.887H210.932V129.662C210.932 126.848 213.194 124.568 215.985 124.568H231.911C234.702 124.568 236.964 126.85 236.964 129.662V131.887Z" fill="#FFD766"/>
<path d="M236.964 132.832H210.932C210.414 132.832 209.995 132.409 209.995 131.887V129.662C209.995 126.33 212.683 123.619 215.985 123.619H231.912C235.213 123.619 237.902 126.33 237.902 129.662V131.887C237.902 132.409 237.48 132.832 236.964 132.832ZM211.872 130.939H236.027V129.662C236.027 127.375 234.181 125.513 231.914 125.513H215.987C213.718 125.513 211.874 127.375 211.874 129.662V130.939H211.872Z" fill="#1C4778"/>
<path d="M264.053 156.999H245.832L244.71 131.887H265.175L264.053 156.999Z" fill="#5FDBB9"/>
<path d="M264.053 157.947H245.832C245.331 157.947 244.917 157.549 244.895 157.043L243.772 131.928C243.76 131.67 243.855 131.417 244.03 131.233C244.208 131.046 244.452 130.941 244.71 130.941H265.175C265.431 130.941 265.677 131.046 265.855 131.233C266.033 131.42 266.125 131.67 266.113 131.928L264.99 157.043C264.966 157.549 264.555 157.947 264.053 157.947ZM246.728 156.054H263.157L264.194 132.832H245.691L246.728 156.054Z" fill="#1C4778"/>
<path d="M267.958 131.887H241.926V129.662C241.926 126.848 244.189 124.568 246.979 124.568H262.906C265.696 124.568 267.958 126.85 267.958 129.662V131.887Z" fill="#5FDBB9"/>
<path d="M267.958 132.832H241.926C241.408 132.832 240.989 132.409 240.989 131.887V129.662C240.989 126.33 243.677 123.619 246.979 123.619H262.906C266.21 123.619 268.896 126.33 268.896 129.662V131.887C268.896 132.409 268.475 132.832 267.958 132.832ZM242.866 130.939H267.021V129.662C267.021 127.375 265.175 125.513 262.908 125.513H246.981C244.712 125.513 242.869 127.375 242.869 129.662V130.939H242.866Z" fill="#1C4778"/>
<path d="M240.344 100.135H209.486C207.988 100.135 206.773 98.9225 206.773 97.4275V66.6219C206.773 65.127 207.988 63.914 209.486 63.914H240.344C241.841 63.914 243.056 65.127 243.056 66.6219V97.4275C243.056 98.9225 241.841 100.135 240.344 100.135Z" fill="white"/>
<path d="M240.344 101.049H209.486C207.484 101.049 205.858 99.4232 205.858 97.4275V66.6219C205.858 64.6262 207.487 63 209.486 63H240.344C242.345 63 243.972 64.6238 243.972 66.6219V97.4275C243.972 99.4256 242.345 101.049 240.344 101.049ZM209.486 64.828C208.495 64.828 207.689 65.6326 207.689 66.6219V97.4275C207.689 98.4169 208.495 99.2215 209.486 99.2215H240.344C241.335 99.2215 242.141 98.4169 242.141 97.4275V66.6219C242.141 65.6326 241.335 64.828 240.344 64.828H209.486Z" fill="#1C4778"/>
<path d="M234.999 82.5583C234.683 82.5583 234.376 82.3955 234.205 82.1013L227.76 70.9585C227.166 69.9303 226.099 69.3177 224.911 69.3177C223.723 69.3177 222.656 69.9327 222.062 70.9585L220.078 74.3884C219.825 74.8259 219.265 74.9766 218.826 74.7238C218.388 74.471 218.239 73.9119 218.49 73.4744L220.475 70.0445C221.4 68.4451 223.058 67.4897 224.909 67.4897C226.759 67.4897 228.418 68.4451 229.343 70.0445L235.788 81.1873C236.041 81.6249 235.89 82.184 235.452 82.4368C235.308 82.5194 235.15 82.5583 234.994 82.5583H234.999Z" fill="#1C4778"/>
<path d="M234.023 93.4629H223.474C222.968 93.4629 222.559 93.0546 222.559 92.5489C222.559 92.0433 222.968 91.635 223.474 91.635H234.023C235.213 91.635 236.277 91.02 236.872 89.9917C237.466 88.9635 237.466 87.7359 236.872 86.7077L236.029 85.2541C235.776 84.8166 235.927 84.2575 236.365 84.0047C236.803 83.7519 237.363 83.9026 237.617 84.3401L238.459 85.7937C239.384 87.3932 239.384 89.3038 238.459 90.9057C237.534 92.5052 235.876 93.4605 234.025 93.4605L234.023 93.4629Z" fill="#1C4778"/>
<path d="M220.08 93.4628H215.804C213.954 93.4628 212.296 92.5075 211.37 90.9056C210.445 89.3061 210.445 87.3955 211.37 85.7936L216.537 76.858C216.791 76.4204 217.351 76.2721 217.789 76.5225C218.227 76.7729 218.376 77.3344 218.125 77.7719L212.958 86.7076C212.364 87.7358 212.364 88.9634 212.958 89.9916C213.552 91.0198 214.619 91.6348 215.807 91.6348H220.083C220.589 91.6348 220.998 92.0432 220.998 92.5488C220.998 93.0544 220.589 93.4628 220.083 93.4628H220.08Z" fill="#1C4778"/>
<path d="M217.716 83.7542C217.239 83.7542 216.837 83.3847 216.803 82.9034L216.511 78.7321L212.746 80.5649C212.291 80.7861 211.743 80.599 211.521 80.1444C211.3 79.6898 211.487 79.1429 211.943 78.9217L216.927 76.4958C217.2 76.3621 217.524 76.3742 217.787 76.5249C218.049 76.6756 218.22 76.9503 218.242 77.2517L218.629 82.7745C218.666 83.2777 218.283 83.7153 217.779 83.7493C217.757 83.7493 217.735 83.7493 217.716 83.7493V83.7542Z" fill="#1C4778"/>
<path d="M234.999 82.5582C234.863 82.5582 234.724 82.5266 234.597 82.4658L229.613 80.0399C229.158 79.8187 228.97 79.2718 229.192 78.8172C229.413 78.3626 229.961 78.1755 230.417 78.3967L234.181 80.2295L234.473 76.0582C234.51 75.5551 234.946 75.1759 235.45 75.2099C235.954 75.2439 236.333 75.6815 236.299 76.1846L235.912 81.7074C235.89 82.0113 235.72 82.2835 235.457 82.4342C235.316 82.5169 235.157 82.5558 234.999 82.5558V82.5582Z" fill="#1C4778"/>
<path d="M228.069 96.5572C227.894 96.5572 227.716 96.5061 227.558 96.4016L222.961 93.3072C222.707 93.137 222.556 92.8526 222.556 92.5488C222.556 92.2449 222.707 91.9605 222.961 91.7904L227.558 88.696C227.977 88.414 228.546 88.5234 228.829 88.9415C229.111 89.3596 229.002 89.9284 228.583 90.2104L225.111 92.5488L228.583 94.8872C229.002 95.1692 229.114 95.738 228.829 96.1561C228.651 96.4186 228.364 96.5596 228.069 96.5596V96.5572Z" fill="#1C4778"/>
<path d="M223.932 99.5496C224.395 99.5326 224.77 99.902 224.78 100.361L224.914 106.864C224.923 107.321 224.56 107.7 224.1 107.71C224.095 107.71 224.088 107.71 224.083 107.71C223.633 107.71 223.263 107.35 223.255 106.898L223.121 100.395C223.112 99.9385 223.474 99.5593 223.935 99.5496" fill="#1C4778"/>
<path d="M224.083 115.165C223.625 115.165 223.253 114.793 223.253 114.336V106.881C223.253 106.424 223.625 106.052 224.083 106.052C224.541 106.052 224.914 106.424 224.914 106.881V114.336C224.914 114.793 224.541 115.165 224.083 115.165Z" fill="#1C4778"/>
<path d="M254.747 115.165C254.289 115.165 253.916 114.793 253.916 114.336V108.41C253.916 108.023 253.6 107.707 253.213 107.707H194.448C194.06 107.707 193.744 108.023 193.744 108.41V114.336C193.744 114.793 193.371 115.165 192.914 115.165C192.456 115.165 192.083 114.793 192.083 114.336V108.41C192.083 107.109 193.142 106.05 194.445 106.05H253.21C254.513 106.05 255.572 107.107 255.572 108.41V114.336C255.572 114.793 255.199 115.165 254.742 115.165H254.747Z" fill="#1C4778"/>
<path d="M254.749 120.776C256.759 120.773 258.387 119.144 258.385 117.137C258.382 115.13 256.75 113.505 254.74 113.507C252.729 113.51 251.102 115.139 251.104 117.146C251.107 119.153 252.738 120.778 254.749 120.776Z" fill="white"/>
<path d="M254.747 121.607C252.282 121.607 250.279 119.604 250.279 117.144C250.279 114.684 252.282 112.681 254.747 112.681C257.211 112.681 259.215 114.684 259.215 117.144C259.215 119.604 257.208 121.607 254.747 121.607ZM254.747 114.336C253.198 114.336 251.937 115.595 251.937 117.144C251.937 118.692 253.198 119.951 254.747 119.951C256.295 119.951 257.557 118.692 257.557 117.144C257.557 115.595 256.295 114.336 254.747 114.336Z" fill="#1C4778"/>
<path d="M227.727 117.146C227.73 115.139 226.102 113.51 224.091 113.508C222.081 113.505 220.449 115.13 220.447 117.137C220.444 119.144 222.072 120.773 224.082 120.776C226.093 120.778 227.725 119.153 227.727 117.146Z" fill="white"/>
<path d="M224.083 121.607C221.619 121.607 219.615 119.604 219.615 117.144C219.615 114.684 221.619 112.681 224.083 112.681C226.547 112.681 228.551 114.684 228.551 117.144C228.551 119.604 226.547 121.607 224.083 121.607ZM224.083 114.336C222.535 114.336 221.273 115.595 221.273 117.144C221.273 118.692 222.535 119.951 224.083 119.951C225.632 119.951 226.893 118.692 226.893 117.144C226.893 115.595 225.632 114.336 224.083 114.336Z" fill="#1C4778"/>
<path d="M192.918 120.778C194.929 120.776 196.557 119.147 196.554 117.14C196.552 115.132 194.92 113.507 192.909 113.51C190.899 113.512 189.271 115.141 189.274 117.148C189.276 119.155 190.908 120.78 192.918 120.778Z" fill="white"/>
<path d="M192.913 121.607C190.449 121.607 188.445 119.604 188.445 117.144C188.445 114.684 190.449 112.681 192.913 112.681C195.378 112.681 197.382 114.684 197.382 117.144C197.382 119.604 195.378 121.607 192.913 121.607ZM192.913 114.336C191.365 114.336 190.104 115.595 190.104 117.144C190.104 118.692 191.365 119.951 192.913 119.951C194.462 119.951 195.723 118.692 195.723 117.144C195.723 115.595 194.462 114.336 192.913 114.336Z" fill="#1C4778"/>
<path d="M101.443 73.5212L93.908 76.2678L94.193 77.047L101.728 74.3004L101.443 73.5212Z" fill="#1C4778"/>
<path d="M107.075 88.9265L99.5403 91.6732L99.8253 92.4524L107.36 89.7057L107.075 88.9265Z" fill="#1C4778"/>
<path d="M89.3972 53.783L90.12 55.76C90.8679 57.8034 92.7541 59.103 94.8038 59.2081C98.7202 58.868 102.531 61.163 103.941 65.023L104.714 67.1327C105.711 69.8591 104.307 72.8758 101.576 73.8712C104.307 72.8758 107.329 74.2777 108.326 77.004L110.35 82.5369C111.348 85.2633 109.943 88.2799 107.212 89.2754C109.943 88.2799 112.965 89.6818 113.962 92.4082L114.735 94.5179C116.425 99.1356 114.043 104.243 109.42 105.929L97.712 110.199C93.0865 111.885 87.9707 109.507 86.2812 104.892L85.5084 102.783C84.5113 100.056 85.9156 97.0397 88.6466 96.0442C85.9156 97.0397 82.8937 95.6378 81.8966 92.9114L79.8719 87.3785C78.8748 84.6522 80.2791 81.6355 83.0101 80.6401C80.2791 81.6355 77.2572 80.2336 76.2601 77.5073L75.4874 75.3975C74.0748 71.5347 75.5095 67.3291 78.7225 65.07C80.2237 63.6736 80.8275 61.4671 80.0796 59.421L79.3568 57.444L89.3972 53.783Z" fill="white"/>
<path d="M94.646 111.158C93.3055 111.158 91.9705 110.865 90.7185 110.284C88.4584 109.236 86.7438 107.37 85.888 105.033L85.1153 102.924C84.5946 101.502 84.661 99.9622 85.3008 98.588C85.6249 97.8912 86.0792 97.2774 86.6331 96.7769C85.8853 96.7492 85.1429 96.5723 84.4449 96.2488C83.0684 95.61 82.027 94.4763 81.5063 93.0523L79.4815 87.5194C78.9608 86.0982 79.0273 84.5581 79.6671 83.1838C79.9939 82.4843 80.4482 81.8704 81.0049 81.37C78.7642 81.287 76.6868 79.8768 75.8725 77.6482L75.0997 75.5384C73.6595 71.601 75.0416 67.1658 78.4623 64.7464C79.8749 63.4164 80.3568 61.3841 79.692 59.5619L78.8251 57.195L89.6466 53.2493L90.5136 55.6162C91.1811 57.4411 92.8623 58.6826 94.8039 58.7905C98.9807 58.4421 102.897 60.9444 104.337 64.8791L105.11 66.9889C105.925 69.2175 105.246 71.6342 103.584 73.1384C105.825 73.2185 107.905 74.6287 108.719 76.8601L110.744 82.393C111.558 84.6217 110.88 87.0356 109.221 88.5398C109.971 88.5674 110.713 88.7416 111.414 89.0679C112.791 89.7066 113.832 90.8403 114.353 92.2643L115.126 94.3741C115.982 96.7105 115.874 99.2405 114.821 101.497C113.769 103.753 111.902 105.465 109.561 106.319L97.8534 110.586C96.8092 110.967 95.7262 111.155 94.6488 111.155L94.646 111.158ZM88.7852 96.4368C87.5693 96.8792 86.6026 97.7695 86.057 98.9392C85.5113 100.112 85.4559 101.425 85.8991 102.639L86.6719 104.749C87.4502 106.878 89.0123 108.575 91.0703 109.532C93.1282 110.489 95.4354 110.586 97.5682 109.809L109.276 105.542C113.677 103.938 115.951 99.0581 114.345 94.6644L113.572 92.5546C113.129 91.3408 112.237 90.3702 111.062 89.8255C109.888 89.2808 108.572 89.2255 107.356 89.6679L107.071 88.8882C108.287 88.4457 109.259 87.5554 109.805 86.383C110.351 85.2106 110.406 83.8972 109.963 82.6834L107.938 77.1505C107.021 74.6453 104.232 73.3485 101.723 74.2637L101.438 73.484C103.95 72.5688 105.246 69.7843 104.329 67.2792L103.556 65.1695C102.241 61.5749 98.6594 59.2937 94.8427 59.6255L94.7568 59.6338L94.7264 59.6227C92.4662 59.4872 90.5108 58.0328 89.7325 55.9065L89.1508 54.3193L79.8915 57.6955L80.4731 59.2826C81.257 61.4283 80.6836 63.8201 79.0107 65.3768L78.9663 65.4128C75.8365 67.6138 74.568 71.6618 75.8808 75.2592L76.6536 77.3689C77.5704 79.8741 80.3596 81.1709 82.869 80.2556L83.1543 81.0354C81.9383 81.4778 80.9661 82.3681 80.4205 83.5405C79.8748 84.7129 79.8195 86.0263 80.2626 87.2402L82.2873 92.7731C82.7304 93.9869 83.6223 94.9575 84.7967 95.5022C85.9683 96.0469 87.284 96.1022 88.4999 95.6626C88.4999 95.6626 88.5027 95.6626 88.5055 95.6626L88.7907 96.4423C88.7907 96.4423 88.7908 96.4423 88.788 96.4423L88.7852 96.4368Z" fill="#1C4778"/>
<path d="M101.443 73.5209L93.9081 76.2675L94.1931 77.0467L101.728 74.3001L101.443 73.5209Z" fill="#1C4778"/>
<path d="M107.075 88.926L99.5404 91.6727L99.8254 92.4519L107.36 89.7052L107.075 88.926Z" fill="#1C4778"/>
<path d="M90.0149 53.5588L78.7392 57.6677C77.4208 58.1488 75.95 57.4658 75.4681 56.1497L74.1358 52.5081C73.6538 51.1919 74.338 49.7237 75.6564 49.2426L86.9321 45.1337C88.2505 44.6526 89.7213 45.3355 90.2032 46.6517L91.5355 50.2933C92.0174 51.6094 91.3333 53.0777 90.0149 53.5588Z" fill="#FF897D"/>
<path d="M77.8696 58.2375C76.6592 58.2375 75.5208 57.4909 75.0804 56.2936L73.7482 52.6521C73.4768 51.911 73.5127 51.1092 73.8479 50.3902C74.183 49.6713 74.7757 49.1266 75.518 48.8556L86.7938 44.7467C87.5361 44.4758 88.3393 44.5117 89.0595 44.8463C89.7796 45.1809 90.3252 45.7726 90.5967 46.5136L91.9289 50.1552C92.2004 50.8962 92.1644 51.6981 91.8293 52.417C91.4941 53.1359 90.9014 53.6807 90.1591 53.9516L78.8834 58.0605C78.5482 58.1822 78.2075 58.2402 77.8696 58.2402V58.2375ZM87.8048 45.3965C87.5583 45.3965 87.3145 45.4408 87.0763 45.5265L75.8006 49.6354C75.2688 49.8289 74.8422 50.2216 74.6012 50.7386C74.3603 51.2557 74.3353 51.8336 74.5292 52.3672L75.8615 56.0088C76.0554 56.5397 76.4487 56.9655 76.9666 57.2061C77.4846 57.4467 78.0635 57.4716 78.5981 57.278L89.8738 53.1691C90.4056 52.9756 90.8321 52.5829 91.0731 52.0659C91.3141 51.5488 91.3389 50.9709 91.1451 50.4372L89.8129 46.7957C89.619 46.2648 89.2257 45.8389 88.7077 45.5984C88.4197 45.4657 88.1122 45.3965 87.8048 45.3965Z" fill="#1C4778"/>
<path d="M90.2116 54.0898L78.9358 58.1987C77.3211 58.7877 75.529 57.9554 74.9391 56.3433L73.6068 52.7018C73.0168 51.0897 73.8505 49.3007 75.4653 48.7118L86.741 44.6029C88.3558 44.0139 90.1478 44.8462 90.7378 46.4582L92.0701 50.0998C92.66 51.7119 91.8263 53.5009 90.2116 54.0898ZM75.8558 49.7763C74.8282 50.1496 74.2964 51.2888 74.6731 52.3146L76.0054 55.9562C76.3793 56.9821 77.5205 57.513 78.548 57.1369L89.8238 53.028C90.8514 52.6547 91.3831 51.5155 91.0065 50.4897L89.6742 46.8481C89.3003 45.8223 88.1591 45.2914 87.1315 45.6674L75.8558 49.7763Z" fill="#1C4778"/>
<path d="M77.8695 58.8043C76.4264 58.8043 75.072 57.9167 74.5485 56.4871L73.2162 52.8456C72.8922 51.9635 72.9338 51.004 73.3326 50.1496C73.7315 49.2952 74.4377 48.6454 75.3213 48.3247L86.597 44.2158C87.4833 43.8923 88.4417 43.9338 89.2975 44.3319C90.1534 44.7301 90.8043 45.4352 91.1256 46.3172L92.4579 49.9588C92.7819 50.8409 92.7404 51.8004 92.3415 52.6548C91.9427 53.5092 91.2364 54.159 90.3528 54.4797L79.0771 58.5886C78.6783 58.7324 78.2711 58.8015 77.8695 58.8015V58.8043ZM87.8074 44.8296C87.4972 44.8296 87.1842 44.8849 86.8823 44.9928L75.6066 49.1017C74.9308 49.3477 74.3906 49.8427 74.086 50.498C73.7813 51.1506 73.7508 51.8833 73.9973 52.558L75.3296 56.1996C75.5761 56.8743 76.0719 57.4134 76.7283 57.7176C77.382 58.0218 78.116 58.0522 78.7918 57.8061L90.0675 53.6972C90.7434 53.4511 91.2835 52.9562 91.5881 52.3008C91.8928 51.6455 91.9233 50.9155 91.6768 50.2409L90.3445 46.5993C90.098 45.9246 89.6022 45.3854 88.9458 45.0813C88.5829 44.9126 88.1952 44.8269 87.8074 44.8269V44.8296ZM77.8667 57.6733C76.8862 57.6733 75.9667 57.0706 75.6121 56.1L74.2798 52.4584C74.061 51.8584 74.0887 51.2086 74.3602 50.628C74.6316 50.0473 75.1108 49.6077 75.7118 49.3865L86.9876 45.2776C87.5886 45.0591 88.2395 45.0868 88.8211 45.3578C89.4028 45.6287 89.8432 46.1071 90.0648 46.7071L91.397 50.3487C91.8513 51.5902 91.2087 52.9672 89.9651 53.4207L78.6893 57.5296C78.4179 57.6291 78.1409 57.6761 77.8695 57.6761L77.8667 57.6733ZM75.9943 50.1662C75.601 50.31 75.288 50.5976 75.1108 50.9764C74.9335 51.3552 74.9141 51.781 75.0582 52.1736L76.3904 55.8152C76.6868 56.6254 77.5898 57.0457 78.4013 56.7498L89.677 52.6409C90.4886 52.3451 90.9095 51.4437 90.6132 50.6335L89.2809 46.9919C89.1369 46.5993 88.8488 46.2868 88.4694 46.1099C88.0899 45.9329 87.6633 45.9135 87.27 46.0573L75.9943 50.1662Z" fill="#1C4778"/>
<path d="M90.2116 54.0898L78.9358 58.1987C77.3211 58.7877 75.529 57.9554 74.9391 56.3433L73.6068 52.7018C73.0168 51.0897 73.8505 49.3007 75.4653 48.7118L86.741 44.6029C88.3558 44.0139 90.1478 44.8462 90.7378 46.4582L92.0701 50.0998C92.66 51.7119 91.8263 53.5009 90.2116 54.0898ZM75.8558 49.7763C74.8282 50.1496 74.2964 51.2888 74.6731 52.3146L76.0054 55.9562C76.3793 56.9821 77.5205 57.513 78.548 57.1369L89.8238 53.028C90.8514 52.6547 91.3831 51.5155 91.0065 50.4897L89.6742 46.8481C89.3003 45.8223 88.1591 45.2914 87.1315 45.6674L75.8558 49.7763Z" fill="#1C4778"/>
<path d="M77.8695 58.8043C76.4264 58.8043 75.072 57.9167 74.5485 56.4871L73.2162 52.8456C72.8922 51.9635 72.9338 51.004 73.3326 50.1496C73.7315 49.2952 74.4377 48.6454 75.3213 48.3247L86.597 44.2158C87.4833 43.8923 88.4417 43.9338 89.2975 44.3319C90.1534 44.7301 90.8043 45.4352 91.1256 46.3172L92.4579 49.9588C92.7819 50.8409 92.7404 51.8004 92.3415 52.6548C91.9427 53.5092 91.2364 54.159 90.3528 54.4797L79.0771 58.5886C78.6783 58.7324 78.2711 58.8015 77.8695 58.8015V58.8043ZM87.8074 44.8296C87.4972 44.8296 87.1842 44.8849 86.8823 44.9928L75.6066 49.1017C74.9308 49.3477 74.3906 49.8427 74.086 50.498C73.7813 51.1506 73.7508 51.8833 73.9973 52.558L75.3296 56.1996C75.5761 56.8743 76.0719 57.4134 76.7283 57.7176C77.382 58.0218 78.116 58.0522 78.7918 57.8061L90.0675 53.6972C90.7434 53.4511 91.2835 52.9562 91.5881 52.3008C91.8928 51.6455 91.9233 50.9155 91.6768 50.2409L90.3445 46.5993C90.098 45.9246 89.6022 45.3854 88.9458 45.0813C88.5829 44.9126 88.1952 44.8269 87.8074 44.8269V44.8296ZM77.8667 57.6733C76.8862 57.6733 75.9667 57.0706 75.6121 56.1L74.2798 52.4584C74.061 51.8584 74.0887 51.2086 74.3602 50.628C74.6316 50.0473 75.1108 49.6077 75.7118 49.3865L86.9876 45.2776C87.5886 45.0591 88.2395 45.0868 88.8211 45.3578C89.4028 45.6287 89.8432 46.1071 90.0648 46.7071L91.397 50.3487C91.8513 51.5902 91.2087 52.9672 89.9651 53.4207L78.6893 57.5296C78.4179 57.6291 78.1409 57.6761 77.8695 57.6761L77.8667 57.6733ZM75.9943 50.1662C75.601 50.31 75.288 50.5976 75.1108 50.9764C74.9335 51.3552 74.9141 51.781 75.0582 52.1736L76.3904 55.8152C76.6868 56.6254 77.5898 57.0457 78.4013 56.7498L89.677 52.6409C90.4886 52.3451 90.9095 51.4437 90.6132 50.6335L89.2809 46.9919C89.1369 46.5993 88.8488 46.2868 88.4694 46.1099C88.0899 45.9329 87.6633 45.9135 87.27 46.0573L75.9943 50.1662Z" fill="#1C4778"/>
<path d="M101.773 74.4019L89.0206 79.0499C88.727 79.1578 88.403 79.0057 88.295 78.7126C88.187 78.4195 88.3393 78.096 88.6329 77.9881L101.385 73.3401C101.679 73.2322 102.003 73.3843 102.111 73.6774C102.219 73.9705 102.066 74.294 101.773 74.4019Z" fill="#1C4778"/>
<path d="M88.8267 79.5007C88.4251 79.5007 88.0484 79.2547 87.9044 78.8565C87.813 78.6104 87.8268 78.345 87.9376 78.1072C88.0484 77.8694 88.2451 77.6896 88.4916 77.6011L101.244 72.9531C101.49 72.8646 101.756 72.8757 101.994 72.9863C102.232 73.0969 102.412 73.2932 102.501 73.5393C102.687 74.0453 102.424 74.6094 101.917 74.7946L89.1646 79.4427C89.0538 79.4842 88.9403 79.5007 88.8295 79.5007H88.8267ZM101.579 73.7218C101.562 73.7218 101.546 73.7218 101.526 73.7301L88.7741 78.3781C88.7243 78.3975 88.6993 78.4362 88.6882 78.4556C88.6772 78.4777 88.6661 78.5192 88.6827 78.5717C88.7021 78.6215 88.7409 78.6463 88.7602 78.6574C88.7824 78.6685 88.8239 78.6795 88.8766 78.6629L101.629 74.0149C101.706 73.9872 101.748 73.8987 101.717 73.8213C101.698 73.7715 101.659 73.7467 101.64 73.7356C101.626 73.7301 101.604 73.7218 101.576 73.7218H101.579Z" fill="#1C4778"/>
<path d="M107.406 89.8062L94.6543 94.4543C94.3607 94.5621 94.0366 94.41 93.9286 94.1169C93.8206 93.8238 93.9729 93.5003 94.2665 93.3925L107.019 88.7444C107.312 88.6366 107.636 88.7886 107.744 89.0817C107.852 89.3748 107.7 89.6984 107.406 89.8062Z" fill="#1C4778"/>
<path d="M94.4604 94.9048C94.3191 94.9048 94.1779 94.8744 94.0477 94.8135C93.8095 94.7029 93.6294 94.5066 93.5408 94.2605C93.4494 94.0145 93.4632 93.749 93.574 93.5112C93.6848 93.2734 93.8814 93.0937 94.128 93.0052L106.88 88.3571C107.39 88.1719 107.955 88.4346 108.137 88.9406C108.229 89.1867 108.215 89.4521 108.104 89.6899C107.993 89.9277 107.797 90.1074 107.55 90.1959L94.7983 94.844C94.6875 94.8827 94.5739 94.9048 94.4604 94.9048ZM107.212 89.1258C107.196 89.1258 107.179 89.1286 107.16 89.1341L94.4077 93.7822C94.3578 93.8015 94.333 93.8402 94.3219 93.8596C94.3108 93.8817 94.2997 93.9232 94.3163 93.973C94.3357 94.0255 94.3745 94.0476 94.3939 94.0587C94.4161 94.0698 94.4576 94.0808 94.5102 94.0642L107.262 89.4161C107.312 89.3968 107.337 89.3581 107.348 89.3387C107.359 89.3166 107.37 89.2751 107.354 89.2226C107.331 89.1618 107.273 89.1231 107.212 89.1231V89.1258Z" fill="#1C4778"/>
<path d="M109.611 106.46L97.9033 110.729C92.9925 112.518 87.5387 109.988 85.7467 105.086L84.974 102.976C84.1791 100.803 84.769 98.4553 86.2924 96.9041C84.1264 96.6967 82.1599 95.281 81.365 93.1077L79.3403 87.5748C78.5453 85.4014 79.1353 83.0539 80.6587 81.5027C78.4927 81.2953 76.5262 79.8796 75.7312 77.7063L74.9585 75.5965C73.496 71.5983 74.8975 67.0995 78.3653 64.6386C79.7308 63.3501 80.1961 61.3841 79.5508 59.62L78.8278 57.643C78.7198 57.3499 78.8721 57.0264 79.1657 56.9185C79.4593 56.8107 79.7834 56.9628 79.8914 57.2559L80.6144 59.2329C81.4176 61.4284 80.8332 63.8727 79.1297 65.4736C79.1076 65.4985 79.0799 65.5179 79.0522 65.5372C75.975 67.6995 74.7314 71.6757 76.0221 75.2094L76.7948 77.3192C77.6839 79.7469 80.3845 81.0022 82.8163 80.1147C83.1099 80.0068 83.4339 80.1589 83.542 80.452C83.65 80.7451 83.4977 81.0686 83.2041 81.1764C80.7722 82.064 79.5148 84.7599 80.4039 87.1877L82.4285 92.7206C83.3176 95.1483 86.0181 96.4036 88.45 95.516C88.7436 95.4082 89.0677 95.5603 89.1757 95.8534C89.2837 96.1465 89.1314 96.47 88.8378 96.5778C86.4059 97.4654 85.1484 100.161 86.0375 102.589L86.8103 104.699C88.3891 109.015 93.1918 111.244 97.5154 109.668L109.223 105.398C113.547 103.822 115.779 99.0277 114.201 94.7114L113.428 92.6017C112.539 90.1739 109.838 88.9186 107.404 89.8062C107.11 89.914 106.786 89.7619 106.678 89.4688C106.57 89.1757 106.722 88.8522 107.016 88.7444C109.448 87.8568 110.705 85.1609 109.816 82.7304L107.791 77.1975C106.902 74.7698 104.202 73.5144 101.767 74.402C101.473 74.5099 101.149 74.3578 101.041 74.0647C100.933 73.7716 101.086 73.4481 101.379 73.3402C103.811 72.4527 105.069 69.7567 104.18 67.3262L103.407 65.2165C102.116 61.6855 98.5957 59.4458 94.8482 59.7693C94.815 59.7721 94.7845 59.7693 94.754 59.7693C92.4163 59.6449 90.3889 58.149 89.5856 55.9535L88.8627 53.9765C88.7547 53.6834 88.9071 53.3599 89.2007 53.2521C89.4943 53.1442 89.8183 53.2963 89.9263 53.5894L90.6492 55.5664C91.2946 57.3305 92.9204 58.5333 94.7956 58.6412C99.0361 58.2928 103.011 60.8311 104.473 64.8294L105.246 66.9391C106.041 69.1125 105.451 71.46 103.928 73.014C106.093 73.2214 108.06 74.6371 108.855 76.8104L110.88 82.3433C111.675 84.5166 111.085 86.8642 109.561 88.4181C111.727 88.6255 113.694 90.0412 114.489 92.2146L115.261 94.3243C117.053 99.2267 114.519 104.671 109.608 106.46H109.611Z" fill="#1C4778"/>
<path d="M94.6543 111.722C93.2307 111.722 91.8125 111.412 90.4803 110.793C88.0817 109.679 86.2619 107.702 85.3562 105.227L84.5834 103.117C83.8522 101.118 84.2123 98.87 85.4891 97.1943C83.4312 96.7353 81.7028 95.2478 80.9716 93.2486L78.947 87.7157C78.2158 85.7166 78.5758 83.4686 79.8527 81.793C77.7948 81.334 76.0664 79.8464 75.3352 77.8472L74.5624 75.7375C73.0418 71.5788 74.4932 66.8893 78.0939 64.3178C79.3209 63.1426 79.7391 61.3591 79.1547 59.7637L78.4318 57.7867C78.3431 57.5406 78.3543 57.2751 78.465 57.0374C78.5758 56.7996 78.7725 56.6198 79.019 56.5313C79.2655 56.4429 79.5314 56.4539 79.7696 56.5645C80.0078 56.6751 80.1878 56.8714 80.2764 57.1175L80.9994 59.0946C81.858 61.4421 81.2348 64.0661 79.4095 65.7777C79.379 65.8081 79.3347 65.8468 79.2877 65.88C76.3655 67.9345 75.18 71.7143 76.4071 75.0711L77.1798 77.1808C77.9886 79.3956 80.4509 80.5376 82.6695 79.7302C82.916 79.6417 83.1819 79.6528 83.4201 79.7634C83.6583 79.874 83.8384 80.0703 83.927 80.3164C84.1126 80.8224 83.8494 81.3865 83.3426 81.5717C82.2707 81.9616 81.4148 82.7497 80.9301 83.7866C80.4482 84.8235 80.3983 85.982 80.7889 87.0549L82.8136 92.5878C83.2041 93.6578 83.9935 94.5122 85.0294 94.9961C86.068 95.4773 87.2286 95.527 88.3033 95.1371C88.5498 95.0487 88.8157 95.0597 89.0539 95.1703C89.2921 95.2809 89.4721 95.4773 89.5607 95.7233C89.6521 95.9694 89.6383 96.2349 89.5275 96.4727C89.4167 96.7105 89.22 96.8902 88.9735 96.9787C87.9016 97.3686 87.0458 98.1566 86.5611 99.1907C86.0791 100.228 86.0293 101.386 86.4198 102.459L87.1926 104.569C88.6938 108.669 93.2556 110.787 97.3632 109.291L109.071 105.025C113.179 103.526 115.3 98.9723 113.802 94.8717L113.029 92.762C112.638 91.6919 111.849 90.8375 110.813 90.3536C109.774 89.8725 108.611 89.8199 107.539 90.2126C107.032 90.3978 106.467 90.1351 106.282 89.6291C106.096 89.1204 106.359 88.5563 106.866 88.3738C107.938 87.9839 108.794 87.1959 109.279 86.1618C109.761 85.1249 109.811 83.9635 109.42 82.8935L107.395 77.3606C106.587 75.1485 104.124 74.0038 101.906 74.8112C101.396 74.9964 100.834 74.7337 100.648 74.2277C100.557 73.9816 100.571 73.7162 100.681 73.4784C100.792 73.2406 100.989 73.0609 101.235 72.9724C102.307 72.5825 103.163 71.7945 103.648 70.7604C104.13 69.7235 104.18 68.5621 103.789 67.4921L103.016 65.3823C101.789 62.0255 98.4378 59.8992 94.8842 60.2061C94.8288 60.2116 94.7734 60.2116 94.7208 60.2061C92.228 60.0734 90.0538 58.4697 89.1924 56.1193L88.4694 54.1423C88.378 53.8963 88.3919 53.6308 88.5027 53.393C88.6135 53.1552 88.8101 52.9755 89.0566 52.887C89.3031 52.7985 89.569 52.8096 89.8072 52.9202C90.0454 53.0308 90.2254 53.2271 90.3141 53.4732L91.037 55.4502C91.6214 57.0457 93.0922 58.1434 94.7873 58.2512C99.2023 57.9028 103.338 60.5545 104.858 64.7132L105.631 66.8229C106.362 68.8221 106.002 71.07 104.725 72.7457C106.783 73.2047 108.511 74.6923 109.243 76.6914L111.267 82.2243C111.999 84.2234 111.639 86.4714 110.362 88.1471C112.42 88.6061 114.148 90.0937 114.879 92.0928L115.652 94.2026C116.558 96.6773 116.441 99.3594 115.325 101.754C114.209 104.148 112.229 105.965 109.75 106.869L98.0418 111.139C96.9366 111.542 95.7927 111.741 94.6516 111.741L94.6543 111.722ZM79.3569 57.2945C79.3403 57.2945 79.3236 57.2945 79.307 57.3028C79.2544 57.3222 79.2323 57.3609 79.2212 57.3802C79.2101 57.4023 79.199 57.4438 79.2156 57.4964L79.9385 59.4734C80.6393 61.3896 80.1324 63.5325 78.6478 64.9344L78.6035 64.9703C75.2909 67.3234 73.9503 71.6314 75.3463 75.4471L76.119 77.5569C76.8308 79.5007 78.6256 80.886 80.6974 81.0823L81.5616 81.1653L80.9523 81.7847C79.4982 83.2667 79.0189 85.4816 79.728 87.4254L81.7527 92.9583C82.4646 94.9021 84.2594 96.2874 86.3284 96.4837L87.1926 96.5667L86.5832 97.1861C85.1291 98.6681 84.6471 100.883 85.359 102.827L86.1317 104.937C86.9599 107.204 88.6273 109.012 90.8265 110.035C93.0257 111.056 95.4853 111.163 97.7565 110.334L109.464 106.065C111.735 105.238 113.55 103.573 114.569 101.378C115.591 99.1824 115.696 96.7271 114.868 94.4597L114.095 92.35C113.383 90.4061 111.589 89.0208 109.52 88.8245L108.656 88.7416L109.265 88.1222C110.719 86.6401 111.201 84.4253 110.489 82.4815L108.464 76.9486C107.753 75.0047 105.958 73.6194 103.889 73.4231L103.025 73.3402L103.634 72.7208C105.088 71.2387 105.57 69.0239 104.858 67.0801L104.085 64.9703C102.689 61.1545 98.8865 58.7157 94.8316 59.0531H94.7762C92.7349 58.9369 90.965 57.6235 90.2642 55.7074L89.5413 53.7303C89.522 53.6806 89.4832 53.6557 89.4638 53.6446C89.4416 53.6336 89.4 53.6225 89.3502 53.6391C89.2976 53.6585 89.2755 53.6972 89.2644 53.7165C89.2533 53.7386 89.2422 53.7801 89.2588 53.8299L89.9817 55.8097C90.7268 57.8475 92.613 59.2383 94.7817 59.3545C94.8011 59.3545 94.8122 59.3545 94.8205 59.3545C98.7563 59.0144 102.448 61.3647 103.803 65.0726L104.576 67.1824C105.542 69.8258 104.174 72.7623 101.526 73.7273C101.476 73.7466 101.451 73.7853 101.44 73.8047C101.429 73.8268 101.418 73.8683 101.435 73.9208C101.462 73.9982 101.548 74.0397 101.629 74.0093C104.276 73.0443 107.218 74.4102 108.185 77.0536L110.209 82.5865C110.677 83.864 110.617 85.2521 110.04 86.488C109.464 87.724 108.442 88.6641 107.16 89.1314C107.082 89.1591 107.041 89.2476 107.071 89.325C107.099 89.4024 107.185 89.4439 107.265 89.4135C108.545 88.9462 109.935 89.007 111.173 89.5821C112.414 90.1573 113.353 91.1776 113.821 92.4578L114.594 94.5675C116.25 99.0995 113.907 104.132 109.367 105.785L97.6595 110.052C95.4631 110.851 93.0839 110.749 90.9594 109.764C88.835 108.777 87.223 107.027 86.4226 104.837L85.6498 102.727C85.1817 101.45 85.2426 100.064 85.8187 98.8257C86.3948 97.5898 87.4169 96.6496 88.6993 96.1823C88.7492 96.163 88.7741 96.1243 88.7852 96.1049C88.7963 96.0828 88.8073 96.0413 88.7907 95.9888C88.7741 95.9362 88.7326 95.9141 88.7132 95.9031C88.691 95.892 88.6494 95.8809 88.5996 95.8975C87.3172 96.3648 85.9296 96.304 84.6915 95.7289C83.4534 95.1537 82.5117 94.1334 82.0436 92.8532L80.0188 87.3203C79.5508 86.0429 79.6117 84.6576 80.1878 83.4188C80.7639 82.1828 81.786 81.2427 83.0684 80.7754C83.1459 80.7478 83.1875 80.6593 83.157 80.5819C83.1376 80.5321 83.0988 80.5072 83.0795 80.4961C83.0573 80.4851 83.0158 80.474 82.9631 80.4906C80.3152 81.4556 77.3737 80.0897 76.4071 77.4463L75.6343 75.3365C74.2771 71.6286 75.5873 67.4533 78.8168 65.1832L78.8472 65.1556C80.4288 63.6707 80.9716 61.3979 80.2266 59.36L79.5037 57.383C79.4843 57.3332 79.4455 57.3083 79.4261 57.2973C79.4123 57.2917 79.3901 57.2834 79.3624 57.2834L79.3569 57.2945Z" fill="#1C4778"/>
<path d="M88.6325 112.904C87.9435 111.408 87.7149 109.71 88.0136 108.302C88.505 106 89.8561 101.678 85.124 98.5559C79.5621 94.8885 82.7671 87.7471 82.7671 87.7471C82.7671 87.7471 78.1326 88.3792 77.1819 93.7533C75.0496 92.3449 71.2218 92.068 69.7771 92.5378L69.6181 94.4582C71.3661 95.9398 75.7702 99.133 75.0294 103.412C74.0097 109.318 77.8386 111.133 79.7389 112.282C80.9337 113.005 81.9322 114.31 82.4452 115.839L88.6358 112.902L88.6325 112.904Z" fill="#5FDBB9"/>
<path d="M82.172 116.501C82.0059 116.434 81.8701 116.295 81.8043 116.103C81.3477 114.739 80.4403 113.542 79.3776 112.898C79.2579 112.825 79.1297 112.752 78.9976 112.672C77.016 111.504 73.3255 109.326 74.3642 103.316C74.9721 99.7995 71.5208 96.9511 69.6657 95.4216C69.4876 95.2742 69.3205 95.1381 69.1754 95.0134C69.0115 94.8754 68.9252 94.6551 68.9434 94.4292L69.1025 92.5088C69.1263 92.2093 69.3284 91.9516 69.6032 91.8606C71.0446 91.3926 74.4075 91.585 76.7373 92.6901C78.1267 87.7299 82.662 87.052 82.711 87.0456C82.951 87.012 83.1819 87.1178 83.3207 87.3187C83.4562 87.5215 83.4773 87.7884 83.3708 88.0214C83.2522 88.2901 80.4936 94.6521 85.4986 97.952C90.3097 101.123 89.3093 105.572 88.7696 107.961C88.7321 108.123 88.6992 108.279 88.6658 108.426C88.3995 109.67 88.6145 111.22 89.2364 112.569C89.3954 112.914 89.2516 113.34 88.9154 113.526C88.5799 113.71 88.1796 113.581 88.0207 113.236C87.2626 111.592 87.019 109.751 87.3552 108.18C87.3874 108.028 87.4243 107.868 87.4606 107.7C87.9872 105.36 88.784 101.824 84.7433 99.1609C82.2643 97.5269 81.0348 94.9737 81.1844 91.7776C81.2402 90.6026 81.4718 89.5521 81.6962 88.7805C80.4086 89.3087 78.4074 90.6371 77.8384 93.8498C77.7952 94.0858 77.6461 94.2908 77.4351 94.3932C77.2267 94.4964 76.9854 94.4823 76.7985 94.3576C74.9981 93.1679 71.8924 92.8771 70.3969 93.1082L70.3128 94.1173C70.3812 94.1743 70.4548 94.2328 70.5277 94.2938C72.5924 95.9985 76.4341 99.1703 75.6847 103.503C74.8123 108.55 77.752 110.284 79.6973 111.432C79.8346 111.513 79.9673 111.59 80.0896 111.664C81.4235 112.471 82.5124 113.897 83.0748 115.576C83.1957 115.938 83.0084 116.35 82.6584 116.494C82.4923 116.563 82.3181 116.559 82.1701 116.497L82.172 116.501Z" fill="#1C4778"/>
<path d="M85.0465 106.241C84.8907 106.178 84.7626 106.052 84.6939 105.881C84.5898 105.622 84.6521 105.325 84.8286 105.121C84.8277 104.957 84.7792 104.605 84.5942 104.159C84.4087 103.703 84.1986 103.425 84.0852 103.317C83.8247 103.323 83.5833 103.173 83.478 102.909C83.3381 102.555 83.5027 102.134 83.8471 101.97C84.6765 101.573 85.415 102.525 85.834 103.548C85.9961 103.944 86.3448 104.949 86.0698 105.66C85.9708 105.917 85.7924 106.117 85.5689 106.224C85.3935 106.308 85.2068 106.309 85.0458 106.244L85.0465 106.241Z" fill="#1C4778"/>
<path d="M79.4087 108.859C78.8862 108.645 78.4395 107.968 78.1493 107.257C77.9872 106.861 77.6378 105.859 77.9129 105.148C78.0118 104.891 78.1902 104.69 78.4137 104.583C78.7581 104.419 79.1488 104.573 79.292 104.925C79.3954 105.186 79.3338 105.481 79.1573 105.684C79.1582 105.848 79.2068 106.2 79.3891 106.646C79.5746 107.101 79.7821 107.379 79.8955 107.487C80.1534 107.48 80.3974 107.631 80.5027 107.895C80.6426 108.249 80.478 108.67 80.1362 108.835C79.8838 108.957 79.6397 108.953 79.4087 108.859Z" fill="#1C4778"/>
<path d="M76.9095 94.4121C76.8141 94.3729 76.7255 94.3077 76.6543 94.2193C76.5145 94.0432 73.2597 89.8569 75.1055 84.6147C75.2374 84.2439 75.6235 84.0378 75.973 84.1584C76.3146 84.277 76.4957 84.6753 76.3664 85.0468C74.7947 89.5083 77.6786 93.2458 77.7074 93.2841C77.9389 93.5763 77.8902 94.022 77.6013 94.2817C77.4003 94.4618 77.1334 94.5022 76.9121 94.4128L76.9095 94.4121Z" fill="#1C4778"/>
<path d="M57.4678 71.7821C57.3144 71.7633 57.1691 71.6854 57.0587 71.5564C56.8165 71.2663 56.8407 70.8149 57.118 70.5489C57.2364 70.4333 60.0435 67.6256 57.9738 63.684C55.3497 58.6837 59.045 55.6503 59.0827 55.6207C59.3788 55.3816 59.7959 55.4461 60.0139 55.7578C60.2292 56.0721 60.1646 56.5155 59.8713 56.7546C59.7529 56.8513 57.1018 59.0841 59.1419 62.9693C61.7418 67.9184 58.0411 71.5645 58.0034 71.5994C57.8527 71.7445 57.6562 71.8036 57.4705 71.7821H57.4678Z" fill="#1C4778"/>
<path d="M63.8196 68.9044C63.6662 68.8856 63.5208 68.8077 63.4105 68.6787C63.1683 68.3886 63.1925 67.9372 63.4697 67.6712C63.5881 67.5556 66.3953 64.7479 64.3256 60.8063C61.7014 55.8087 65.3968 52.7726 65.4344 52.7431C65.7305 52.5039 66.1477 52.5684 66.3657 52.8801C66.581 53.1944 66.5191 53.6378 66.223 53.8769C66.1019 53.9763 63.4536 56.2091 65.4936 60.0889C68.0936 65.0381 64.3929 68.6841 64.3552 68.719C64.2045 68.8641 64.008 68.9233 63.8223 68.9018L63.8196 68.9044Z" fill="#1C4778"/>
<path d="M68.6534 77.8866C68.4677 77.8625 68.2954 77.755 68.1851 77.5776C68.1582 77.532 65.4991 73.0745 69.267 68.9394C72.2249 65.6937 70.2198 62.8618 70.1337 62.7436C69.9103 62.4373 69.9614 61.9886 70.2521 61.7414C70.5428 61.4942 70.9573 61.5398 71.1833 61.8435C71.2129 61.8811 74.0201 65.7501 70.2144 69.9255C67.2135 73.2169 69.2186 76.6399 69.3047 76.785C69.5012 77.1128 69.4124 77.5535 69.1029 77.7738C68.9629 77.8732 68.8041 77.9081 68.6507 77.8893L68.6534 77.8866Z" fill="#1C4778"/>
<path d="M45.3349 118.939C58.4502 117.7 61.7203 101.918 61.7203 101.918C61.7203 101.918 62.7753 96.8826 60.5738 92.014C58.3722 87.1454 57.7801 86.2615 57.7801 86.2615L45.3349 118.936V118.939Z" fill="white"/>
<path d="M45.2461 119.646C45.0684 119.621 44.9043 119.522 44.7966 119.366C44.662 119.17 44.6324 118.909 44.7213 118.681L57.1664 86.0062C57.2579 85.7644 57.4651 85.5925 57.7074 85.5575C57.9496 85.5226 58.1864 85.6328 58.3264 85.8423C58.391 85.9364 59.0127 86.9117 61.1766 91.697C63.4509 96.7295 62.4174 101.848 62.3743 102.063C62.3393 102.227 61.5023 106.179 59.0073 110.341C55.6727 115.903 50.9627 119.122 45.3833 119.648C45.3376 119.651 45.2918 119.651 45.2461 119.648V119.646ZM57.8796 87.8843L46.3738 118.087C51.0838 117.316 54.946 114.473 57.8635 109.624C60.2373 105.677 61.0609 101.813 61.069 101.775C61.0797 101.727 62.0406 96.9122 59.9709 92.3338C58.9616 90.1037 58.2995 88.7226 57.8769 87.8843H57.8796Z" fill="#1C4778"/>
<path d="M52.5722 80.638C53.5115 81.8282 54.222 82.4516 54.222 82.4516C65.491 91.8072 60.3934 106.373 61.5615 113.839C64.1426 130.326 77.379 128.018 88.6103 120.602C94.5368 116.69 99.5079 117.359 102.541 118.525C103.349 118.834 104.027 117.751 103.429 117.101C102.242 115.809 100.7 114.67 98.2402 113.587C88.5457 109.317 69.5631 127.703 69.4797 104.226C69.4205 87.5459 63.0633 81.1995 58.6225 78.7975C55.8315 77.2902 53.6326 74.8129 52.1711 71.8761C51.3691 70.264 50.8416 68.8373 49.6708 67.4885L45.3295 68.9421C46.4815 72.0293 47.7088 75.8097 48.3547 78.295C49.0841 81.092 48.971 84.061 48.0694 86.8258C46.8879 90.4476 45.4856 96.7322 45.9836 105.319C46.1746 108.632 45.7413 111.08 44.95 112.883L44.9877 112.902C44.9877 112.902 37.842 115.151 20.921 107.224C20.8188 107.176 20.66 109.057 20.6653 109.159C20.7434 110.886 21.5643 112.442 22.6408 113.67C23.9812 115.202 25.7171 116.319 27.4881 117.201C32.2842 119.587 37.6536 121.196 42.9907 119.788C46.4061 118.888 49.3155 116.671 51.4364 113.678C53.5411 110.712 54.8814 107.192 55.8126 103.64C56.6873 100.306 57.2122 96.88 57.5567 93.4489C57.7774 91.2618 57.842 89.0559 58.103 86.8741C58.1057 86.85 58.1084 86.8285 58.1111 86.8043L52.5695 80.638H52.5722Z" fill="#FFD766"/>
<path d="M71.5412 126.868C70.3139 126.709 69.1728 126.384 68.1258 125.887C64.2852 124.066 61.8548 120.054 60.9047 113.971C60.5791 111.894 60.7217 109.285 60.8697 106.526C61.1685 101.034 61.5184 94.5586 58.5767 88.884C58.5309 89.4589 58.4905 90.0312 58.4529 90.5982C58.3883 91.5547 58.3183 92.5408 58.2214 93.5161C57.8284 97.4308 57.2498 100.803 56.4558 103.826C55.347 108.047 53.8774 111.41 51.9665 114.105C49.6546 117.365 46.6025 119.57 43.1387 120.481C38.4529 121.717 33.2396 120.855 27.1974 117.851C25.0281 116.771 23.3782 115.567 22.1509 114.167C21.2251 113.109 20.1001 111.392 20.0005 109.21C19.9924 109.025 20.0866 108.127 20.0866 108.119C20.1916 107.133 20.2562 106.856 20.5361 106.647C20.7299 106.504 20.9856 106.475 21.1982 106.574C35.6188 113.329 42.8776 112.587 44.4736 112.294C45.1949 110.481 45.4802 108.157 45.3187 105.379C44.8208 96.7672 46.1988 90.4155 47.4422 86.6028C48.3089 83.9455 48.4031 81.1431 47.7141 78.4993C47.0762 76.0489 45.8678 72.3195 44.7104 69.2189C44.6405 69.0335 44.6485 68.8266 44.732 68.6439C44.8127 68.4612 44.9634 68.3242 45.1438 68.2651L49.485 66.8115C49.7299 66.7309 49.9937 66.8034 50.166 67.0023C51.1456 68.1281 51.6947 69.2915 52.276 70.5247C52.4321 70.8525 52.5936 71.1937 52.7632 71.5377C54.23 74.4851 56.3643 76.777 58.9346 78.1661C61.9436 79.7917 64.4144 82.3603 66.2768 85.7968C68.8202 90.4907 70.1229 96.6893 70.1498 104.215C70.1686 109.516 71.151 112.883 73.1507 114.503C75.974 116.792 80.6167 115.449 85.534 114.027C90.1228 112.7 94.8651 111.327 98.5093 112.931C100.872 113.971 102.538 115.102 103.914 116.601C104.398 117.131 104.465 117.913 104.081 118.549C103.688 119.194 102.977 119.458 102.312 119.202C99.3383 118.06 94.6094 117.48 88.9601 121.212C85.2244 123.679 81.4726 125.444 78.1056 126.32C75.7103 126.943 73.5167 127.129 71.5493 126.876L71.5412 126.868ZM54.6445 81.8928C58.4313 85.0418 60.7648 89.021 61.7794 94.0561C62.6461 98.3685 62.4092 102.729 62.202 106.58C62.0513 109.374 61.9194 111.789 62.2208 113.708C63.0956 119.302 65.2729 122.959 68.6883 124.579C73.3606 126.795 80.4983 125.124 88.2711 119.992C94.378 115.959 99.532 116.601 102.781 117.848C102.807 117.859 102.894 117.891 102.966 117.776C103.026 117.676 102.977 117.622 102.956 117.598C101.709 116.241 100.178 115.204 97.9845 114.24C94.7575 112.818 90.2359 114.127 85.8623 115.392C80.8536 116.841 75.6753 118.34 72.3379 115.634C69.991 113.732 68.8417 110.005 68.8202 104.234C68.7637 88.3923 63.0794 82.0003 58.321 79.4289C55.5084 77.9109 53.1804 75.4148 51.587 72.2121C51.4094 71.8547 51.2452 71.5081 51.0864 71.1723C50.5858 70.1136 50.1444 69.1813 49.4527 68.2973L46.2176 69.3801C47.3077 72.3679 48.4004 75.7775 49.0006 78.0828C49.7622 81.0088 49.66 84.1067 48.7018 87.0408C47.4988 90.7271 46.1665 96.88 46.651 105.255C46.8286 108.313 46.4922 110.895 45.6524 112.934V112.939C45.6282 113.238 45.4344 113.49 45.1653 113.573C44.8692 113.667 37.8096 115.739 21.4135 108.221C21.3731 108.592 21.3408 108.984 21.3327 109.124C21.4216 110.868 22.3582 112.284 23.1333 113.168C24.2449 114.436 25.7628 115.54 27.7787 116.542C33.5383 119.407 38.4663 120.239 42.8453 119.084C46.0023 118.251 48.7906 116.233 50.9115 113.243C52.7174 110.696 54.1143 107.493 55.1747 103.449C55.9471 100.505 56.5123 97.2105 56.8972 93.3737C56.9941 92.4225 57.0587 91.4472 57.126 90.5041C57.2067 89.338 57.2902 88.1343 57.4274 86.9441C56.4773 85.5576 55.2877 84.233 53.8101 83.0051C53.8048 83.0024 53.8021 82.9971 53.7967 82.9944C53.7671 82.9675 53.0269 82.3146 52.0634 81.0894C51.8293 80.7912 51.8669 80.3398 52.1495 80.0845C52.4321 79.8266 52.852 79.8615 53.0888 80.1598C53.9286 81.2264 54.5826 81.8229 54.6472 81.882L54.6445 81.8928ZM21.3301 109.111C21.3301 109.111 21.3301 109.116 21.3301 109.119C21.3301 109.119 21.3301 109.113 21.3301 109.111Z" fill="#1C4778"/>
<path d="M43.9381 66.9538C43.8304 67.7867 44.4441 68.9179 46.2231 69.1436C48.0021 69.3693 49.5766 68.5229 49.6843 67.69C49.7919 66.8571 48.4381 65.9946 46.6591 65.7662C44.8801 65.5379 44.0457 66.1182 43.9408 66.9538H43.9381Z" fill="white"/>
<path d="M46.1315 69.8529C44.0403 69.5842 43.1118 68.1495 43.2759 66.8705C43.3432 66.3493 43.79 64.6807 46.7479 65.0623C48.6749 65.3095 50.5293 66.3224 50.3436 67.7787C50.1714 69.1275 48.1636 70.1162 46.1315 69.8556V69.8529ZM46.5649 66.4755C45.4318 66.3305 44.6593 66.5508 44.5974 67.0398C44.5355 67.5288 44.9446 68.2623 46.3119 68.4396C47.889 68.6411 48.9683 67.8835 49.0221 67.6067C49.0006 67.3649 48.1367 66.6797 46.5649 66.4782V66.4755Z" fill="#1C4778"/>
<path d="M122.274 284.716C127.312 281.796 135.128 275.436 139.822 264.095C139.822 264.095 149.898 257.738 156.151 256.19L160.325 219.238C160.325 219.238 163.975 215.458 159.631 213.394C155.289 211.331 138.613 219.235 138.613 219.235L127.148 225.592C113.771 231.949 105.781 244.666 105.781 244.666" fill="white"/>
<path d="M122.274 286.06C121.811 286.06 121.359 285.821 121.108 285.391C120.734 284.749 120.952 283.926 121.595 283.556C125.043 281.557 133.599 275.608 138.576 263.582C138.681 263.324 138.866 263.106 139.1 262.958C139.499 262.706 148.534 257.031 154.913 255.134L158.985 219.087C159.017 218.795 159.146 218.518 159.353 218.306C159.671 217.97 160.556 216.798 160.39 215.909C160.298 215.425 159.849 214.987 159.049 214.606C156.457 213.375 145.912 217.263 139.224 220.428L127.796 226.764C127.772 226.777 127.748 226.791 127.721 226.801C114.872 232.909 106.992 245.252 106.914 245.378C106.518 246.007 105.689 246.195 105.059 245.8C104.429 245.405 104.241 244.578 104.634 243.949C104.968 243.417 112.975 230.85 126.526 224.394L137.954 218.056C137.978 218.042 138.005 218.029 138.029 218.015C140.912 216.65 155.521 209.95 160.204 212.177C162.23 213.139 162.863 214.477 163.035 215.428C163.382 217.33 162.214 219.055 161.609 219.799L157.48 256.335C157.418 256.894 157.012 257.354 156.465 257.488C151.142 258.804 142.718 263.877 140.888 265.003C135.774 277.062 127.468 283.247 122.941 285.872C122.728 285.995 122.497 286.054 122.266 286.054L122.274 286.06Z" fill="#1C4778"/>
<path d="M115.688 262.408L114.024 173.615C114.024 168.311 118.331 164.012 123.646 164.012H164.26C169.573 164.012 173.882 168.311 173.882 173.615V265.519C173.882 268.834 171.212 271.532 167.891 271.572L123.792 271.618H119.254L115.688 262.41V262.408Z" fill="#7395AB"/>
<path d="M137.119 272.628C136.56 272.628 136.107 272.177 136.107 271.618C136.107 271.059 136.56 270.608 137.119 270.608H164.257L167.874 270.562C170.628 270.53 172.867 268.265 172.867 265.519V173.615C172.867 168.876 169.005 165.02 164.257 165.02H123.643C118.896 165.02 115.034 168.876 115.034 173.615V239.333C115.034 239.892 114.581 240.343 114.022 240.343C113.462 240.343 113.01 239.892 113.01 239.333V173.615C113.01 167.763 117.779 163 123.641 163H164.254C170.116 163 174.886 167.761 174.886 173.615V265.519C174.886 269.366 171.75 272.537 167.896 272.583L164.265 272.628H137.114H137.119Z" fill="#1C4778"/>
<path d="M155.51 261.327H147.584C147.024 261.327 146.572 260.876 146.572 260.317C146.572 259.758 147.024 259.307 147.584 259.307H155.51C156.07 259.307 156.522 259.758 156.522 260.317C156.522 260.876 156.07 261.327 155.51 261.327Z" fill="#1C4778"/>
<path d="M173.973 260.317H123.404L114.024 238.578V175.311H173.973V260.317Z" fill="white"/>
<path d="M173.973 261.327H123.404C123 261.327 122.634 261.088 122.475 260.718L113.096 238.978C113.042 238.852 113.012 238.715 113.012 238.578V175.311C113.012 174.752 113.465 174.3 114.024 174.3H173.973C174.533 174.3 174.985 174.752 174.985 175.311V260.317C174.985 260.873 174.533 261.327 173.973 261.327ZM124.071 259.307H172.961V176.318H115.036V238.368L124.071 259.307Z" fill="#1C4778"/>
<path d="M110.641 256.185C110.641 256.185 115.505 250.513 118.979 246.56C122.454 242.608 129.403 241.407 135.308 239C141.213 236.592 145.557 239 145.207 243.127C144.857 247.254 136.444 254.124 128.703 258.248C128.703 258.248 128.876 265.64 118.105 279.386" fill="white"/>
<path d="M118.105 280.732C117.814 280.732 117.523 280.638 117.276 280.447C116.692 279.99 116.587 279.147 117.044 278.561C127.282 265.492 127.358 258.34 127.358 258.27C127.355 257.77 127.63 257.3 128.071 257.063C136.221 252.721 143.603 246.157 143.867 243.014C143.966 241.821 143.555 240.851 142.677 240.206C141.165 239.096 138.6 239.11 135.817 240.244C134.097 240.945 132.294 241.544 130.552 242.125C126.278 243.546 122.239 244.889 119.991 247.447C116.562 251.348 111.712 257.002 111.664 257.058C111.18 257.622 110.332 257.687 109.767 257.206C109.201 256.722 109.137 255.876 109.619 255.312C109.667 255.255 114.528 249.589 117.967 245.677C120.694 242.573 125.07 241.12 129.699 239.577C131.403 239.01 133.163 238.425 134.799 237.758C138.511 236.246 141.964 236.35 144.271 238.043C145.896 239.236 146.728 241.13 146.548 243.242C146.112 248.42 136.433 255.524 129.995 259.079C129.729 261.467 128.168 268.724 119.165 280.216C118.899 280.555 118.503 280.732 118.105 280.732Z" fill="#1C4778"/>
<path d="M144.166 222.451C146.092 222.451 147.654 220.894 147.654 218.972C147.654 217.05 146.092 215.492 144.166 215.492C142.239 215.492 140.678 217.05 140.678 218.972C140.678 220.894 142.239 222.451 144.166 222.451Z" fill="white"/>
<path d="M144.166 223.797C142.874 223.797 141.66 223.295 140.748 222.384C139.835 221.473 139.332 220.262 139.332 218.972C139.332 216.312 141.501 214.149 144.166 214.149C146.83 214.149 148.999 216.315 148.999 218.975C148.999 220.264 148.496 221.473 147.581 222.384C146.669 223.295 145.455 223.795 144.166 223.795V223.797ZM144.166 216.836C142.984 216.836 142.023 217.795 142.023 218.972C142.023 219.541 142.247 220.079 142.65 220.482C143.054 220.885 143.592 221.108 144.166 221.108C144.739 221.108 145.274 220.885 145.681 220.482C146.085 220.079 146.308 219.541 146.308 218.972C146.308 217.792 145.347 216.833 144.166 216.833V216.836Z" fill="#1C4778"/>
<path d="M140.678 220.315H136.137C135.394 220.315 134.791 219.711 134.791 218.969C134.791 218.228 135.394 217.626 136.137 217.626H140.678C141.42 217.626 142.023 218.23 142.023 218.972C142.023 219.714 141.42 220.315 140.678 220.315Z" fill="#1C4778"/>
<path d="M152.194 220.318H147.654C146.911 220.318 146.308 219.713 146.308 218.972C146.308 218.23 146.911 217.628 147.654 217.628H152.194C152.937 217.628 153.54 218.233 153.54 218.975C153.54 219.716 152.937 220.318 152.194 220.318Z" fill="#1C4778"/>
<path d="M144.163 221.111C144.906 221.111 145.509 221.713 145.509 222.454V226.984C145.509 227.726 144.906 228.328 144.163 228.328C143.42 228.328 142.817 227.726 142.817 226.984V222.454C142.817 221.713 143.42 221.111 144.163 221.111Z" fill="#1C4778"/>
<path d="M144.166 209.619C144.908 209.619 145.511 210.221 145.511 210.962V215.492C145.511 216.234 144.908 216.836 144.166 216.836C143.423 216.836 142.82 216.234 142.82 215.492V210.962C142.82 210.221 143.423 209.619 144.166 209.619Z" fill="#1C4778"/>
<path d="M169.729 253.055H162.12C161.377 253.052 160.774 252.45 160.774 251.708C160.774 250.967 161.377 250.365 162.12 250.365H168.383V244.121C168.383 243.379 168.986 242.777 169.729 242.777C170.472 242.777 171.074 243.379 171.074 244.121V251.711C171.074 252.069 170.929 252.41 170.676 252.662C170.423 252.915 170.081 253.055 169.726 253.055H169.729Z" fill="#1C4778"/>
<path d="M120.723 194.511C119.98 194.511 119.378 193.909 119.378 193.167V185.577C119.378 185.22 119.523 184.879 119.776 184.626C120.029 184.373 120.371 184.234 120.726 184.234H128.335C129.077 184.236 129.68 184.838 129.68 185.58C129.68 186.321 129.077 186.923 128.335 186.923H122.072V193.167C122.072 193.909 121.469 194.511 120.726 194.511H120.723Z" fill="#1C4778"/>
<defs>
<filter id="filter0_f_55083_35874" x="42.751" y="49.399" width="198.184" height="198.39" filterUnits="userSpaceOnUse" color-interpolation-filters="sRGB">
<feFlood flood-opacity="0" result="BackgroundImageFix"/>
<feBlend mode="normal" in="SourceGraphic" in2="BackgroundImageFix" result="shape"/>
<feGaussianBlur stdDeviation="12.5" result="effect1_foregroundBlur_55083_35874"/>
</filter>
</defs>
</svg>
