<svg width="288" height="288" viewBox="0 0 288 288" fill="none" xmlns="http://www.w3.org/2000/svg">
<g filter="url(#filter0_f_55075_32919)">
<path d="M72.5225 125.514C60.0274 164.535 81.4767 206.279 120.431 218.753C159.385 231.226 201.093 209.706 213.588 170.686C226.083 131.665 204.633 89.9212 165.679 77.4474C126.725 64.9736 85.0175 86.4939 72.5225 125.514Z" fill="#F3FFF9"/>
</g>
<path fill-rule="evenodd" clip-rule="evenodd" d="M96.5969 55.3362C96.3468 55.4653 96.1699 55.6828 96.0903 55.9314C96.0115 56.1775 96.0256 56.4505 96.15 56.6966C96.4021 57.1956 97.0094 57.3957 97.508 57.1427C100.989 55.3806 104.61 53.8015 108.266 52.4457C108.788 52.2512 109.057 51.6675 108.863 51.1448C108.669 50.6221 108.089 50.3544 107.564 50.5481C103.836 51.9286 100.145 53.5418 96.5969 55.3362ZM118.998 47.0342C118.646 47.1219 118.38 47.3873 118.277 47.7103C118.222 47.882 118.21 48.0703 118.257 48.2577C118.39 48.8007 118.935 49.1336 119.478 48.9992C123.266 48.0673 127.148 47.3462 131.011 46.8508C131.564 46.7793 131.958 46.2723 131.887 45.7183C131.816 45.1643 131.31 44.7706 130.757 44.8421C126.817 45.3469 122.86 46.0835 118.998 47.0342ZM142.687 44.0079C142.242 44.0151 141.865 44.3099 141.736 44.7123L141.734 44.7115C141.702 44.8115 141.683 44.9215 141.685 45.0321C141.692 45.5911 142.149 46.0399 142.707 46.0322C146.608 45.984 150.549 46.1608 154.421 46.5614C154.976 46.6175 155.473 46.2173 155.531 45.6592C155.59 45.1045 155.186 44.6048 154.631 44.5487C150.682 44.1405 146.664 43.9587 142.687 44.0079ZM166.433 46.4657C165.92 46.352 165.409 46.6519 165.251 47.1441L165.249 47.1433C165.24 47.1713 165.234 47.1979 165.227 47.2263L165.227 47.2268L165.227 47.2274L165.225 47.2346C165.104 47.7808 165.447 48.3203 165.993 48.4412C169.003 49.1112 172.02 49.9275 174.962 50.8698C175.733 51.1164 176.505 51.375 177.274 51.6412C177.802 51.8244 178.377 51.545 178.561 51.016C178.742 50.492 178.466 49.9117 177.937 49.7284C177.153 49.4573 176.368 49.1946 175.58 48.9423C172.581 47.9819 169.501 47.1486 166.433 46.4657ZM187.649 54.757C187.626 54.8007 187.61 54.8435 187.596 54.8871L187.599 54.8879C187.447 55.3621 187.663 55.8862 188.122 56.1069C191.639 57.7952 195.093 59.7039 198.39 61.7771C198.865 62.0734 199.486 61.9304 199.784 61.4578C200.081 60.9818 199.938 60.3597 199.467 60.0618C196.106 57.9485 192.585 56.0015 188.997 54.2817C188.493 54.0411 187.89 54.252 187.649 54.757ZM55.431 210.365C55.1747 210.316 54.9378 210.166 54.7801 209.933C52.5791 206.621 50.5412 203.147 48.7298 199.608C48.4755 199.11 48.6728 198.502 49.1689 198.248C49.6651 197.994 50.2764 198.192 50.5313 198.687C52.3095 202.157 54.3053 205.566 56.4663 208.815C56.7764 209.28 56.6494 209.906 56.1837 210.216C55.954 210.368 55.6846 210.415 55.431 210.365ZM44.6463 189.305C44.3134 189.241 44.0185 189.009 43.8897 188.669C42.4894 184.946 41.2905 181.104 40.3238 177.252C40.1874 176.711 40.5186 176.162 41.0604 176.026C41.6021 175.89 42.1521 176.221 42.2884 176.762C43.2367 180.54 44.4114 184.309 45.7843 187.961C45.9818 188.483 45.7157 189.064 45.1923 189.261C45.0117 189.33 44.8233 189.34 44.6463 189.305ZM38.8978 166.365C38.483 166.284 38.1457 165.945 38.086 165.504C37.5673 161.561 37.2731 157.549 37.2119 153.579C37.2021 153.022 37.6505 152.562 38.2084 152.555C38.7694 152.546 39.2256 152.993 39.2354 153.55C39.295 157.443 39.5851 161.377 40.0937 165.244C40.1674 165.798 39.7757 166.305 39.2215 166.378C39.1118 166.392 39.0004 166.387 38.8973 166.367L38.8978 166.365ZM38.5345 142.727C38.0272 142.629 37.669 142.157 37.7212 141.633C38.0368 138.506 38.5006 135.35 39.0999 132.259C39.2574 131.446 39.4254 130.636 39.602 129.824C39.7215 129.278 40.2651 128.935 40.8069 129.053C41.3539 129.173 41.6993 129.711 41.5797 130.257C41.4063 131.053 41.2408 131.85 41.0868 132.644C40.4988 135.677 40.0446 138.769 39.735 141.838C39.6793 142.393 39.1841 142.798 38.6275 142.742L38.6206 142.741L38.6204 142.741L38.6198 142.741L38.6197 142.741C38.5904 142.738 38.5631 142.735 38.534 142.73L38.5345 142.727ZM43.5834 119.624C43.5385 119.615 43.4941 119.604 43.4481 119.587C42.9181 119.407 42.6374 118.833 42.8167 118.304C44.1006 114.538 45.618 110.812 47.3195 107.225C47.5596 106.721 48.1605 106.507 48.6682 106.745C49.1727 106.985 49.3881 107.585 49.15 108.092C47.4809 111.611 45.9936 115.266 44.7325 118.957C44.5677 119.44 44.0727 119.716 43.5839 119.621L43.5834 119.624ZM63.2666 218.047C63.2779 217.77 63.4018 217.501 63.63 217.311C64.0587 216.954 64.6963 217.012 65.0526 217.441C67.5467 220.447 70.2391 223.336 73.0523 226.031C73.4561 226.417 73.4703 227.059 73.0828 227.463C72.6979 227.867 72.0573 227.882 71.6536 227.494C68.7861 224.745 66.0422 221.8 63.4967 218.736C63.3301 218.535 63.2541 218.289 63.2639 218.047L63.2666 218.047ZM80.3559 234.415C80.364 234.216 80.4313 234.017 80.5592 233.847C80.8974 233.4 81.5301 233.316 81.9736 233.651C85.0803 236.008 88.3573 238.211 91.7104 240.195C92.1909 240.478 92.3512 241.099 92.0654 241.58C91.7823 242.062 91.1626 242.222 90.6822 241.936C87.2608 239.911 83.9209 237.666 80.7516 235.264C80.4777 235.056 80.3402 234.735 80.3532 234.415L80.3559 234.415ZM100.716 246.461C100.721 246.337 100.748 246.212 100.804 246.09C101.032 245.579 101.627 245.35 102.137 245.576C105.698 247.162 109.387 248.559 113.109 249.727C113.643 249.894 113.937 250.461 113.77 250.995C113.603 251.527 113.037 251.825 112.503 251.658C108.709 250.466 104.946 249.041 101.317 247.425C100.929 247.251 100.703 246.862 100.719 246.458L100.716 246.461ZM236.866 199.582C237.102 199.508 237.311 199.336 237.439 199.089C239.224 195.58 240.843 191.926 242.244 188.228C242.441 187.707 242.206 187.122 241.721 186.917C241.236 186.713 240.681 186.969 240.483 187.487C239.107 191.112 237.522 194.698 235.77 198.14C235.518 198.633 235.689 199.244 236.15 199.507C236.377 199.636 236.633 199.656 236.866 199.582ZM245.212 177.581C245.518 177.484 245.775 177.224 245.867 176.874C246.869 173.034 247.673 169.094 248.258 165.168C248.341 164.616 247.986 164.102 247.468 164.02C246.95 163.937 246.463 164.32 246.38 164.872C245.806 168.722 245.019 172.587 244.036 176.353C243.895 176.892 244.192 177.444 244.698 177.589C244.872 177.64 245.049 177.632 245.212 177.581ZM248.692 154.197C249.073 154.077 249.361 153.706 249.38 153.262C249.539 149.288 249.483 145.268 249.212 141.313C249.175 140.757 248.718 140.342 248.195 140.39C247.67 140.436 247.28 140.925 247.317 141.48C247.583 145.359 247.637 149.301 247.481 153.199C247.458 153.756 247.866 154.223 248.39 154.242C248.494 154.245 248.598 154.229 248.693 154.199L248.692 154.197ZM230.348 207.822C230.587 208.001 230.729 208.272 230.76 208.561L230.763 208.561C230.79 208.814 230.734 209.078 230.584 209.303C228.302 212.74 225.815 216.071 223.192 219.207C222.823 219.65 222.191 219.692 221.782 219.303C221.371 218.914 221.338 218.24 221.707 217.8C224.28 214.725 226.72 211.458 228.957 208.086C229.276 207.605 229.9 207.486 230.348 207.822ZM214.886 226.66C215.024 226.826 215.105 227.029 215.128 227.237L215.131 227.236C215.167 227.57 215.055 227.919 214.8 228.161C211.855 230.961 208.73 233.612 205.508 236.039C205.056 236.382 204.434 236.269 204.12 235.79C203.803 235.312 203.915 234.647 204.368 234.307C207.525 231.928 210.591 229.328 213.478 226.581C213.891 226.19 214.52 226.222 214.886 226.66ZM195.843 241.296C195.907 241.419 195.942 241.548 195.956 241.677L195.953 241.674C195.999 242.096 195.805 242.523 195.435 242.741C191.979 244.758 188.377 246.588 184.727 248.175C184.214 248.398 183.634 248.137 183.431 247.595C183.227 247.05 183.475 246.43 183.989 246.207C187.57 244.651 191.101 242.857 194.492 240.877C194.977 240.595 195.581 240.782 195.843 241.296Z" fill="#1C4778"/>
<path d="M105.567 52.915H27.6828C24.5559 52.915 22.0211 55.4455 22.0211 58.5671V126.16C22.0211 129.282 24.5559 131.812 27.6828 131.812H105.567C108.694 131.812 111.229 129.282 111.229 126.16V58.5671C111.229 55.4455 108.694 52.915 105.567 52.915Z" fill="white"/>
<path d="M106.646 132.832H26.6016C23.5119 132.832 21 130.324 21 127.24V57.4904C21 54.4059 23.5147 51.8983 26.6016 51.8983H106.646C109.736 51.8983 112.247 54.4059 112.247 57.4904V127.24C112.247 130.324 109.733 132.832 106.646 132.832ZM26.6016 53.9346C24.639 53.9346 23.0427 55.5283 23.0427 57.4875V127.237C23.0427 129.196 24.639 130.79 26.6016 130.79H106.646C108.608 130.79 110.205 129.196 110.205 127.237V57.4904C110.205 55.5312 108.608 53.9375 106.646 53.9375H26.6016V53.9346Z" fill="#1C4778"/>
<path d="M111.229 69.0515H22.0213C21.4578 69.0515 21 68.5945 21 68.0319C21 67.4692 21.4578 67.0123 22.0213 67.0123H111.229C111.793 67.0123 112.25 67.4692 112.25 68.0319C112.25 68.5945 111.793 69.0515 111.229 69.0515Z" fill="#1C4778"/>
<path d="M62.3766 94.667C64.2647 94.667 65.6837 92.9362 65.3032 91.0912C63.6468 83.0887 56.5489 77.074 48.0436 77.074C39.5382 77.074 32.4404 83.0887 30.784 91.0912C30.4035 92.9362 31.8225 94.667 33.7107 94.667H62.3737H62.3766Z" fill="#FF897D"/>
<path d="M62.3767 95.6865H33.7137C32.5035 95.6865 31.3706 95.1496 30.6039 94.21C29.84 93.2761 29.5425 92.0623 29.7857 90.8827C31.5623 82.289 39.2408 76.0544 48.0437 76.0544C56.8466 76.0544 64.5252 82.2919 66.3018 90.8827C66.545 92.0623 66.2474 93.2732 65.4836 94.21C64.7169 95.1468 63.584 95.6865 62.3738 95.6865H62.3767ZM48.0437 78.0935C40.2049 78.0935 33.3675 83.6456 31.7855 91.2969C31.6653 91.8738 31.8112 92.465 32.186 92.9219C32.5607 93.3817 33.1186 93.6474 33.7108 93.6474H62.3738C62.9689 93.6474 63.5239 93.3817 63.8987 92.9219C64.2735 92.465 64.4165 91.8709 64.2992 91.2969C62.7171 83.6456 55.8796 78.0935 48.0409 78.0935H48.0437Z" fill="#1C4778"/>
<path d="M53.1362 95.6865H41.8987C41.3351 95.6865 40.8773 95.2296 40.8773 94.6669C40.8773 91.0113 43.8555 88.0381 47.5175 88.0381C51.1794 88.0381 54.1575 91.0113 54.1575 94.6669C54.1575 95.2296 53.6998 95.6865 53.1362 95.6865ZM43.0344 93.6473H52.0004C51.5341 91.6053 49.7003 90.0773 47.5175 90.0773C45.3346 90.0773 43.5007 91.6053 43.0344 93.6473Z" fill="#1C4778"/>
<path d="M47.5174 90.0773C46.9538 90.0773 46.496 89.6204 46.496 89.0577V82.4432C46.496 81.8806 46.9538 81.4236 47.5174 81.4236C48.081 81.4236 48.5387 81.8806 48.5387 82.4432V89.0577C48.5387 89.6204 48.081 90.0773 47.5174 90.0773Z" fill="#1C4778"/>
<path d="M33.1873 120.048C31.2991 120.048 29.8801 118.318 30.2606 116.473C31.9171 108.47 39.0149 102.455 47.5203 102.455C56.0256 102.455 63.1234 108.47 64.7798 116.473C65.1603 118.318 63.7413 120.048 61.8532 120.048H33.1901H33.1873Z" fill="#5FDBB9"/>
<path d="M61.8503 121.068H33.1873C31.9771 121.068 30.8442 120.531 30.0775 119.591C29.3136 118.657 29.0161 117.444 29.2593 116.267C31.0359 107.673 38.7145 101.439 47.5174 101.439C56.3203 101.439 63.9988 107.676 65.7754 116.267C66.0186 117.446 65.7211 118.657 64.9572 119.594C64.1905 120.531 63.0576 121.071 61.8474 121.071L61.8503 121.068ZM47.5174 103.475C39.6786 103.475 32.8411 109.027 31.259 116.678C31.1389 117.255 31.2847 117.846 31.6595 118.303C32.0343 118.763 32.5922 119.029 33.1873 119.029H61.8503C62.4453 119.029 63.0004 118.763 63.3751 118.303C63.7499 117.846 63.8929 117.252 63.7756 116.678C62.1936 109.027 55.3561 103.475 47.5174 103.475Z" fill="#1C4778"/>
<path d="M53.1362 121.068H41.8987C41.3351 121.068 40.8773 120.611 40.8773 120.048C40.8773 116.393 43.8555 113.42 47.5175 113.42C51.1794 113.42 54.1575 116.393 54.1575 120.048C54.1575 120.611 53.6998 121.068 53.1362 121.068ZM43.0344 119.029H52.0004C51.5341 116.987 49.7003 115.459 47.5175 115.459C45.3346 115.459 43.5007 116.987 43.0344 119.029Z" fill="#1C4778"/>
<path d="M47.5174 115.459C46.9538 115.459 46.496 115.002 46.496 114.439V107.825C46.496 107.262 46.9538 106.805 47.5174 106.805C48.081 106.805 48.5387 107.262 48.5387 107.825V114.439C48.5387 115.002 48.081 115.459 47.5174 115.459Z" fill="#1C4778"/>
<path d="M79.3332 86.8844H72.4042V94.3129H79.3332V86.8844Z" fill="#FFD766"/>
<path d="M79.3331 95.3324H72.404C71.8404 95.3324 71.3827 94.8755 71.3827 94.3128V86.8844C71.3827 86.3217 71.8404 85.8648 72.404 85.8648H79.3331C79.8966 85.8648 80.3543 86.3217 80.3543 86.8844V94.3128C80.3543 94.8755 79.8966 95.3324 79.3331 95.3324ZM73.4253 93.2932H78.3117V87.904H73.4253V93.2932Z" fill="#1C4778"/>
<path d="M91.1343 94.3128H84.2053V76.1114H91.1257V94.3128H91.1343Z" fill="#FFD766"/>
<path d="M91.1342 95.3324H84.2052C83.6416 95.3324 83.1838 94.8755 83.1838 94.3128V76.1087C83.1838 75.546 83.6416 75.0891 84.2052 75.0891H91.1285C91.6921 75.0891 92.1498 75.546 92.1498 76.1087V94.1986C92.1527 94.2357 92.1555 94.2729 92.1555 94.31C92.1555 94.8726 91.6978 95.3296 91.1342 95.3296V95.3324ZM85.2265 93.2932H90.1071V77.1283H85.2265V93.2932Z" fill="#1C4778"/>
<path d="M102.927 82.8916H95.9978V94.3128H102.927V82.8916Z" fill="#FFD766"/>
<path d="M102.927 95.3324H95.9978C95.4342 95.3324 94.9764 94.8754 94.9764 94.3128V82.8916C94.9764 82.329 95.4342 81.872 95.9978 81.872H102.927C103.49 81.872 103.948 82.329 103.948 82.8916V94.3128C103.948 94.8754 103.49 95.3324 102.927 95.3324ZM97.0191 93.2932H101.905V83.9112H97.0191V93.2932Z" fill="#1C4778"/>
<path d="M102.246 120.717H73.082C72.5184 120.717 72.0607 120.26 72.0607 119.697V102.455C72.0607 101.893 72.5184 101.436 73.082 101.436C73.6456 101.436 74.1034 101.893 74.1034 102.455V118.677H102.246C102.809 118.677 103.267 119.134 103.267 119.697C103.267 120.26 102.809 120.717 102.246 120.717Z" fill="#1C4778"/>
<path d="M73.0851 117.629C72.8248 117.629 72.5616 117.529 72.3642 117.329C71.9665 116.932 71.9665 116.287 72.3642 115.887L78.1946 110.067C78.5923 109.67 79.2388 109.67 79.6393 110.067L81.6191 112.043L88.4766 105.197C88.8743 104.8 89.5208 104.8 89.9213 105.197L96.5356 111.797L102.332 106.011C102.729 105.614 103.376 105.614 103.777 106.011C104.174 106.408 104.174 107.053 103.777 107.453L97.2594 113.959C96.8618 114.356 96.2152 114.356 95.8147 113.959L89.2004 107.359L82.3429 114.205C81.9452 114.602 81.2987 114.602 80.8982 114.205L78.9185 112.229L73.8089 117.329C73.6087 117.529 73.3483 117.629 73.088 117.629H73.0851Z" fill="#1C4778"/>
<path d="M224.226 76.1762L214.101 58.071C214.064 58.006 213.971 58.006 213.937 58.071L202.658 77.5071C202.632 77.5535 202.648 77.6093 202.692 77.6372L215.718 85.4436C215.764 85.4715 215.822 85.4552 215.847 85.4111L222.651 73.6886C222.685 73.6236 222.777 73.6259 222.814 73.6886L226.849 80.796L227.507 81.9596C227.532 82.0061 227.516 82.0665 227.47 82.092L224.044 83.9362C223.326 84.3218 223.539 85.4088 224.346 85.4947L230.43 86.1335L238.634 86.9952C238.971 87.03 239.294 86.8558 239.45 86.5562L243.292 79.2119L246.141 73.7676C246.522 73.0429 245.739 72.2625 245.022 72.6481L241.37 74.6154C241.326 74.6386 241.273 74.6247 241.245 74.5828L240.352 73.1939C240.352 73.1939 240.35 73.1892 240.348 73.1892L231.766 58.0664C231.75 58.0362 231.717 58.0199 231.685 58.0199L222.588 57.9758L214.078 57.9363C214.043 57.9363 214.011 57.9549 213.994 57.9827L206.04 71.6911L224.229 76.1855L224.226 76.1762Z" fill="#5FDBB9"/>
<path d="M238.332 88.0376C238.258 88.0376 238.181 88.033 238.104 88.0262L223.686 86.5585C222.72 86.4607 221.945 85.7689 221.759 84.836C221.572 83.9054 222.022 82.9793 222.878 82.531L225.187 81.325L222.541 76.7947C222.541 76.7947 222.527 76.7719 222.52 76.7605L222.187 76.1917L216.428 85.8258C216.235 86.1512 215.909 86.3924 215.532 86.488C215.155 86.5813 214.747 86.5244 214.415 86.3264L201.281 78.6833C200.597 78.2669 200.376 77.4295 200.751 76.7651C200.755 76.756 200.762 76.7469 200.767 76.7378L212.203 57.6037C212.455 57.1736 212.941 56.8983 213.465 56.8983L231.235 56.9802C231.752 56.9802 232.236 57.2556 232.494 57.6993L241.132 72.4759L241.386 72.8582L244.044 71.4679C244.906 71.0196 245.944 71.1698 246.631 71.8411C247.317 72.51 247.475 73.5226 247.022 74.3622L240.273 86.8885C239.889 87.6007 239.145 88.0353 238.332 88.0353V88.0376ZM225.693 84.0829L238.027 85.3389L243.802 74.6194L241.642 75.748C240.974 76.0938 240.157 75.8936 239.74 75.2792L238.842 73.9231C238.821 73.8935 238.802 73.8662 238.786 73.8343L230.49 59.6402L215.746 59.5719L224.866 75.4067L228.199 81.1111C228.395 81.4434 228.444 81.8484 228.332 82.217C228.223 82.5856 227.96 82.8996 227.611 83.0794L225.693 84.0806V84.0829ZM214.075 84.4788C214.075 84.4788 214.072 84.4833 214.07 84.4879L214.075 84.4788ZM215.802 84.0351L215.816 84.0442C215.816 84.0442 215.807 84.0374 215.802 84.0351ZM203.754 77.0245L214.717 83.4048L220.637 73.4998L213.383 60.9099L206.528 72.3803C206.521 72.3917 206.514 72.4054 206.505 72.4167L203.751 77.0245H203.754ZM225.83 82.4309C225.83 82.4309 225.83 82.4309 225.83 82.4332V82.4309ZM226.333 80.7266C226.333 80.7266 226.321 80.7312 226.316 80.7357L226.333 80.7266ZM230.125 59.0213C230.125 59.0213 230.125 59.0213 230.125 59.0236V59.0213Z" fill="#1C4778"/>
<path d="M238.373 106.654L259.582 106.684C259.658 106.684 259.705 106.605 259.665 106.54L248.081 87.0467C248.055 87.0024 247.993 86.9861 247.948 87.0118L234.43 94.6059C234.383 94.6315 234.366 94.6898 234.395 94.7363L241.382 106.496C241.42 106.558 241.373 106.638 241.299 106.638L232.942 106.68L231.577 106.684C231.523 106.684 231.48 106.64 231.48 106.586L231.57 102.668C231.589 101.848 230.516 101.497 230.032 102.167L226.393 107.197L221.486 113.98C221.284 114.26 221.277 114.628 221.464 114.914L226.052 121.91L229.454 127.098C229.907 127.787 230.994 127.487 231.016 126.667L231.11 122.488C231.11 122.439 231.151 122.397 231.203 122.394L232.888 122.294C232.888 122.294 232.892 122.294 232.895 122.294L250.673 122.21C250.706 122.21 250.739 122.192 250.756 122.161L255.388 114.192L259.722 106.736C259.738 106.705 259.738 106.67 259.722 106.64L251.552 92.8914L238.373 106.656V106.654Z" fill="#3EBF9E"/>
<path d="M230.339 128.519C229.607 128.519 228.911 128.158 228.499 127.525L220.644 115.526C220.155 114.778 220.176 113.824 220.7 113.099L229.1 101.464C229.661 100.684 230.66 100.363 231.583 100.664C232.505 100.964 233.111 101.811 233.088 102.768L233.027 105.344H233.069L238.361 105.319C238.378 105.319 238.385 105.319 238.413 105.319H238.508L239.084 105.317L233.323 95.6049C232.918 94.9166 233.155 94.0356 233.849 93.6364L247.143 86.1547C247.472 85.9666 247.856 85.9138 248.227 86.0056C248.602 86.0974 248.93 86.3383 249.126 86.6664L252.517 92.3837C252.527 92.3975 252.536 92.4112 252.543 92.4273L260.519 105.876C260.519 105.876 260.526 105.886 260.528 105.892L260.573 105.968C260.836 106.409 260.838 106.959 260.582 107.407L251.767 122.602C251.527 123.026 251.059 123.306 250.551 123.324C250.537 123.324 250.523 123.324 250.507 123.324L233.092 123.407L232.605 123.437L232.538 126.403C232.515 127.36 231.872 128.177 230.935 128.436C230.735 128.491 230.532 128.519 230.332 128.519H230.339ZM223.132 114.367L229.854 124.637L229.91 122.225C229.929 121.473 230.539 120.858 231.301 120.821L232.885 120.727C232.932 120.723 232.98 120.72 233.027 120.72L249.766 120.642L257.081 108.033L238.513 108.005L231.737 108.035C231.343 108.035 230.963 107.877 230.688 107.604C230.416 107.329 230.264 106.95 230.271 106.567L230.32 104.41L223.129 114.37L223.132 114.367ZM231.478 123.503H231.445C231.445 123.503 231.466 123.503 231.478 123.503ZM249.408 121.257C249.408 121.257 249.401 121.271 249.396 121.278L249.408 121.257ZM242.249 105.323L257.051 105.344L247.414 89.0983L236.328 95.3364L242.252 105.321L242.249 105.323Z" fill="#1C4778"/>
<path d="M205.732 102.209L195.242 120.072C195.204 120.134 195.251 120.212 195.326 120.212L218.095 120.049C218.147 120.049 218.189 120.005 218.189 119.954L218.215 104.818C218.215 104.765 218.171 104.723 218.119 104.723L204.384 104.822C204.308 104.822 204.264 104.744 204.299 104.682L208.387 97.6194L209.057 96.4647C209.083 96.4186 209.144 96.4024 209.191 96.4301L212.575 98.4377C213.284 98.8572 214.12 98.1242 213.772 97.3889L211.166 91.8433L207.65 84.366C207.507 84.0595 207.188 83.8705 206.845 83.8866L198.459 84.3084L192.24 84.6196C191.414 84.6611 191.141 85.7283 191.851 86.1478L195.458 88.289C195.502 88.3144 195.516 88.3674 195.495 88.4112L194.751 89.8818C194.751 89.8818 194.751 89.8841 194.748 89.8864L186.05 104.915C186.034 104.945 186.034 104.979 186.05 105.009L190.738 112.839L195.124 120.166C195.143 120.196 195.174 120.215 195.209 120.215L211.269 120.1L205.727 102.209H205.732Z" fill="#B9FFE7"/>
<path d="M195.351 122.286C194.821 122.286 194.338 122.002 194.084 121.543L185.196 106.247C184.936 105.786 184.936 105.232 185.187 104.787L193.7 89.6358L193.902 89.2235L191.353 87.6653C190.53 87.1646 190.134 86.1933 190.369 85.25C190.604 84.3067 191.406 83.6405 192.366 83.5916L206.687 82.8509C207.581 82.802 208.398 83.3075 208.771 84.125L214.773 97.2871C215.174 98.1699 214.965 99.197 214.248 99.8445C213.532 100.492 212.498 100.59 211.676 100.087L209.458 98.7312L209.437 98.7661L206.501 103.993L217.8 103.909C218.606 103.909 219.253 104.563 219.253 105.369L219.226 120.667C219.226 121.469 218.578 122.125 217.784 122.125L211.128 122.174C211.128 122.174 211.109 122.174 211.102 122.174L195.351 122.291V122.286ZM204.934 106.73L197.631 119.542L216.531 119.403L216.554 106.643L204.934 106.73ZM217.775 119.393C217.775 119.393 217.763 119.393 217.756 119.393H217.775ZM187.889 105.5L195.275 118.21L204.49 102.046C204.49 102.046 204.495 102.036 204.499 102.032L207.751 96.2483C207.94 95.9106 208.265 95.6567 208.64 95.5589C209.016 95.4587 209.423 95.5193 209.755 95.7242L211.607 96.8562L206.471 85.5947L194.216 86.2282L196.286 87.4953C196.924 87.8773 197.168 88.6878 196.841 89.3749L196.104 90.8773C196.104 90.8773 196.104 90.8819 196.102 90.8842C196.102 90.8842 196.102 90.8842 196.102 90.8866C196.09 90.9075 196.079 90.9285 196.067 90.9495L187.893 105.5H187.889ZM208.352 98.0557C208.352 98.0557 208.357 98.0581 208.359 98.0604L208.352 98.0557ZM210.094 97.5922L210.089 97.6016C210.089 97.6016 210.091 97.5946 210.094 97.5922ZM194.877 89.8198C194.877 89.8198 194.89 89.8291 194.897 89.8338L194.877 89.8198Z" fill="#1C4778"/>
<path d="M261.088 117.101H242.089V137.86H262.848V128.466L261.088 117.101Z" fill="#FFD766"/>
<path d="M262.748 138.898H242.188C241.559 138.898 241.051 138.39 241.051 137.761V117.201C241.051 116.571 241.559 116.063 242.188 116.063H261.002C261.631 116.063 262.14 116.571 262.14 117.201C262.14 117.83 261.631 118.338 261.002 118.338H243.326V136.623H261.611V128.455C261.611 127.825 262.119 127.317 262.748 127.317C263.377 127.317 263.886 127.825 263.886 128.455V137.761C263.886 138.39 263.377 138.898 262.748 138.898Z" fill="#1C4778"/>
<path d="M252.508 132.668C252.471 132.668 252.435 132.668 252.399 132.664C252.086 132.631 251.802 132.469 251.614 132.214L247.497 126.594C247.132 126.096 247.234 125.39 247.729 125.021C248.223 124.651 248.917 124.757 249.285 125.255L252.671 129.877L265.142 118.431C265.595 118.013 266.301 118.048 266.711 118.509C267.124 118.967 267.09 119.678 266.636 120.098L253.256 132.379C253.05 132.567 252.784 132.67 252.508 132.67V132.668Z" fill="#1C4778"/>
<path d="M129.056 284.223C134.095 281.302 141.911 274.942 146.604 263.601C146.604 263.601 156.681 257.244 162.933 255.696L167.108 218.744C167.108 218.744 170.757 214.964 166.413 212.9C162.072 210.837 145.396 218.741 145.396 218.741L133.931 225.098C120.554 231.456 112.563 244.172 112.563 244.172" fill="white"/>
<path d="M129.056 285.566C128.593 285.566 128.141 285.327 127.891 284.897C127.517 284.255 127.735 283.433 128.378 283.062C131.826 281.063 140.382 275.114 145.358 263.088C145.463 262.83 145.649 262.612 145.883 262.465C146.281 262.212 155.317 256.537 161.695 254.64L165.767 218.594C165.8 218.301 165.929 218.024 166.136 217.812C166.454 217.476 167.339 216.304 167.172 215.415C167.081 214.932 166.631 214.494 165.832 214.112C163.24 212.881 152.695 216.769 146.007 219.934L134.579 226.27C134.555 226.283 134.531 226.297 134.504 226.308C121.655 232.415 113.774 244.758 113.696 244.884C113.301 245.513 112.472 245.701 111.842 245.306C111.212 244.911 111.024 244.084 111.417 243.455C111.75 242.923 119.757 230.357 133.309 223.9L144.737 217.562C144.761 217.548 144.788 217.535 144.812 217.522C147.694 216.157 162.303 209.456 166.987 211.683C169.013 212.645 169.646 213.983 169.818 214.934C170.165 216.836 168.997 218.561 168.391 219.306L164.263 255.841C164.201 256.4 163.795 256.86 163.248 256.994C157.925 258.311 149.5 263.383 147.67 264.509C142.557 276.568 134.251 282.753 129.724 285.378C129.511 285.502 129.28 285.561 129.048 285.561L129.056 285.566Z" fill="#1C4778"/>
<path d="M122.47 261.914L120.807 173.121C120.807 167.818 125.113 163.519 130.429 163.519H171.043C176.355 163.519 180.664 167.818 180.664 173.121V265.025C180.664 268.341 177.994 271.038 174.673 271.079L130.574 271.124H126.037L122.47 261.916V261.914Z" fill="#7395AB"/>
<path d="M143.902 272.135C143.342 272.135 142.89 271.683 142.89 271.124C142.89 270.565 143.342 270.114 143.902 270.114H171.04L174.657 270.068C177.41 270.036 179.65 267.771 179.65 265.025V173.121C179.65 168.382 175.788 164.526 171.04 164.526H130.426C125.679 164.526 121.816 168.382 121.816 173.121V238.839C121.816 239.398 121.364 239.849 120.804 239.849C120.245 239.849 119.792 239.398 119.792 238.839V173.121C119.792 167.27 124.562 162.506 130.424 162.506H171.037C176.899 162.506 181.668 167.267 181.668 173.121V265.025C181.668 268.873 178.533 272.043 174.679 272.089L171.048 272.135H143.897H143.902Z" fill="#1C4778"/>
<path d="M162.293 260.834H154.366C153.807 260.834 153.354 260.382 153.354 259.823C153.354 259.265 153.807 258.813 154.366 258.813H162.293C162.853 258.813 163.305 259.265 163.305 259.823C163.305 260.382 162.853 260.834 162.293 260.834Z" fill="#1C4778"/>
<path d="M180.756 259.823H130.187L120.807 238.084V174.817H180.756V259.823Z" fill="white"/>
<path d="M180.756 260.834H130.187C129.783 260.834 129.417 260.595 129.258 260.224L119.878 238.484C119.825 238.358 119.795 238.221 119.795 238.084V174.817C119.795 174.258 120.247 173.807 120.807 173.807H180.756C181.316 173.807 181.768 174.258 181.768 174.817V259.823C181.768 260.38 181.316 260.834 180.756 260.834ZM130.854 258.813H179.744V175.824H121.819V237.875L130.854 258.813Z" fill="#1C4778"/>
<path d="M150.948 221.958C152.875 221.958 154.437 220.4 154.437 218.478C154.437 216.556 152.875 214.999 150.948 214.999C149.022 214.999 147.46 216.556 147.46 218.478C147.46 220.4 149.022 221.958 150.948 221.958Z" fill="white"/>
<path d="M176.511 252.561H168.903C168.16 252.558 167.557 251.956 167.557 251.215C167.557 250.473 168.16 249.871 168.903 249.871H175.166V243.627C175.166 242.885 175.769 242.284 176.511 242.284C177.254 242.284 177.857 242.885 177.857 243.627V251.217C177.857 251.575 177.712 251.916 177.459 252.169C177.206 252.421 176.864 252.561 176.509 252.561H176.511Z" fill="#1C4778"/>
<path d="M127.506 194.017C126.763 194.017 126.16 193.415 126.16 192.674V185.083C126.16 184.726 126.306 184.385 126.559 184.132C126.812 183.88 127.153 183.74 127.509 183.74H135.117C135.86 183.743 136.463 184.344 136.463 185.086C136.463 185.828 135.86 186.429 135.117 186.429H128.854V192.674C128.854 193.415 128.252 194.017 127.509 194.017H127.506Z" fill="#1C4778"/>
<path d="M158.776 215.926L152.799 218.105L153.025 218.723L159.002 216.544L158.776 215.926Z" fill="#1C4778"/>
<path d="M163.245 228.147L157.267 230.326L157.493 230.944L163.471 228.765L163.245 228.147Z" fill="#1C4778"/>
<path d="M149.22 200.267L149.794 201.835C150.387 203.456 151.883 204.487 153.509 204.571C156.616 204.301 159.64 206.122 160.758 209.184L161.371 210.858C162.163 213.02 161.048 215.414 158.882 216.203C161.048 215.414 163.446 216.526 164.237 218.689L165.843 223.078C166.634 225.241 165.52 227.634 163.353 228.424C165.52 227.634 167.917 228.746 168.708 230.909L169.321 232.583C170.662 236.246 168.772 240.298 165.105 241.636L155.817 245.023C152.147 246.361 148.089 244.475 146.748 240.814L146.135 239.14C145.344 236.977 146.458 234.584 148.625 233.794C146.458 234.584 144.061 233.472 143.27 231.309L141.663 226.919C140.872 224.756 141.986 222.363 144.153 221.573C141.986 222.363 139.589 221.251 138.798 219.088L138.185 217.414C137.064 214.35 138.203 211.013 140.752 209.221C141.943 208.113 142.422 206.363 141.828 204.74L141.255 203.171L149.22 200.267Z" fill="white"/>
<path d="M153.384 245.784C152.321 245.784 151.262 245.552 150.268 245.091C148.475 244.26 147.115 242.779 146.436 240.925L145.823 239.252C145.41 238.124 145.463 236.902 145.97 235.812C146.227 235.259 146.588 234.772 147.027 234.375C146.434 234.353 145.845 234.213 145.291 233.956C144.199 233.45 143.373 232.55 142.96 231.42L141.354 227.031C140.941 225.904 140.993 224.682 141.501 223.591C141.76 223.037 142.121 222.55 142.562 222.152C140.785 222.087 139.137 220.968 138.491 219.2L137.878 217.526C136.735 214.402 137.831 210.884 140.545 208.964C141.666 207.909 142.048 206.297 141.521 204.851L140.833 202.974L149.418 199.843L150.106 201.721C150.635 203.169 151.969 204.154 153.51 204.239C156.823 203.963 159.93 205.948 161.073 209.07L161.686 210.744C162.332 212.512 161.793 214.429 160.475 215.622C162.253 215.686 163.903 216.804 164.549 218.575L166.155 222.964C166.801 224.732 166.263 226.647 164.947 227.841C165.542 227.862 166.131 228.001 166.687 228.26C167.779 228.766 168.605 229.666 169.018 230.795L169.631 232.469C170.31 234.323 170.225 236.33 169.39 238.12C168.555 239.91 167.074 241.268 165.217 241.945L155.929 245.33C155.1 245.633 154.241 245.782 153.386 245.782L153.384 245.784ZM148.735 234.105C147.77 234.456 147.003 235.163 146.57 236.091C146.137 237.021 146.093 238.063 146.445 239.026L147.058 240.699C147.676 242.389 148.915 243.735 150.547 244.494C152.18 245.253 154.01 245.33 155.702 244.714L164.991 241.329C168.482 240.057 170.286 236.185 169.012 232.699L168.399 231.026C168.047 230.063 167.34 229.293 166.408 228.861C165.476 228.428 164.432 228.385 163.468 228.736L163.242 228.117C164.206 227.766 164.977 227.06 165.41 226.13C165.843 225.199 165.887 224.157 165.536 223.194L163.929 218.805C163.202 216.818 160.989 215.789 158.998 216.515L158.772 215.896C160.765 215.17 161.793 212.961 161.066 210.974L160.453 209.3C159.409 206.448 156.568 204.639 153.54 204.902L153.472 204.909L153.448 204.9C151.655 204.792 150.104 203.638 149.486 201.952L149.025 200.692L141.679 203.371L142.14 204.63C142.762 206.332 142.307 208.23 140.98 209.465L140.945 209.493C138.462 211.239 137.456 214.451 138.497 217.305L139.11 218.978C139.838 220.966 142.05 221.995 144.041 221.268L144.267 221.887C143.303 222.238 142.532 222.944 142.099 223.874C141.666 224.805 141.622 225.847 141.973 226.81L143.58 231.199C143.931 232.162 144.639 232.932 145.57 233.364C146.5 233.796 147.544 233.84 148.508 233.491C148.508 233.491 148.511 233.491 148.513 233.491L148.739 234.11C148.739 234.11 148.739 234.11 148.737 234.11L148.735 234.105Z" fill="#1C4778"/>
<path d="M158.776 215.926L152.799 218.105L153.025 218.723L159.002 216.544L158.776 215.926Z" fill="#1C4778"/>
<path d="M163.245 228.147L157.267 230.326L157.493 230.944L163.471 228.765L163.245 228.147Z" fill="#1C4778"/>
<path d="M149.71 200.089L140.765 203.349C139.719 203.731 138.552 203.189 138.17 202.145L137.113 199.256C136.73 198.211 137.273 197.047 138.319 196.665L147.264 193.405C148.31 193.024 149.477 193.565 149.86 194.609L150.917 197.498C151.299 198.543 150.756 199.707 149.71 200.089Z" fill="#FF897D"/>
<path d="M140.075 203.801C139.115 203.801 138.212 203.208 137.862 202.259L136.805 199.37C136.59 198.782 136.618 198.146 136.884 197.575C137.15 197.005 137.62 196.573 138.209 196.358L147.155 193.098C147.744 192.883 148.381 192.912 148.952 193.177C149.524 193.443 149.956 193.912 150.172 194.5L151.229 197.389C151.444 197.977 151.415 198.613 151.15 199.183C150.884 199.754 150.413 200.186 149.825 200.401L140.879 203.66C140.613 203.757 140.343 203.803 140.075 203.803V203.801ZM147.957 193.614C147.761 193.614 147.568 193.649 147.379 193.717L138.433 196.976C138.012 197.13 137.673 197.441 137.482 197.852C137.291 198.262 137.271 198.72 137.425 199.144L138.482 202.033C138.636 202.454 138.948 202.792 139.359 202.983C139.769 203.173 140.229 203.193 140.653 203.04L149.598 199.78C150.02 199.626 150.359 199.315 150.55 198.905C150.741 198.494 150.761 198.036 150.607 197.613L149.55 194.724C149.396 194.302 149.084 193.965 148.673 193.774C148.445 193.668 148.201 193.614 147.957 193.614Z" fill="#1C4778"/>
<path d="M149.866 200.51L140.921 203.77C139.64 204.237 138.218 203.577 137.75 202.298L136.693 199.409C136.225 198.13 136.886 196.711 138.167 196.244L147.113 192.984C148.394 192.517 149.816 193.177 150.284 194.456L151.341 197.345C151.809 198.624 151.147 200.043 149.866 200.51ZM138.477 197.088C137.662 197.384 137.24 198.288 137.539 199.102L138.596 201.991C138.893 202.805 139.798 203.226 140.613 202.928L149.559 199.668C150.374 199.372 150.796 198.468 150.497 197.654L149.44 194.765C149.143 193.951 148.238 193.53 147.423 193.829L138.477 197.088Z" fill="#1C4778"/>
<path d="M140.075 204.25C138.93 204.25 137.855 203.546 137.44 202.412L136.383 199.523C136.126 198.823 136.159 198.062 136.476 197.384C136.792 196.707 137.352 196.191 138.053 195.937L146.999 192.677C147.702 192.42 148.462 192.453 149.141 192.769C149.82 193.085 150.336 193.644 150.591 194.344L151.648 197.233C151.905 197.933 151.872 198.694 151.556 199.372C151.24 200.05 150.679 200.565 149.978 200.82L141.033 204.079C140.716 204.193 140.393 204.248 140.075 204.248V204.25ZM147.959 193.164C147.713 193.164 147.465 193.208 147.225 193.293L138.28 196.553C137.743 196.748 137.315 197.141 137.073 197.661C136.832 198.179 136.807 198.76 137.003 199.295L138.06 202.184C138.255 202.719 138.649 203.147 139.17 203.388C139.688 203.63 140.27 203.654 140.807 203.459L149.752 200.199C150.288 200.004 150.717 199.611 150.958 199.091C151.2 198.571 151.224 197.992 151.029 197.457L149.972 194.568C149.776 194.033 149.383 193.605 148.862 193.364C148.574 193.23 148.267 193.162 147.959 193.162V193.164ZM140.073 203.353C139.295 203.353 138.565 202.875 138.284 202.105L137.227 199.216C137.053 198.74 137.075 198.225 137.291 197.764C137.506 197.303 137.886 196.954 138.363 196.779L147.309 193.519C147.785 193.346 148.302 193.368 148.763 193.583C149.225 193.798 149.574 194.177 149.75 194.653L150.807 197.542C151.167 198.527 150.657 199.62 149.671 199.979L140.725 203.239C140.51 203.318 140.29 203.355 140.075 203.355L140.073 203.353ZM138.587 197.398C138.275 197.512 138.027 197.74 137.886 198.04C137.746 198.341 137.73 198.679 137.845 198.99L138.901 201.879C139.137 202.522 139.853 202.855 140.497 202.621L149.442 199.361C150.086 199.126 150.42 198.411 150.185 197.768L149.128 194.879C149.014 194.568 148.785 194.32 148.484 194.18C148.183 194.039 147.845 194.024 147.533 194.138L138.587 197.398Z" fill="#1C4778"/>
<path d="M149.866 200.51L140.921 203.77C139.64 204.237 138.218 203.577 137.75 202.298L136.693 199.409C136.225 198.13 136.886 196.711 138.167 196.244L147.113 192.984C148.394 192.517 149.816 193.177 150.284 194.456L151.341 197.345C151.809 198.624 151.147 200.043 149.866 200.51ZM138.477 197.088C137.662 197.384 137.24 198.288 137.539 199.102L138.596 201.991C138.893 202.805 139.798 203.226 140.613 202.928L149.559 199.668C150.374 199.372 150.796 198.468 150.497 197.654L149.44 194.765C149.143 193.951 148.238 193.53 147.423 193.829L138.477 197.088Z" fill="#1C4778"/>
<path d="M140.075 204.25C138.93 204.25 137.855 203.546 137.44 202.412L136.383 199.523C136.126 198.823 136.159 198.062 136.476 197.384C136.792 196.707 137.352 196.191 138.053 195.937L146.999 192.677C147.702 192.42 148.462 192.453 149.141 192.769C149.82 193.085 150.336 193.644 150.591 194.344L151.648 197.233C151.905 197.933 151.872 198.694 151.556 199.372C151.24 200.05 150.679 200.565 149.978 200.82L141.033 204.079C140.716 204.193 140.393 204.248 140.075 204.248V204.25ZM147.959 193.164C147.713 193.164 147.465 193.208 147.225 193.293L138.28 196.553C137.743 196.748 137.315 197.141 137.073 197.661C136.832 198.179 136.807 198.76 137.003 199.295L138.06 202.184C138.255 202.719 138.649 203.147 139.17 203.388C139.688 203.63 140.27 203.654 140.807 203.459L149.752 200.199C150.288 200.004 150.717 199.611 150.958 199.091C151.2 198.571 151.224 197.992 151.029 197.457L149.972 194.568C149.776 194.033 149.383 193.605 148.862 193.364C148.574 193.23 148.267 193.162 147.959 193.162V193.164ZM140.073 203.353C139.295 203.353 138.565 202.875 138.284 202.105L137.227 199.216C137.053 198.74 137.075 198.225 137.291 197.764C137.506 197.303 137.886 196.954 138.363 196.779L147.309 193.519C147.785 193.346 148.302 193.368 148.763 193.583C149.225 193.798 149.574 194.177 149.75 194.653L150.807 197.542C151.167 198.527 150.657 199.62 149.671 199.979L140.725 203.239C140.51 203.318 140.29 203.355 140.075 203.355L140.073 203.353ZM138.587 197.398C138.275 197.512 138.027 197.74 137.886 198.04C137.746 198.341 137.73 198.679 137.845 198.99L138.901 201.879C139.137 202.522 139.853 202.855 140.497 202.621L149.442 199.361C150.086 199.126 150.42 198.411 150.185 197.768L149.128 194.879C149.014 194.568 148.785 194.32 148.484 194.18C148.183 194.039 147.845 194.024 147.533 194.138L138.587 197.398Z" fill="#1C4778"/>
<path d="M159.038 216.625L148.921 220.312C148.688 220.398 148.431 220.277 148.346 220.044C148.26 219.812 148.381 219.555 148.614 219.47L158.73 215.782C158.963 215.697 159.22 215.817 159.306 216.05C159.392 216.282 159.271 216.539 159.038 216.625Z" fill="#1C4778"/>
<path d="M148.768 220.67C148.449 220.67 148.15 220.474 148.036 220.159C147.963 219.963 147.974 219.753 148.062 219.564C148.15 219.375 148.306 219.233 148.502 219.163L158.618 215.475C158.814 215.405 159.025 215.414 159.214 215.501C159.403 215.589 159.546 215.745 159.616 215.94C159.763 216.342 159.554 216.789 159.152 216.936L149.036 220.624C148.948 220.656 148.858 220.67 148.77 220.67H148.768ZM158.884 216.085C158.871 216.085 158.858 216.085 158.842 216.092L148.726 219.779C148.686 219.794 148.666 219.825 148.658 219.84C148.649 219.858 148.64 219.891 148.653 219.933C148.669 219.972 148.699 219.992 148.715 220.001C148.732 220.009 148.765 220.018 148.807 220.005L158.924 216.317C158.985 216.296 159.018 216.225 158.994 216.164C158.979 216.124 158.948 216.105 158.932 216.096C158.921 216.092 158.904 216.085 158.882 216.085H158.884Z" fill="#1C4778"/>
<path d="M163.507 228.845L153.391 232.533C153.158 232.618 152.901 232.498 152.815 232.265C152.729 232.033 152.85 231.776 153.083 231.69L163.2 228.003C163.433 227.917 163.69 228.038 163.775 228.27C163.861 228.503 163.74 228.76 163.507 228.845Z" fill="#1C4778"/>
<path d="M153.237 232.89C153.125 232.89 153.013 232.866 152.91 232.818C152.721 232.73 152.578 232.574 152.507 232.379C152.435 232.184 152.446 231.973 152.534 231.785C152.622 231.596 152.778 231.453 152.973 231.383L163.09 227.696C163.494 227.549 163.942 227.757 164.087 228.159C164.16 228.354 164.149 228.564 164.061 228.753C163.973 228.942 163.817 229.084 163.622 229.154L153.505 232.842C153.417 232.873 153.327 232.89 153.237 232.89ZM163.353 228.306C163.34 228.306 163.327 228.308 163.312 228.312L153.195 232C153.156 232.015 153.136 232.046 153.127 232.061C153.118 232.079 153.109 232.111 153.123 232.151C153.138 232.193 153.169 232.21 153.184 232.219C153.202 232.228 153.235 232.237 153.276 232.223L163.393 228.536C163.433 228.521 163.452 228.49 163.461 228.474C163.47 228.457 163.479 228.424 163.466 228.382C163.448 228.334 163.402 228.303 163.353 228.303V228.306Z" fill="#1C4778"/>
<path d="M165.256 242.057L155.968 245.444C152.072 246.864 147.746 244.856 146.324 240.967L145.711 239.293C145.08 237.569 145.548 235.707 146.757 234.476C145.039 234.312 143.479 233.189 142.848 231.464L141.242 227.075C140.611 225.351 141.079 223.488 142.288 222.258C140.569 222.093 139.009 220.97 138.378 219.246L137.765 217.572C136.605 214.4 137.717 210.831 140.468 208.879C141.551 207.857 141.921 206.297 141.409 204.898L140.835 203.329C140.749 203.097 140.87 202.84 141.103 202.754C141.336 202.669 141.593 202.789 141.679 203.022L142.252 204.59C142.89 206.332 142.426 208.271 141.075 209.541C141.057 209.561 141.035 209.577 141.013 209.592C138.572 211.307 137.585 214.462 138.609 217.265L139.222 218.939C139.928 220.865 142.07 221.861 143.999 221.157C144.232 221.071 144.489 221.192 144.575 221.424C144.661 221.657 144.54 221.913 144.307 221.999C142.378 222.703 141.38 224.842 142.085 226.768L143.692 231.157C144.397 233.083 146.539 234.079 148.469 233.375C148.702 233.289 148.959 233.41 149.044 233.643C149.13 233.875 149.009 234.132 148.776 234.217C146.847 234.922 145.849 237.06 146.555 238.986L147.168 240.66C148.42 244.084 152.231 245.852 155.661 244.602L164.949 241.215C168.379 239.965 170.15 236.161 168.897 232.737L168.284 231.063C167.579 229.137 165.437 228.141 163.505 228.845C163.272 228.931 163.015 228.81 162.929 228.578C162.844 228.345 162.965 228.088 163.197 228.003C165.127 227.299 166.124 225.16 165.419 223.232L163.813 218.842C163.107 216.916 160.965 215.92 159.034 216.625C158.801 216.71 158.544 216.589 158.458 216.357C158.372 216.124 158.493 215.868 158.726 215.782C160.655 215.078 161.653 212.939 160.947 211.011L160.334 209.337C159.31 206.536 156.518 204.759 153.545 205.016C153.518 205.018 153.494 205.016 153.47 205.016C151.615 204.917 150.007 203.731 149.37 201.989L148.796 200.42C148.71 200.188 148.831 199.931 149.064 199.846C149.297 199.76 149.554 199.881 149.64 200.113L150.213 201.682C150.725 203.081 152.015 204.035 153.503 204.121C156.867 203.845 160.02 205.858 161.18 209.03L161.793 210.704C162.424 212.428 161.956 214.291 160.747 215.523C162.466 215.688 164.026 216.811 164.657 218.535L166.263 222.925C166.893 224.649 166.425 226.511 165.217 227.744C166.935 227.909 168.495 229.032 169.126 230.756L169.739 232.43C171.161 236.319 169.15 240.638 165.254 242.057H165.256Z" fill="#1C4778"/>
<path d="M153.391 246.232C152.261 246.232 151.136 245.986 150.079 245.495C148.177 244.611 146.733 243.042 146.014 241.079L145.401 239.405C144.821 237.819 145.107 236.036 146.12 234.707C144.487 234.342 143.116 233.162 142.536 231.576L140.93 227.187C140.35 225.601 140.635 223.817 141.648 222.488C140.016 222.124 138.644 220.944 138.064 219.358L137.451 217.684C136.245 214.385 137.396 210.665 140.253 208.624C141.226 207.692 141.558 206.277 141.094 205.012L140.521 203.443C140.451 203.248 140.459 203.037 140.547 202.849C140.635 202.66 140.791 202.517 140.987 202.447C141.182 202.377 141.393 202.386 141.582 202.474C141.771 202.561 141.914 202.717 141.984 202.912L142.558 204.481C143.239 206.343 142.745 208.425 141.297 209.783C141.272 209.807 141.237 209.838 141.2 209.864C138.882 211.494 137.941 214.492 138.915 217.155L139.528 218.829C140.169 220.586 142.123 221.492 143.883 220.852C144.078 220.781 144.289 220.79 144.478 220.878C144.667 220.966 144.81 221.121 144.881 221.317C145.028 221.718 144.819 222.166 144.417 222.313C143.566 222.622 142.888 223.247 142.503 224.07C142.121 224.892 142.081 225.811 142.391 226.663L143.997 231.052C144.307 231.901 144.933 232.579 145.755 232.963C146.579 233.344 147.5 233.384 148.352 233.074C148.548 233.004 148.759 233.013 148.948 233.101C149.137 233.189 149.28 233.344 149.35 233.54C149.422 233.735 149.411 233.945 149.324 234.134C149.236 234.323 149.08 234.465 148.884 234.535C148.034 234.845 147.355 235.47 146.97 236.29C146.588 237.113 146.548 238.032 146.858 238.883L147.471 240.557C148.662 243.81 152.281 245.49 155.54 244.304L164.828 240.919C168.087 239.73 169.77 236.117 168.581 232.864L167.968 231.19C167.658 230.341 167.032 229.663 166.21 229.28C165.386 228.898 164.463 228.856 163.613 229.168C163.211 229.315 162.763 229.106 162.615 228.705C162.468 228.301 162.677 227.854 163.079 227.709C163.929 227.4 164.608 226.774 164.993 225.954C165.375 225.131 165.415 224.21 165.105 223.361L163.499 218.972C162.857 217.217 160.904 216.309 159.143 216.949C158.739 217.096 158.293 216.888 158.146 216.486C158.073 216.291 158.084 216.081 158.172 215.892C158.26 215.703 158.416 215.561 158.612 215.49C159.462 215.181 160.141 214.556 160.526 213.736C160.908 212.913 160.948 211.992 160.638 211.143L160.025 209.469C159.051 206.806 156.392 205.119 153.573 205.363C153.529 205.367 153.485 205.367 153.444 205.363C151.466 205.257 149.741 203.985 149.058 202.12L148.484 200.552C148.412 200.357 148.423 200.146 148.511 199.958C148.598 199.769 148.754 199.626 148.95 199.556C149.146 199.486 149.357 199.495 149.545 199.582C149.734 199.67 149.877 199.826 149.948 200.021L150.521 201.59C150.985 202.855 152.152 203.726 153.496 203.812C156.999 203.535 160.279 205.639 161.486 208.938L162.099 210.612C162.679 212.198 162.393 213.981 161.38 215.311C163.013 215.675 164.384 216.855 164.964 218.441L166.571 222.83C167.151 224.416 166.865 226.2 165.852 227.529C167.485 227.893 168.856 229.073 169.436 230.659L170.049 232.333C170.767 234.296 170.675 236.424 169.79 238.324C168.904 240.223 167.333 241.665 165.366 242.382L156.078 245.769C155.201 246.089 154.294 246.247 153.389 246.247L153.391 246.232ZM141.255 203.053C141.242 203.053 141.228 203.053 141.215 203.059C141.174 203.075 141.156 203.105 141.147 203.121C141.138 203.138 141.13 203.171 141.143 203.213L141.716 204.781C142.272 206.301 141.87 208.002 140.692 209.114L140.657 209.142C138.029 211.009 136.966 214.427 138.073 217.454L138.686 219.128C139.251 220.67 140.675 221.769 142.318 221.924L143.004 221.99L142.521 222.482C141.367 223.657 140.987 225.414 141.549 226.957L143.156 231.346C143.72 232.888 145.144 233.987 146.786 234.143L147.471 234.209L146.988 234.7C145.834 235.876 145.452 237.633 146.017 239.175L146.63 240.849C147.287 242.647 148.609 244.082 150.354 244.894C152.099 245.703 154.05 245.789 155.852 245.131L165.14 241.744C166.942 241.088 168.381 239.767 169.19 238.025C170.001 236.284 170.084 234.336 169.427 232.537L168.814 230.863C168.249 229.321 166.825 228.222 165.184 228.066L164.498 228.001L164.982 227.509C166.135 226.334 166.518 224.576 165.953 223.034L164.347 218.645C163.782 217.103 162.358 216.004 160.717 215.848L160.031 215.782L160.515 215.291C161.668 214.115 162.051 212.358 161.486 210.816L160.873 209.142C159.765 206.115 156.748 204.18 153.531 204.448H153.51H153.488C151.868 204.356 150.464 203.314 149.908 201.794L149.335 200.225C149.319 200.186 149.288 200.166 149.273 200.157C149.255 200.148 149.222 200.14 149.183 200.153C149.141 200.168 149.124 200.199 149.115 200.214C149.106 200.232 149.097 200.265 149.11 200.304L149.684 201.875C150.275 203.491 151.771 204.595 153.492 204.687C153.507 204.687 153.516 204.687 153.523 204.687C156.645 204.417 159.574 206.282 160.649 209.223L161.262 210.897C162.029 212.994 160.943 215.324 158.842 216.089C158.803 216.105 158.783 216.135 158.774 216.151C158.766 216.168 158.757 216.201 158.77 216.243C158.792 216.304 158.86 216.337 158.924 216.313C161.024 215.548 163.358 216.631 164.125 218.728L165.731 223.118C166.102 224.131 166.054 225.232 165.597 226.213C165.14 227.193 164.329 227.939 163.312 228.31C163.25 228.332 163.217 228.402 163.242 228.464C163.263 228.525 163.332 228.558 163.395 228.534C164.411 228.163 165.514 228.211 166.496 228.668C167.48 229.124 168.225 229.933 168.596 230.949L169.21 232.623C170.524 236.218 168.665 240.21 165.063 241.522L155.775 244.907C154.032 245.541 152.145 245.46 150.46 244.679C148.774 243.896 147.495 242.507 146.86 240.77L146.247 239.096C145.876 238.083 145.924 236.984 146.381 236.001C146.838 235.02 147.649 234.274 148.667 233.904C148.706 233.888 148.726 233.858 148.735 233.842C148.743 233.825 148.752 233.792 148.739 233.75C148.726 233.708 148.693 233.691 148.678 233.682C148.66 233.673 148.627 233.665 148.587 233.678C147.57 234.048 146.469 234 145.487 233.544C144.505 233.088 143.758 232.278 143.386 231.263L141.78 226.873C141.409 225.86 141.457 224.761 141.914 223.778C142.371 222.797 143.182 222.052 144.199 221.681C144.261 221.659 144.294 221.589 144.27 221.527C144.254 221.488 144.223 221.468 144.208 221.459C144.191 221.451 144.158 221.442 144.116 221.455C142.015 222.22 139.682 221.137 138.915 219.04L138.302 217.366C137.225 214.424 138.264 211.112 140.826 209.311L140.851 209.289C142.105 208.111 142.536 206.308 141.945 204.691L141.371 203.123C141.356 203.083 141.325 203.064 141.31 203.055C141.299 203.051 141.281 203.044 141.259 203.044L141.255 203.053Z" fill="#1C4778"/>
<path d="M117.424 255.691C117.424 255.691 122.287 250.019 125.762 246.067C129.237 242.114 136.186 240.913 142.091 238.506C147.996 236.099 152.34 238.506 151.99 242.633C151.64 246.76 143.227 253.63 135.486 257.754C135.486 257.754 135.658 265.146 124.887 278.892" fill="white"/>
<path d="M124.887 280.238C124.597 280.238 124.306 280.144 124.058 279.953C123.474 279.497 123.369 278.653 123.827 278.067C134.065 264.998 134.14 257.846 134.14 257.776C134.138 257.276 134.412 256.806 134.854 256.57C143.003 252.228 150.386 245.664 150.65 242.52C150.749 241.327 150.337 240.357 149.46 239.712C147.947 238.603 145.382 238.616 142.6 239.75C140.88 240.451 139.076 241.05 137.335 241.631C133.061 243.052 129.021 244.396 126.774 246.953C123.345 250.855 118.495 256.508 118.447 256.564C117.962 257.128 117.114 257.193 116.549 256.712C115.984 256.228 115.919 255.382 116.401 254.818C116.45 254.761 121.31 249.095 124.75 245.183C127.476 242.079 131.853 240.626 136.482 239.084C138.186 238.517 139.946 237.931 141.582 237.265C145.294 235.752 148.747 235.857 151.053 237.549C152.679 238.742 153.511 240.637 153.33 242.748C152.894 247.926 143.216 255.03 136.778 258.585C136.512 260.973 134.951 268.231 125.948 279.722C125.681 280.061 125.286 280.238 124.887 280.238Z" fill="#1C4778"/>
<defs>
<filter id="filter0_f_55075_32919" x="43.9628" y="48.9052" width="198.184" height="198.39" filterUnits="userSpaceOnUse" color-interpolation-filters="sRGB">
<feFlood flood-opacity="0" result="BackgroundImageFix"/>
<feBlend mode="normal" in="SourceGraphic" in2="BackgroundImageFix" result="shape"/>
<feGaussianBlur stdDeviation="12.5" result="effect1_foregroundBlur_55075_32919"/>
</filter>
</defs>
</svg>
