<svg width="288" height="289" viewBox="0 0 288 289" fill="none" xmlns="http://www.w3.org/2000/svg">
<g filter="url(#filter0_f_55075_32918)">
<path d="M111.849 87.6408C75.4223 106.397 61.0716 151.082 79.796 187.447C98.5204 223.812 143.229 238.086 179.656 219.33C216.083 200.574 230.434 155.889 211.709 119.524C192.985 83.1592 148.276 68.8846 111.849 87.6408Z" fill="#F3FFF9"/>
</g>
<path fill-rule="evenodd" clip-rule="evenodd" d="M210.732 72.453C210.51 72.2795 210.239 72.2094 209.98 72.2407C209.723 72.2717 209.481 72.3984 209.309 72.614C208.961 73.0512 209.032 73.6867 209.47 74.0344C212.523 76.4641 215.468 79.0964 218.224 81.8542C218.619 82.2477 219.261 82.2486 219.656 81.8546C220.05 81.4605 220.052 80.8217 219.657 80.4255C216.847 77.6118 213.842 74.93 210.732 72.453ZM227.618 89.3533C227.391 89.0694 227.039 88.9387 226.702 88.9794C226.523 89.001 226.347 89.0683 226.197 89.1893C225.759 89.5372 225.683 90.1714 226.032 90.6084C228.458 93.6632 230.732 96.8907 232.793 100.195C233.089 100.668 233.713 100.815 234.187 100.519C234.661 100.224 234.808 99.6001 234.513 99.127C232.411 95.7569 230.092 92.4672 227.618 89.3533ZM240.245 109.623C240.053 109.221 239.628 109.002 239.208 109.053L239.208 109.05C239.104 109.062 238.996 109.092 238.896 109.139C238.391 109.379 238.174 109.981 238.414 110.485C240.084 114.011 241.566 117.666 242.816 121.353C242.997 121.881 243.568 122.166 244.099 121.986C244.628 121.808 244.914 121.232 244.733 120.705C243.458 116.945 241.948 113.217 240.245 109.623ZM247.912 132.232C247.801 131.717 247.315 131.378 246.802 131.44L246.802 131.437C246.772 131.441 246.745 131.447 246.716 131.453L246.709 131.454C246.162 131.572 245.815 132.109 245.932 132.655C246.578 135.67 247.094 138.753 247.465 141.82C247.561 142.623 247.648 143.433 247.727 144.243C247.781 144.8 248.274 145.206 248.832 145.152C249.384 145.099 249.796 144.605 249.742 144.049C249.662 143.222 249.573 142.399 249.474 141.578C249.096 138.451 248.57 135.305 247.912 132.232ZM249.221 154.972C249.172 154.97 249.126 154.973 249.08 154.978L249.081 154.981C248.586 155.041 248.2 155.455 248.191 155.965C248.123 159.865 247.828 163.801 247.318 167.662C247.247 168.217 247.636 168.723 248.19 168.796C248.746 168.867 249.252 168.479 249.326 167.926C249.846 163.99 250.148 159.978 250.215 156C250.223 155.441 249.78 154.98 249.221 154.972ZM52.6566 99.6719C52.5949 99.4183 52.6324 99.1405 52.7786 98.9C54.8707 95.5187 57.1787 92.218 59.6408 89.0958C59.9876 88.6569 60.6221 88.5829 61.06 88.9279C61.4979 89.2729 61.5729 89.9111 61.2287 90.3494C58.8159 93.4125 56.55 96.6476 54.498 99.9664C54.2044 100.442 53.5818 100.588 53.1065 100.294C52.8721 100.149 52.7177 99.923 52.6566 99.6719ZM67.3024 81.0888C67.2223 80.7593 67.3105 80.3944 67.5655 80.1357C70.3654 77.3109 73.358 74.6192 76.4563 72.1344C76.8911 71.7849 77.5281 71.8572 77.8774 72.2929C78.2267 72.7287 78.1551 73.3666 77.7202 73.7161C74.6822 76.1529 71.746 78.7921 68.9993 81.5625C68.6065 81.9599 67.9678 81.9602 67.5707 81.5665C67.4326 81.4311 67.345 81.264 67.3024 81.0888ZM85.7576 66.2991C85.6577 65.8885 85.8253 65.4406 86.2015 65.2023C89.5693 63.0869 93.0931 61.1468 96.6755 59.4363C97.1782 59.1949 97.7836 59.4105 98.0224 59.9147C98.2644 60.4209 98.0484 61.0219 97.5457 61.2632C94.0326 62.9403 90.5774 64.8443 87.2744 66.919C86.802 67.2167 86.1779 67.0722 85.8803 66.5989C85.8215 66.5051 85.7798 66.4017 85.755 66.2997L85.7576 66.2991ZM107.091 56.1136C106.969 55.6115 107.249 55.0893 107.746 54.9184C110.72 53.9014 113.782 53.0071 116.842 52.2629C117.646 52.0674 118.453 51.8823 119.264 51.7044C119.81 51.5854 120.349 51.9363 120.467 52.4782C120.586 53.0253 120.242 53.5634 119.695 53.6824C118.9 53.8565 118.106 54.0384 117.32 54.2296C114.318 54.9598 111.318 55.8362 108.4 56.834C107.872 57.0151 107.297 56.7338 107.116 56.2045L107.114 56.198L107.114 56.1977C107.104 56.1696 107.096 56.1433 107.089 56.1142L107.091 56.1136ZM130.195 51.0705C130.185 51.026 130.176 50.9809 130.173 50.932C130.115 50.3755 130.52 49.8808 131.076 49.8233C135.034 49.42 139.054 49.2457 143.023 49.2968C143.581 49.3052 144.027 49.7618 144.022 50.3225C144.014 50.8812 143.558 51.3271 142.999 51.322C139.104 51.272 135.161 51.4443 131.281 51.837C130.773 51.8884 130.316 51.5537 130.198 51.0699L130.195 51.0705ZM48.941 109.997C49.1975 109.892 49.4943 109.892 49.7622 110.02C50.2654 110.261 50.4782 110.865 50.2366 111.368C48.5447 114.888 47.0409 118.54 45.7641 122.22C45.5821 122.748 45.0048 123.028 44.4756 122.845C43.9474 122.664 43.6673 122.087 43.8519 121.559C45.1545 117.806 46.6877 114.084 48.4115 110.493C48.5244 110.258 48.7159 110.086 48.94 109.994L48.941 109.997ZM41.1888 132.354C41.373 132.279 41.5822 132.257 41.79 132.302C42.3371 132.423 42.6779 132.963 42.5575 133.506C41.7105 137.313 41.0751 141.209 40.6694 145.085C40.612 145.64 40.1147 146.044 39.558 145.985C39.0024 145.928 38.5981 145.432 38.6579 144.876C39.072 140.922 39.7202 136.95 40.5826 133.068C40.6572 132.732 40.8915 132.473 41.1878 132.352L41.1888 132.354ZM38.7289 155.883C38.8434 155.836 38.9686 155.808 39.1025 155.808C39.6616 155.802 40.118 156.248 40.1256 156.805C40.1683 160.703 40.4362 164.638 40.9274 168.509C40.9979 169.063 40.6054 169.567 40.0498 169.638C39.4967 169.708 38.9903 169.318 38.9198 168.763C38.421 164.818 38.1469 160.803 38.1026 156.831C38.0996 156.405 38.3589 156.038 38.7324 155.884L38.7289 155.883ZM127.897 257.601C127.834 257.892 127.646 258.134 127.396 258.283L127.398 258.286C127.18 258.416 126.916 258.474 126.649 258.432C122.573 257.791 118.508 256.92 114.565 255.843C114.008 255.692 113.706 255.135 113.89 254.601C114.072 254.065 114.67 253.754 115.224 253.907C119.092 254.964 123.079 255.819 127.076 256.446C127.647 256.535 128.015 257.053 127.897 257.601ZM104.328 251.4C104.234 251.596 104.084 251.754 103.904 251.861L103.906 251.863C103.617 252.035 103.254 252.079 102.928 251.948C99.1541 250.439 95.4418 248.703 91.8923 246.787C91.3921 246.519 91.2353 245.906 91.5396 245.421C91.8425 244.934 92.4934 244.759 92.9911 245.028C96.4697 246.906 100.112 248.609 103.812 250.088C104.34 250.3 104.573 250.885 104.328 251.4ZM83.0842 240.194C82.9997 240.303 82.8971 240.389 82.7856 240.456L82.7866 240.452C82.4229 240.669 81.9531 240.671 81.6011 240.426C78.3265 238.125 75.162 235.614 72.1971 232.958C71.7804 232.585 71.7761 231.949 72.1842 231.538C72.5947 231.126 73.2619 231.093 73.6786 231.466C76.5857 234.073 79.6885 236.535 82.902 238.791C83.3606 239.115 83.4426 239.741 83.0842 240.194ZM138.791 260.405C138.513 260.391 138.269 260.273 138.103 260.09C137.939 259.908 137.851 259.668 137.873 259.407C137.92 258.878 138.404 258.468 138.957 258.492C142.817 258.649 146.736 258.595 150.606 258.335C151.159 258.298 151.623 258.696 151.639 259.222C151.656 259.748 151.221 260.206 150.666 260.244C146.721 260.512 142.724 260.564 138.791 260.405ZM162.497 258.803C162.14 258.865 161.797 258.74 161.581 258.502C161.467 258.376 161.385 258.218 161.359 258.038C161.28 257.518 161.658 257.018 162.207 256.922C166.04 256.244 169.881 255.349 173.62 254.266C174.156 254.111 174.707 254.394 174.848 254.899C174.989 255.404 174.67 255.941 174.134 256.096C170.321 257.201 166.405 258.113 162.497 258.803ZM185.424 252.152C185.011 252.32 184.555 252.213 184.287 251.916L184.285 251.918C184.218 251.844 184.16 251.757 184.12 251.661C183.919 251.176 184.172 250.611 184.689 250.399C188.296 248.916 191.857 247.223 195.272 245.364C195.762 245.099 196.369 245.249 196.629 245.708C196.89 246.163 196.704 246.752 196.214 247.017C192.732 248.912 189.102 250.64 185.424 252.152ZM168.624 51.6226C168.35 51.5618 168.075 51.6158 167.854 51.756C167.636 51.8947 167.473 52.1136 167.411 52.3823C167.285 52.9271 167.624 53.4694 168.169 53.5939C171.972 54.4667 175.765 55.5689 179.442 56.8656C179.968 57.0501 180.548 56.7733 180.734 56.2477C180.919 55.722 180.644 55.1451 180.117 54.9583C176.368 53.6341 172.499 52.5132 168.624 51.6226ZM191.153 59.5719C190.826 59.4139 190.452 59.448 190.166 59.6301C190.014 59.7269 189.884 59.8637 189.801 60.038C189.556 60.5408 189.762 61.1453 190.265 61.389C193.773 63.0962 197.218 65.025 200.504 67.1154C200.975 67.4144 201.602 67.2766 201.901 66.8054C202.201 66.3343 202.064 65.708 201.593 65.409C198.243 63.2771 194.73 61.3118 191.153 59.5719Z" fill="#1C4778"/>
<path d="M127.011 53.6837C128.528 47.3192 124.548 40.9421 118.121 39.4399C111.694 37.9377 105.255 41.8794 103.738 48.2439C102.221 54.6084 106.201 60.9856 112.628 62.4878C119.055 63.9899 125.494 60.0482 127.011 53.6837Z" fill="white"/>
<path d="M165.713 51.6494C169.863 51.6494 173.23 48.3174 173.23 44.2061C173.23 40.0947 169.865 36.7627 165.713 36.7627C164.875 36.7627 164.068 36.9011 163.314 37.1524C164.257 35.5428 164.8 33.6747 164.8 31.6809C164.8 25.6505 159.863 20.7617 153.774 20.7617C151.613 20.7617 149.6 21.3789 147.899 22.4422C147.359 20.2828 145.393 18.6787 143.045 18.6787C141.087 18.6787 139.398 19.7948 138.574 21.4171C136.373 17.5461 132.189 14.9315 127.384 14.9315C121.061 14.9315 115.807 19.458 114.744 25.4192L141.679 51.6494H165.713Z" fill="white"/>
<path d="M165.712 52.4141H141.679C141.253 52.4141 140.907 52.0717 140.907 51.6493C140.907 51.2269 141.253 50.8846 141.679 50.8846H165.712C169.429 50.8846 172.456 47.8894 172.456 44.206C172.456 40.5225 169.431 37.5273 165.712 37.5273C164.978 37.5273 164.255 37.6457 163.559 37.8769C163.253 37.9789 162.917 37.8824 162.715 37.6366C162.511 37.3908 162.483 37.0448 162.645 36.7699C163.549 35.2277 164.026 33.4688 164.026 31.6826C164.026 26.0837 159.425 21.5281 153.772 21.5281C151.834 21.5281 149.946 22.0689 148.309 23.0903C148.1 23.2214 147.839 23.2451 147.609 23.1522C147.379 23.0612 147.208 22.8645 147.147 22.6278C146.679 20.7543 144.991 19.4451 143.044 19.4451C141.435 19.4451 139.986 20.3318 139.262 21.7611C139.133 22.0142 138.876 22.1763 138.591 22.1817C138.313 22.189 138.039 22.0379 137.899 21.7921C135.761 18.0322 131.731 15.6943 127.381 15.6943C121.516 15.6943 116.518 19.8384 115.502 25.5502C115.428 25.9653 115.027 26.2439 114.608 26.1693C114.189 26.0964 113.908 25.6995 113.983 25.2844C115.132 18.8424 120.767 14.1667 127.383 14.1667C131.872 14.1667 136.061 16.3734 138.587 19.9986C139.67 18.6895 141.286 17.9157 143.044 17.9157C145.364 17.9157 147.412 19.2758 148.322 21.3205C149.999 20.4538 151.865 19.9986 153.77 19.9986C160.275 19.9986 165.566 25.2388 165.566 31.6808C165.566 33.1847 165.272 34.6723 164.706 36.0579C165.037 36.0179 165.371 35.9979 165.708 35.9979C170.277 35.9979 173.994 39.6795 173.994 44.2041C173.994 48.7288 170.277 52.4104 165.708 52.4104L165.712 52.4141Z" fill="#1C4778"/>
<path d="M171.739 91.8499C173.502 90.1035 173.502 87.2721 171.739 85.5257C169.975 83.7794 167.116 83.7794 165.353 85.5257C163.589 87.2721 163.589 90.1035 165.353 91.8499C167.116 93.5963 169.975 93.5963 171.739 91.8499Z" fill="#FFD766"/>
<path d="M168.712 94.1667C165.796 94.1667 163.424 91.8179 163.424 88.9301C163.424 86.0423 165.796 83.6935 168.712 83.6935C171.628 83.6935 174 86.0423 174 88.9301C174 91.8179 171.628 94.1667 168.712 94.1667ZM168.712 85.2212C166.647 85.2212 164.967 86.8854 164.967 88.9301C164.967 90.9748 166.647 92.639 168.712 92.639C170.777 92.639 172.457 90.9748 172.457 88.9301C172.457 86.8854 170.777 85.2212 168.712 85.2212Z" fill="#1C4778"/>
<path d="M161.542 61.5634C161.115 61.5634 160.769 61.2211 160.769 60.7987V51.6493C160.769 51.2268 161.115 50.8845 161.542 50.8845C161.968 50.8845 162.314 51.2268 162.314 51.6493V60.7987C162.314 61.2211 161.968 61.5634 161.542 61.5634Z" fill="#1C4778"/>
<path d="M164.736 68.4349C166.499 66.6886 166.499 63.8572 164.736 62.1108C162.972 60.3644 160.113 60.3644 158.35 62.1108C156.586 63.8572 156.586 66.6886 158.35 68.435C160.113 70.1813 162.972 70.1813 164.736 68.4349Z" fill="#FFD766"/>
<path d="M161.542 70.509C158.626 70.509 156.254 68.1602 156.254 65.2724C156.254 62.3846 158.626 60.0358 161.542 60.0358C164.458 60.0358 166.83 62.3846 166.83 65.2724C166.83 68.1602 164.458 70.509 161.542 70.509ZM161.542 61.5634C159.477 61.5634 157.797 63.2276 157.797 65.2724C157.797 67.3171 159.477 68.9813 161.542 68.9813C163.606 68.9813 165.287 67.3171 165.287 65.2724C165.287 63.2276 163.606 61.5634 161.542 61.5634Z" fill="#1C4778"/>
<path d="M118.418 92.0924C120.181 90.3461 120.181 87.5147 118.418 85.7683C116.654 84.0219 113.795 84.0219 112.032 85.7683C110.268 87.5146 110.268 90.3461 112.032 92.0924C113.795 93.8388 116.654 93.8388 118.418 92.0924Z" fill="#FFD766"/>
<path d="M115.224 94.1667C112.308 94.1667 109.936 91.8179 109.936 88.9301C109.936 86.0423 112.308 83.6935 115.224 83.6935C118.14 83.6935 120.512 86.0423 120.512 88.9301C120.512 91.8179 118.14 94.1667 115.224 94.1667ZM115.224 85.2212C113.159 85.2212 111.479 86.8854 111.479 88.9301C111.479 90.9748 113.159 92.639 115.224 92.639C117.289 92.639 118.969 90.9748 118.969 88.9301C118.969 86.8854 117.289 85.2212 115.224 85.2212Z" fill="#1C4778"/>
<path d="M135.735 89.693H119.741C119.315 89.693 118.969 89.3507 118.969 88.9282C118.969 88.5058 119.315 88.1635 119.741 88.1635H134.965V73.4279C134.965 73.0055 135.31 72.6632 135.737 72.6632C136.164 72.6632 136.509 73.0055 136.509 73.4279V88.9264C136.509 89.3488 136.164 89.6911 135.737 89.6911L135.735 89.693Z" fill="#1C4778"/>
<path d="M164.195 89.6927H148.142C147.715 89.6927 147.37 89.3504 147.37 88.928V51.6493C147.37 51.2268 147.715 50.8845 148.142 50.8845C148.569 50.8845 148.914 51.2268 148.914 51.6493V88.1633H164.195C164.621 88.1633 164.967 88.5056 164.967 88.928C164.967 89.3504 164.621 89.6927 164.195 89.6927Z" fill="#1C4778"/>
<path d="M115.226 63.459C108.623 63.459 103.269 58.1587 103.269 51.6184C103.269 45.0782 108.622 39.7779 115.226 39.7779C121.83 39.7779 127.182 45.0782 127.182 51.6184C127.182 58.1587 121.83 63.459 115.226 63.459ZM141.681 55.7006V47.5981L135.961 46.695C135.423 44.4627 134.525 42.367 133.334 40.4716L136.846 35.9779L131.062 30.2497L126.371 33.6182C124.452 32.4492 122.33 31.5752 120.072 31.0545L119.348 25.4192H111.166L110.254 31.0836C108 31.6171 105.884 32.5057 103.972 33.6855L99.4341 30.2078L93.6499 35.936L97.0513 40.5808C95.8709 42.4817 94.9884 44.5829 94.4626 46.8188L88.7721 47.5362V55.6387L94.492 56.5418C95.0307 58.7741 95.9279 60.8698 97.1193 62.7653L93.6076 67.259L99.3918 72.9871L104.082 69.6187C106.002 70.7876 108.123 71.6634 110.381 72.1824L111.105 77.8177H119.287L120.199 72.1532C122.453 71.6197 124.569 70.7312 126.483 69.5513L131.021 73.029L136.805 67.3008L133.404 62.656C134.584 60.7551 135.469 58.6539 135.993 56.418L141.683 55.7006H141.681Z" fill="#5FDBB9"/>
<path d="M119.285 78.5824H111.104C110.716 78.5824 110.387 78.2965 110.339 77.9142L109.681 72.7996C107.73 72.3007 105.864 71.5396 104.121 70.5327L99.8423 73.6044C99.5353 73.8247 99.1124 73.7919 98.844 73.5261L93.0598 67.7979C92.784 67.5266 92.7564 67.0932 92.9954 66.7892L96.1835 62.7106C95.1576 60.9882 94.3799 59.1437 93.8669 57.2155L88.6508 56.3925C88.2758 56.3342 88 56.0138 88 55.6369V47.5344C88 47.1502 88.2886 46.8243 88.6747 46.7769L93.8393 46.1251C94.3431 44.1932 95.1117 42.3451 96.1266 40.619L93.0249 36.3821C92.8024 36.078 92.8355 35.6592 93.1039 35.3934L98.8881 29.6652C99.1621 29.3921 99.5996 29.3666 99.9067 29.6015L104.025 32.7587C105.764 31.7427 107.625 30.9725 109.574 30.4645L110.405 25.299C110.464 24.9275 110.787 24.6544 111.168 24.6544H119.35C119.738 24.6544 120.067 24.9403 120.115 25.3226L120.773 30.4372C122.724 30.9361 124.588 31.6972 126.333 32.7023L130.611 29.6306C130.918 29.4103 131.341 29.4431 131.609 29.7089L137.394 35.4371C137.669 35.7084 137.697 36.1417 137.458 36.4458L134.27 40.5244C135.296 42.2468 136.072 44.0913 136.587 46.0195L141.803 46.8425C142.178 46.9007 142.453 47.2212 142.453 47.5981V55.7006C142.453 56.0848 142.165 56.4107 141.779 56.458L136.614 57.1099C136.11 59.0417 135.342 60.8898 134.325 62.6159L137.427 66.8529C137.649 67.157 137.616 67.5758 137.348 67.8416L131.564 73.5698C131.29 73.8429 130.852 73.8684 130.545 73.6335L126.427 70.4763C124.687 71.4923 122.825 72.2606 120.878 72.7705L120.047 77.936C119.988 78.3074 119.664 78.5806 119.284 78.5806L119.285 78.5824ZM118.627 77.0529L119.434 72.033C119.484 71.7271 119.714 71.4813 120.017 71.4103C122.159 70.9041 124.196 70.0611 126.072 68.9031C126.346 68.7338 126.697 68.752 126.952 68.9468L130.953 72.013L135.792 67.2207L132.777 63.1039C132.593 62.8526 132.58 62.5176 132.744 62.2554C133.9 60.3928 134.741 58.3699 135.239 56.245C135.312 55.9337 135.574 55.7006 135.893 55.6605L140.909 55.0269V48.2499L135.84 47.4506C135.531 47.4015 135.283 47.1739 135.211 46.8734C134.7 44.7522 133.849 42.7348 132.68 40.8776C132.509 40.6063 132.527 40.2585 132.724 40.0054L135.82 36.0434L130.981 31.2511L126.824 34.2372C126.57 34.4193 126.232 34.432 125.967 34.27C124.084 33.1247 122.043 32.2944 119.896 31.7992C119.581 31.7263 119.346 31.4678 119.306 31.151L118.666 26.1839H111.823L111.015 31.2038C110.966 31.5097 110.736 31.7555 110.433 31.8265C108.291 32.3326 106.254 33.1775 104.378 34.3337C104.104 34.503 103.753 34.4848 103.497 34.29L99.4967 31.2238L94.6575 36.0161L97.671 40.1329C97.8548 40.3823 97.8677 40.7174 97.7041 40.9814C96.5476 42.8459 95.7092 44.8669 95.2091 46.9918C95.1356 47.3031 94.8745 47.5362 94.5546 47.5763L89.5389 48.2099V54.9868L94.6079 55.7862C94.9168 55.8353 95.165 56.0629 95.2367 56.3634C95.7478 58.4846 96.5991 60.502 97.7684 62.3592C97.9394 62.6305 97.921 62.9783 97.7243 63.2314L94.6281 67.1934L99.4673 71.9857L103.624 68.9996C103.876 68.8175 104.215 68.8048 104.481 68.9668C106.362 70.1121 108.405 70.9442 110.55 71.4376C110.865 71.5105 111.1 71.769 111.14 72.0858L111.78 77.0529H118.627ZM115.226 64.2219C108.208 64.2219 102.499 58.5683 102.499 51.6184C102.499 44.6685 108.208 39.0149 115.226 39.0149C122.244 39.0149 127.953 44.6685 127.953 51.6184C127.953 58.5683 122.244 64.2219 115.226 64.2219ZM115.226 40.5426C109.059 40.5426 104.042 45.5115 104.042 51.6184C104.042 57.7253 109.059 62.6942 115.226 62.6942C121.392 62.6942 126.41 57.7253 126.41 51.6184C126.41 45.5115 121.392 40.5426 115.226 40.5426Z" fill="#1C4778"/>
<path d="M63.8712 171.781H69.0996C70.6008 171.781 71.8395 170.626 71.9262 169.145L72.8158 153.823C72.9092 152.217 71.6171 150.866 69.9892 150.866H17.8719C16.3085 150.866 15.0409 152.118 15.0409 153.663V156.822C15.0409 158.367 16.3085 159.619 17.8719 159.619H53.8659C55.2202 159.619 56.4389 160.437 56.9371 161.681L59.9238 169.129C60.5643 170.729 62.1299 171.779 63.8712 171.779V171.781Z" fill="white"/>
<path d="M80.6017 184.668L88.1786 178.114C88.8013 177.576 88.8235 176.626 88.2298 176.057L85.332 173.291L85.6078 172.913C86.186 172.118 85.7768 170.995 84.8161 170.747L77.6151 168.883C76.7122 168.65 75.8337 169.329 75.8426 170.25L75.9871 183.785L80.6017 184.666V184.668Z" fill="white"/>
<path d="M80.6017 185.591C80.3415 185.591 80.0836 185.486 79.899 185.277C79.5587 184.895 79.5988 184.31 79.9857 183.976L87.5626 177.422C87.7004 177.303 87.7249 177.154 87.7271 177.077C87.7271 177 87.7116 176.851 87.5803 176.723L84.6826 173.957C84.349 173.638 84.3023 173.128 84.5736 172.755L84.8494 172.377C84.9784 172.201 84.9428 172.028 84.9117 171.94C84.8805 171.852 84.7938 171.696 84.5825 171.641L77.3815 169.778C77.1814 169.725 77.0346 169.808 76.9634 169.863C76.8945 169.918 76.7766 170.039 76.7788 170.243L76.9234 183.778C76.9301 184.288 76.5164 184.706 76.0005 184.71H75.9893C75.4778 184.71 75.062 184.304 75.0553 183.798L74.9107 170.263C74.9019 169.534 75.231 168.859 75.8137 168.411C76.3963 167.963 77.1391 167.811 77.853 167.996L85.054 169.859C85.8012 170.052 86.4061 170.597 86.6685 171.316C86.8932 171.929 86.8443 172.599 86.5462 173.168L88.8814 175.398C89.3528 175.849 89.613 176.477 89.5975 177.123C89.5819 177.769 89.2906 178.384 88.7968 178.81L81.22 185.365C81.0421 185.519 80.8241 185.593 80.6062 185.593L80.6017 185.591Z" fill="#1C4778"/>
<path d="M66.9914 189.116C70.047 186.286 73.2739 184.271 75.9871 183.787C76.821 183.64 79.8167 184.258 80.6017 184.668C87.1423 188.085 95.0638 199.438 95.0638 208.933C95.0638 219.568 86.3371 222.244 75.5734 222.244C73.4207 222.244 71.6816 222.136 69.7446 221.881L64.8231 221.218L66.9891 189.116H66.9914Z" fill="white"/>
<path d="M75.5734 223.167C73.3673 223.167 71.5882 223.057 69.6222 222.795C69.1107 222.727 68.7527 222.264 68.8216 221.758C68.8906 221.253 69.3598 220.897 69.8713 220.967C71.7505 221.215 73.4563 221.321 75.5756 221.321C81.5135 221.321 85.8701 220.488 88.8924 218.777C92.4173 216.779 94.1319 213.56 94.1319 208.933C94.1319 204.712 92.484 199.766 89.4951 195.006C86.7708 190.671 83.2837 187.109 80.168 185.481C79.5075 185.136 76.7343 184.589 76.1538 184.693C73.7431 185.121 70.7164 186.929 67.6318 189.786C67.256 190.133 66.6644 190.115 66.313 189.744C65.9594 189.373 65.9795 188.788 66.3553 188.441C69.7001 185.345 73.0626 183.37 75.8247 182.878C76.9522 182.678 80.1458 183.383 81.042 183.851C87.9606 187.465 96 199.208 96 208.931C96 214.202 93.9207 218.051 89.822 220.374C86.5084 222.25 81.8493 223.164 75.5756 223.164L75.5734 223.167Z" fill="#1C4778"/>
<path d="M21.6747 197.953L19.4708 159.619L53.8659 159.619C55.2202 159.619 56.4389 160.437 56.9371 161.681L59.9238 169.129C60.5643 170.729 62.1299 171.779 63.8712 171.779L67.8608 171.779L65.4634 219.585C65.3878 221.073 64.1469 222.242 62.6391 222.242H34.6067L21.6769 197.951L21.6747 197.953Z" fill="#FFD766"/>
<path d="M62.6369 223.167H34.6045C34.0886 223.167 33.6705 222.754 33.6705 222.244C33.6705 221.734 34.0886 221.321 34.6045 221.321H62.6369C63.6466 221.321 64.4783 220.539 64.5295 219.541L66.8801 172.702H63.8712C61.7318 172.702 59.8415 171.432 59.0542 169.468L56.0675 162.019C55.7072 161.12 54.8421 160.54 53.8636 160.54H20.456L22.6043 197.898C22.6332 198.408 22.2396 198.843 21.7259 198.871C21.2099 198.9 20.7696 198.511 20.7407 198.004L18.5368 159.67C18.5212 159.417 18.6146 159.169 18.7903 158.985C18.966 158.8 19.2129 158.697 19.4686 158.697H53.8636C55.6116 158.697 57.1594 159.734 57.8021 161.342L60.7888 168.791C61.2937 170.048 62.5012 170.859 63.8689 170.859H67.8586C68.1144 170.859 68.359 170.962 68.5347 171.144C68.7104 171.327 68.8038 171.573 68.7904 171.825L66.3931 219.631C66.293 221.611 64.6429 223.164 62.6369 223.164V223.167Z" fill="#1C4778"/>
<path d="M60.8089 143.087H26.9565C25.8134 143.087 24.7526 143.672 24.15 144.632L20.2492 150.866H67.5162L63.6154 144.632C63.015 143.672 61.952 143.087 60.8089 143.087Z" fill="#FF897D"/>
<path d="M67.5162 151.788H20.2492C19.9112 151.788 19.5976 151.608 19.433 151.316C19.2685 151.024 19.2774 150.666 19.4553 150.382L23.356 144.149C24.1322 142.907 25.4776 142.167 26.9565 142.167H60.8066C62.2833 142.167 63.6288 142.907 64.4071 144.149L68.3079 150.382C68.4858 150.666 68.4947 151.024 68.3301 151.316C68.1656 151.608 67.8542 151.788 67.5139 151.788H67.5162ZM21.926 149.943H65.8415L62.8215 145.118C62.3878 144.423 61.6361 144.01 60.8088 144.01H26.9587C26.1337 144.01 25.382 144.423 24.9461 145.118L21.926 149.943Z" fill="#1C4778"/>
<path d="M24.3145 222.138C31.1521 222.138 36.6951 216.662 36.6951 209.906C36.6951 203.151 31.1521 197.674 24.3145 197.674C17.477 197.674 11.9341 203.151 11.9341 209.906C11.9341 216.662 17.477 222.138 24.3145 222.138Z" fill="#FF897D"/>
<path d="M24.3145 223.059C16.9734 223.059 11 217.157 11 209.906C11 202.655 16.9734 196.753 24.3145 196.753C31.6557 196.753 37.6269 202.655 37.6269 209.906C37.6269 217.157 31.6534 223.059 24.3145 223.059ZM24.3145 198.597C18.0031 198.597 12.8681 203.67 12.8681 209.906C12.8681 216.142 18.0031 221.216 24.3145 221.216C30.626 221.216 35.761 216.142 35.761 209.906C35.761 203.67 30.626 198.597 24.3145 198.597Z" fill="#1C4778"/>
<path d="M24.3145 213.718C26.4455 213.718 28.173 212.012 28.173 209.906C28.173 207.801 26.4455 206.094 24.3145 206.094C22.1836 206.094 20.4561 207.801 20.4561 209.906C20.4561 212.012 22.1836 213.718 24.3145 213.718Z" fill="white"/>
<path d="M24.3146 214.639C21.6726 214.639 19.5243 212.517 19.5243 209.906C19.5243 207.296 21.6726 205.173 24.3146 205.173C26.9566 205.173 29.1049 207.296 29.1049 209.906C29.1049 212.517 26.9566 214.639 24.3146 214.639ZM24.3146 207.017C22.7022 207.017 21.3901 208.313 21.3901 209.906C21.3901 211.499 22.7022 212.796 24.3146 212.796C25.9269 212.796 27.239 211.499 27.239 209.906C27.239 208.313 25.9269 207.017 24.3146 207.017Z" fill="#1C4778"/>
<path d="M69.229 172.5H64.102C62.0041 172.5 60.1504 171.265 59.3784 169.355L56.4497 162.111C56.0964 161.237 55.2481 160.673 54.2885 160.673H18.9928C16.9581 160.673 15.3007 159.052 15.3007 157.056V153.983C15.3007 151.99 16.956 150.366 18.9928 150.366H70.0991C71.1262 150.366 72.0792 150.768 72.7836 151.501C73.4793 152.221 73.8435 153.201 73.7846 154.191L72.9123 169.09C72.8011 171.002 71.1807 172.5 69.2268 172.5H69.229ZM18.9972 152.161C17.97 152.161 17.137 152.979 17.137 153.983V157.056C17.137 158.06 17.9722 158.879 18.9972 158.879H54.2929C56.007 158.879 57.5248 159.887 58.155 161.451L61.0838 168.694C61.5767 169.916 62.763 170.705 64.1042 170.705H69.2311C70.2169 170.705 71.0325 169.951 71.0892 168.987L71.9615 154.088C71.992 153.582 71.811 153.101 71.4555 152.731C71.1001 152.364 70.6203 152.161 70.1035 152.161H18.9972Z" fill="#1C4778"/>
<path d="M75.2048 146.879C72.2047 146.879 69.7745 144.545 69.7745 141.668C69.7745 138.79 72.2047 136.456 75.2048 136.456C78.2048 136.456 80.6351 138.79 80.6351 141.668C80.6351 144.545 78.203 146.879 75.2048 146.879Z" fill="white"/>
<path d="M81.4095 141.666C81.4095 144.959 78.627 147.641 75.2047 147.641C71.7824 147.641 69 144.959 69 141.666C69 138.372 71.7824 135.691 75.2047 135.691C78.627 135.691 81.4095 138.372 81.4095 141.666ZM70.5489 141.666C70.5489 144.12 72.638 146.114 75.2047 146.114C77.7714 146.114 79.8606 144.118 79.8606 141.666C79.8606 139.214 77.7714 137.218 75.2047 137.218C72.638 137.218 70.5489 139.214 70.5489 141.666Z" fill="#1C4778"/>
<path d="M89.3716 132.19C88.2008 131.034 86.2997 131.034 85.1288 132.19C83.9579 133.346 83.9561 135.218 85.1288 136.373C88.0901 139.292 88.0901 144.043 85.1288 146.963C84.5425 147.541 84.2511 148.297 84.2511 149.053C84.2511 149.809 84.5443 150.567 85.1307 151.145C86.3034 152.299 88.2026 152.299 89.3735 151.145C94.6729 145.919 94.6729 137.416 89.3735 132.19L89.3716 132.19Z" fill="white"/>
<path d="M94.1198 141.666C94.1198 145.294 92.7184 148.92 89.9193 151.683C89.2058 152.387 88.258 152.774 87.2512 152.774C86.2426 152.774 85.2948 152.387 84.5831 151.685C83.8695 150.982 83.4767 150.047 83.4767 149.053C83.4767 148.059 83.8695 147.124 84.5812 146.423C87.2402 143.8 87.2402 139.534 84.5812 136.911C83.1098 135.46 83.1098 133.099 84.5812 131.648C86.0527 130.198 88.4479 130.198 89.9193 131.648C92.7202 134.409 94.1216 138.038 94.1216 141.666L94.1198 141.666ZM85.0238 149.051C85.0238 149.638 85.2561 150.189 85.6765 150.603C86.0969 151.018 86.6556 151.245 87.2512 151.245C87.8468 151.245 88.4055 151.016 88.8259 150.602C93.8247 145.674 93.8247 137.654 88.8259 132.726C87.9574 131.87 86.545 131.87 85.6765 132.726C84.808 133.582 84.808 134.975 85.6765 135.829C88.9402 139.046 88.9402 144.281 85.6765 147.499C85.2561 147.913 85.0238 148.464 85.0238 149.051Z" fill="#1C4778"/>
<path d="M105.226 141.666C105.226 134.159 102.261 127.1 96.8745 121.793C95.7018 120.638 93.8026 120.638 92.6317 121.793C92.0453 122.371 91.754 123.127 91.754 123.885C91.754 124.643 92.0472 125.399 92.6335 125.977C96.8856 130.169 99.2273 135.74 99.2273 141.668C99.2273 147.595 96.8856 153.166 92.6335 157.358C91.4608 158.514 91.4627 160.386 92.6335 161.541C93.8044 162.695 95.7055 162.697 96.8764 161.541C102.261 156.233 105.227 149.175 105.227 141.668L105.226 141.666Z" fill="white"/>
<path d="M106 141.666C106 149.377 102.954 156.627 97.4222 162.079C95.9507 163.529 93.5555 163.529 92.0841 162.079C90.6126 160.628 90.6126 158.267 92.0841 156.816C96.1904 152.77 98.4511 147.39 98.4511 141.666C98.4511 135.942 96.1904 130.561 92.0841 126.515C91.3705 125.812 90.9777 124.877 90.9777 123.885C90.9777 122.892 91.3705 121.956 92.0822 121.255C93.5537 119.804 95.9489 119.804 97.4203 121.255C102.952 126.708 105.998 133.957 105.998 141.668L106 141.666ZM92.5284 159.449C92.5284 160.01 92.746 160.572 93.1793 161.001C94.0478 161.857 95.4602 161.857 96.3287 161.001C101.567 155.837 104.453 148.971 104.453 141.668C104.453 134.364 101.567 127.498 96.3287 122.334C95.4602 121.478 94.0478 121.478 93.1793 122.334C92.7589 122.749 92.5266 123.299 92.5266 123.887C92.5266 124.474 92.7589 125.025 93.1793 125.439C97.5771 129.774 99.9999 135.538 99.9999 141.669C99.9999 147.801 97.577 153.565 93.1793 157.9C92.746 158.327 92.5284 158.889 92.5284 159.452L92.5284 159.449Z" fill="#1C4778"/>
<path d="M246.71 206.727H167.066V220.417H246.71V206.727Z" fill="white"/>
<path d="M266.621 220.417H273.115C274.53 220.417 275.678 219.271 275.678 217.859V199.745C275.678 198.738 275.365 197.758 274.783 196.937L260.969 177.424C260.056 176.133 258.569 175.366 256.987 175.366H249.43C247.927 175.366 246.71 176.582 246.71 178.082V220.42H266.623L266.621 220.417Z" fill="#FFD766"/>
<path d="M262.848 180.077H253.013C252.24 180.077 251.607 180.709 251.607 181.481V189.712C251.607 190.432 252.196 191.021 252.92 191.021H270.636L262.848 180.077Z" fill="white"/>
<path d="M242.392 205.898V170.679C242.392 167.386 239.719 164.717 236.419 164.717H203.266L181.85 212.416L235.905 212.38C239.488 212.38 242.395 209.476 242.395 205.898H242.392Z" fill="#7395AB"/>
<path d="M204.315 162.394C204.592 161.836 175.805 225.45 175.805 225.45H152.277V220.856L144.802 218.071L198.917 163.643L204.315 162.391V162.394Z" fill="white"/>
<path d="M198.917 163.646L194.47 162.167L158.405 181.037C151.447 184.676 147.085 191.909 147.085 199.797V215.776L198.917 163.646Z" fill="white"/>
<path fill-rule="evenodd" clip-rule="evenodd" d="M211.227 213.995L198.03 214.004V220.413H223.448C223.893 220.413 224.252 220.772 224.252 221.216C224.252 221.66 223.893 222.018 223.448 222.018H178.602L176.539 226.577C176.41 226.863 176.123 227.049 175.808 227.049L175.805 227.052H152.277C151.832 227.052 151.473 226.693 151.473 226.249V222.212L144.523 219.623C144.267 219.528 144.078 219.311 144.019 219.042C143.96 218.774 144.042 218.498 144.234 218.304L146.284 216.242V200.598C146.284 192.382 150.788 184.92 158.035 181.129L194.1 162.258C194.294 162.157 194.519 162.139 194.728 162.206L198.949 163.61L204.085 162.418C204.269 162.361 204.476 162.372 204.662 162.459C205.169 162.7 205.194 163.04 205.021 163.538C205.021 163.574 205.006 163.6 204.99 163.626C204.93 163.787 204.85 163.965 204.763 164.159L204.734 164.222L204.514 164.71H236.417C240.153 164.71 243.193 167.746 243.193 171.475V206.694C243.193 210.708 239.923 213.976 235.9 213.978L227.507 213.984V220.627C227.507 221.071 227.148 221.43 226.703 221.43C226.259 221.43 225.899 221.071 225.899 220.627V213.985L211.584 213.995C211.526 214.007 211.466 214.014 211.405 214.014C211.344 214.014 211.284 214.008 211.227 213.995ZM147.603 217.194L146.253 218.552L152.559 220.901C152.874 221.017 153.081 221.319 153.081 221.652V225.446H175.285L177.935 219.59C182.236 210.084 190.494 191.833 196.479 178.596C196.487 178.574 196.497 178.552 196.508 178.53C198.194 174.803 199.697 171.476 200.88 168.858L202.529 165.185C202.545 165.149 202.563 165.115 202.584 165.082L202.919 164.339L199.334 165.17L147.659 217.143C147.641 217.161 147.622 217.178 147.603 217.194ZM183.091 212.409L196.422 182.717V212.4L183.091 212.409ZM182.223 214.014L196.422 214.005V220.413H179.328L182.223 214.014ZM198.03 179.135V212.399L210.601 212.391V166.318H203.788L202.939 168.2L198.03 179.135ZM212.209 212.39L225.899 212.382V166.318H212.209V212.39ZM235.902 212.375L227.507 212.381V166.318H236.419C239.269 166.318 241.588 168.633 241.588 171.478V206.697C241.588 209.825 239.039 212.375 235.902 212.375ZM158.78 182.548L194.54 163.835V163.833L197.433 164.795L147.89 214.626V200.595C147.89 192.978 152.063 186.064 158.78 182.548Z" fill="#1C4778"/>
<path fill-rule="evenodd" clip-rule="evenodd" d="M273.115 222.018H266.621C266.176 222.018 265.816 221.66 265.816 221.216C265.816 220.772 266.176 220.413 266.621 220.413H273.115C274.085 220.413 274.873 219.626 274.873 218.658V203.038H268.609C266.166 203.038 264.177 201.053 264.177 198.611C264.177 196.17 266.166 194.167 268.611 194.167H271.273L270.179 192.622H252.92C251.754 192.622 250.805 191.675 250.805 190.511V182.28C250.805 181.064 251.795 180.073 253.016 180.073H261.294L260.309 178.682C259.547 177.605 258.306 176.963 256.984 176.963H249.427C248.37 176.963 247.511 177.822 247.511 178.875V220.41H255.252C255.697 220.41 256.056 220.769 256.056 221.213C256.056 221.657 255.697 222.016 255.252 222.016H246.775C246.754 222.017 246.732 222.018 246.71 222.018H234.819C234.374 222.018 234.015 221.66 234.015 221.216C234.015 220.772 234.374 220.413 234.819 220.413H245.903V178.875C245.903 176.934 247.485 175.357 249.427 175.357H256.984C258.825 175.357 260.56 176.253 261.623 177.755L263.474 180.371C263.485 180.384 263.495 180.397 263.505 180.411L271.293 191.355C271.339 191.42 271.374 191.491 271.399 191.564L274.052 195.311C274.38 195.694 274.67 196.105 274.92 196.537L275.437 197.268C276.117 198.228 276.479 199.361 276.479 200.541V218.655C276.479 220.508 274.969 222.016 273.113 222.016L273.115 222.018ZM272.799 196.322C272.664 196.167 272.521 196.018 272.371 195.875L272.267 195.777H268.611L268.609 195.775C267.05 195.775 265.783 197.039 265.783 198.596C265.783 200.152 267.05 201.435 268.609 201.435H274.385C274.546 200.032 274.247 198.609 273.556 197.392L272.799 196.322ZM262.431 181.678H253.013C252.687 181.678 252.411 181.955 252.411 182.28V190.511C252.411 190.784 252.643 191.017 252.92 191.017H269.043L262.431 181.678Z" fill="#1C4778"/>
<path d="M235.184 223.026C235.184 226.26 232.557 228.885 229.314 228.885C226.072 228.885 223.448 226.262 223.448 223.026C223.448 219.789 226.075 217.167 229.314 217.167C232.557 217.167 235.184 219.789 235.184 223.026Z" fill="#FFD766"/>
<path d="M205.706 223.026C205.706 226.26 203.08 228.885 199.837 228.885C196.595 228.885 193.971 226.262 193.971 223.026C193.971 219.789 196.598 217.167 199.837 217.167C203.08 217.167 205.706 219.789 205.706 223.026Z" fill="#FFD766"/>
<path d="M266.988 223.026C266.988 226.26 264.361 228.885 261.119 228.885C257.876 228.885 255.252 226.262 255.252 223.026C255.252 219.789 257.879 217.167 261.119 217.167C264.361 217.167 266.988 219.789 266.988 223.026Z" fill="#FFD766"/>
<path d="M228.797 229.49C225.118 229.49 222.126 226.501 222.126 222.828C222.126 219.156 225.12 216.167 228.797 216.167C232.474 216.167 235.47 219.156 235.47 222.828C235.47 226.501 232.476 229.49 228.797 229.49ZM228.797 217.775C226.005 217.775 223.735 220.043 223.735 222.831C223.735 225.619 226.007 227.887 228.797 227.887C231.587 227.887 233.862 225.619 233.862 222.831C233.862 220.043 231.589 217.775 228.797 217.775Z" fill="#1C4778"/>
<path d="M199.32 229.49C195.641 229.49 192.649 226.501 192.649 222.828C192.649 219.156 195.643 216.167 199.32 216.167C202.996 216.167 205.993 219.156 205.993 222.828C205.993 226.501 202.999 229.49 199.32 229.49ZM199.32 217.775C196.527 217.775 194.257 220.043 194.257 222.831C194.257 225.619 196.53 227.887 199.32 227.887C202.11 227.887 204.385 225.619 204.385 222.831C204.385 220.043 202.112 217.775 199.32 217.775Z" fill="#1C4778"/>
<path d="M260.604 229.49C256.925 229.49 253.933 226.501 253.933 222.828C253.933 219.156 256.927 216.167 260.604 216.167C264.281 216.167 267.277 219.156 267.277 222.828C267.277 226.501 264.283 229.49 260.604 229.49ZM260.604 217.775C257.812 217.775 255.542 220.043 255.542 222.831C255.542 225.619 257.814 227.887 260.604 227.887C263.394 227.887 265.669 225.619 265.669 222.831C265.669 220.043 263.396 217.775 260.604 217.775Z" fill="#1C4778"/>
<defs>
<filter id="filter0_f_55075_32918" x="46.5769" y="54.383" width="198.352" height="198.205" filterUnits="userSpaceOnUse" color-interpolation-filters="sRGB">
<feFlood flood-opacity="0" result="BackgroundImageFix"/>
<feBlend mode="normal" in="SourceGraphic" in2="BackgroundImageFix" result="shape"/>
<feGaussianBlur stdDeviation="12.5" result="effect1_foregroundBlur_55075_32918"/>
</filter>
</defs>
</svg>
