<svg width="56" height="68" viewBox="0 0 56 68" fill="none" xmlns="http://www.w3.org/2000/svg">
<g clip-path="url(#clip0_55793_36314)">
<path d="M7 34.0132V6.88974C7 3.6367 9.15962 1 11.8224 1H32.1776C34.8404 1 37 3.6367 37 6.89139V63.2592C37 65.2927 35.6619 66.9473 33.9973 66.972L32.1776 67H18.5764L7 34.0132Z" fill="#B9FFE7"/>
<path d="M18.4676 68C18.1781 68 17.9443 67.72 17.9443 67.3733C17.9443 67.0267 18.1781 66.7467 18.4676 66.7467H32.501L34.3716 66.72C35.7954 66.6984 36.9534 65.2951 36.9534 63.5918V6.58317C36.9534 3.64324 34.9562 1.25164 32.501 1.25164H11.499C9.04384 1.25164 7.04662 3.64324 7.04662 6.58317V34.0142C7.04662 34.3608 6.8128 34.6408 6.52331 34.6408C6.23382 34.6408 6 34.3608 6 34.0142V6.58317C6 2.95326 8.46764 0 11.499 0H32.501C35.5324 0 38 2.95326 38 6.58317V63.5901C38 65.9767 36.3786 67.9433 34.3855 67.9717L32.508 68H18.4676Z" fill="#1C4778"/>
<path d="M28.3898 61H23.6102C23.2727 61 23 60.7766 23 60.5C23 60.2234 23.2727 60 23.6102 60H28.3898C28.7273 60 29 60.2234 29 60.5C29 60.7766 28.7273 61 28.3898 61Z" fill="#003887"/>
<path d="M37 60H11.6938L7 46.7021V8H37V60Z" fill="#B9FFE7"/>
<path d="M37.4775 61H11.3658C11.1573 61 10.9683 60.8516 10.8863 60.6216L6.04308 47.1328C6.01529 47.0545 6 46.9694 6 46.8844V7.62684C6 7.28008 6.23348 7 6.52254 7H37.4775C37.7665 7 38 7.28008 38 7.62684V60.3715C38 60.7183 37.7665 60.9983 37.4775 60.9983V61ZM11.7104 59.7463H36.9549V8.25368H7.04508V46.7544L11.7104 59.7463Z" fill="#1C4778"/>
<path d="M53.4887 52.4521C53.5871 53.0921 53.6371 53.747 53.6371 54.4137C53.6371 61.5302 47.8636 67.3 40.7426 67.3C33.6216 67.3 27.8481 61.5302 27.8481 54.4137C27.8481 47.2972 33.6216 41.5273 40.7426 41.5273C43.1708 41.5273 45.4405 42.1973 47.38 43.364L53.4887 52.4521Z" fill="#5FDBB9"/>
<path d="M40.7427 67.9266C33.2865 67.9266 27.2212 61.8651 27.2212 54.4136C27.2212 46.9622 33.2865 40.9006 40.7427 40.9006C43.2009 40.9006 45.6073 41.5673 47.7036 42.8256C48.0005 43.0039 48.0955 43.3889 47.9171 43.6856C47.7386 43.9822 47.3534 44.0772 47.0566 43.8989C45.1554 42.7573 42.9724 42.1523 40.7427 42.1523C33.9786 42.1523 28.4753 47.6521 28.4753 54.412C28.4753 61.1718 33.9786 66.6717 40.7427 66.6717C47.5068 66.6717 53.0102 61.1718 53.0102 54.412C53.0102 53.787 52.9618 53.1587 52.8684 52.5437C52.8167 52.202 53.0519 51.882 53.3937 51.8304C53.7356 51.7787 54.0558 52.0137 54.1075 52.3554C54.2109 53.032 54.2626 53.7237 54.2626 54.412C54.2626 61.8635 48.1972 67.925 40.7411 67.925L40.7427 67.9266Z" fill="#1C4778"/>
<path d="M40.7426 62.4834C39.9671 62.4834 39.2333 62.1318 38.748 61.5285L32.8078 54.142C31.9222 53.0403 32.0973 51.4304 33.1997 50.5454C34.302 49.6604 35.913 49.8354 36.7985 50.9371L40.7443 55.8436L50.3201 43.9372C51.2056 42.8356 52.8166 42.6606 53.9189 43.5456C55.0212 44.4306 55.1964 46.0405 54.3108 47.1422L42.7405 61.5285C42.2552 62.1335 41.5214 62.4834 40.7459 62.4834H40.7426Z" fill="white"/>
<path d="M40.7426 63.1102C39.7721 63.1102 38.8665 62.6768 38.2595 61.9202L32.3192 54.5337C31.2185 53.1654 31.437 51.1571 32.8062 50.0555C33.4699 49.5222 34.3004 49.2788 35.1476 49.3722C35.9931 49.4638 36.7536 49.8805 37.2872 50.5438L40.7443 54.842L49.8315 43.544C50.3651 42.8806 51.1239 42.4657 51.9711 42.3723C52.8166 42.2807 53.6488 42.524 54.3125 43.0556C54.9763 43.589 55.3915 44.3473 55.4849 45.1939C55.5766 46.0389 55.3332 46.8705 54.8012 47.5339L43.2308 61.9202C42.6221 62.6768 41.7182 63.1102 40.7477 63.1102H40.7426ZM34.7974 50.6071C34.3588 50.6071 33.9369 50.7555 33.59 51.0338C32.7595 51.7004 32.6261 52.9187 33.2948 53.7504L39.2351 61.1369C39.6036 61.5952 40.1523 61.8585 40.741 61.8585C41.3297 61.8585 41.8783 61.5952 42.2469 61.1369L53.8172 46.7506C54.1408 46.3489 54.2875 45.8439 54.2325 45.3323C54.1775 44.8189 53.924 44.3589 53.5221 44.0356C53.1201 43.7123 52.6148 43.5656 52.1012 43.6206C51.5876 43.6756 51.1273 43.929 50.8037 44.3306L41.2279 56.237C40.9895 56.5336 40.4892 56.5336 40.2507 56.237L36.305 51.3304C35.9814 50.9288 35.5211 50.6755 35.0075 50.6205C34.9358 50.6121 34.8658 50.6088 34.794 50.6088L34.7974 50.6071Z" fill="#1C4778"/>
<path d="M14.1384 28.3293H13.2279C11.1266 28.3293 9.40723 26.611 9.40723 24.5111C9.40723 22.4111 11.1266 20.6928 13.2279 20.6928H31.052C33.1533 20.6928 34.8727 22.4111 34.8727 24.5111C34.8727 26.611 33.1533 28.3293 31.052 28.3293H14.1384Z" fill="white"/>
<path d="M31.0536 28.956H25.0232C24.6764 28.956 24.3962 28.676 24.3962 28.3293C24.3962 27.9827 24.6764 27.7027 25.0232 27.7027H31.0536C32.8146 27.7027 34.2472 26.271 34.2472 24.5111C34.2472 22.7511 32.8146 21.3195 31.0536 21.3195H13.2294C11.4684 21.3195 10.0358 22.7511 10.0358 24.5111C10.0358 26.271 11.4684 27.7027 13.2294 27.7027H14.14C14.4869 27.7027 14.767 27.9827 14.767 28.3293C14.767 28.676 14.4869 28.956 14.14 28.956H13.2294C10.7779 28.956 8.78174 26.9627 8.78174 24.5127C8.78174 22.0628 10.7763 20.0695 13.2294 20.0695H31.0536C33.5051 20.0695 35.4996 22.0628 35.4996 24.5127C35.4996 26.9627 33.5051 28.956 31.0536 28.956Z" fill="#003887"/>
<path d="M11.6719 37.3824C11.6719 35.9274 12.8526 34.7475 14.3085 34.7475C15.7644 34.7475 16.9451 35.9274 16.9451 37.3824V41.664V27.146C16.9451 25.691 18.1258 24.511 19.5817 24.511C21.0376 24.511 22.2183 25.691 22.2183 27.146V49.1371C22.2183 51.0421 21.4145 52.8587 20.0019 54.1403C18.9997 55.0503 18.4276 56.3403 18.4276 57.6936V59.3202H4.91612V57.6936C4.91612 56.3403 4.34411 55.0503 3.34183 54.1403C1.93098 52.8587 1.12549 51.0421 1.12549 49.1371V39.1024C1.12549 37.6474 2.3062 36.4674 3.76209 36.4674C5.21797 36.4674 6.39868 37.6474 6.39868 39.1024V41.664V37.3824C6.39868 35.9274 7.5794 34.7475 9.03528 34.7475C10.4912 34.7475 11.6719 35.9274 11.6719 37.3824Z" fill="white"/>
<path d="M18.4275 59.9452H4.91601C4.56913 59.9452 4.28896 59.6652 4.28896 59.3185V57.6919C4.28896 56.5186 3.79033 55.392 2.92147 54.602C1.3822 53.207 0.5 51.2137 0.5 49.1371V39.1024C0.5 37.3041 1.96422 35.8408 3.76364 35.8408C4.56413 35.8408 5.29791 36.1308 5.86492 36.6091C6.21346 35.1825 7.50258 34.1208 9.03517 34.1208C10.1175 34.1208 11.0781 34.6491 11.6718 35.4625C12.2655 34.6508 13.226 34.1208 14.3084 34.1208C15.0655 34.1208 15.7626 34.3791 16.3179 34.8141V27.146C16.3179 25.3477 17.7821 23.8844 19.5816 23.8844C21.381 23.8844 22.8452 25.3477 22.8452 27.146V49.1371C22.8452 51.2137 21.963 53.207 20.4237 54.6036C19.5549 55.3936 19.0562 56.5186 19.0562 57.6936V59.3202C19.0562 59.6669 18.7761 59.9468 18.4292 59.9468L18.4275 59.9452ZM5.54306 58.6919H17.8005V57.6919C17.8005 56.1653 18.4492 54.702 19.5799 53.6753C20.8573 52.5154 21.5894 50.8621 21.5894 49.1371V27.146C21.5894 26.0393 20.6889 25.1377 19.5799 25.1377C18.4709 25.1377 17.5703 26.0377 17.5703 27.146V41.664C17.5703 42.0106 17.2902 42.2906 16.9433 42.2906C16.5964 42.2906 16.3163 42.0106 16.3163 41.664V37.3824C16.3163 36.2758 15.4157 35.3741 14.3067 35.3741C13.1977 35.3741 12.2971 36.2741 12.2971 37.3824V41.664C12.2971 42.0106 12.017 42.2906 11.6701 42.2906C11.3232 42.2906 11.0431 42.0106 11.0431 41.664V37.3824C11.0431 36.2758 10.1425 35.3741 9.03351 35.3741C7.9245 35.3741 7.02395 36.2741 7.02395 37.3824V41.664C7.02395 42.0106 6.74378 42.2906 6.39691 42.2906C6.05003 42.2906 5.76986 42.0106 5.76986 41.664V39.1024C5.76986 37.9957 4.86931 37.0941 3.76031 37.0941C2.6513 37.0941 1.75076 37.9941 1.75076 39.1024V49.1371C1.75076 50.8621 2.48287 52.517 3.76198 53.6753C4.89266 54.702 5.54139 56.1653 5.54139 57.6919V58.6919H5.54306Z" fill="#1C4778"/>
<path d="M20.487 59.3185H2.85632C2.24936 59.3185 1.75732 59.8103 1.75732 60.4168V66.2017C1.75732 66.8083 2.24936 67.3 2.85632 67.3H20.487C21.094 67.3 21.586 66.8083 21.586 66.2017V60.4168C21.586 59.8103 21.094 59.3185 20.487 59.3185Z" fill="white"/>
<path d="M20.4871 67.9267H2.85642C1.90417 67.9267 1.13037 67.1534 1.13037 66.2017V60.4169C1.13037 59.4652 1.90417 58.6919 2.85642 58.6919H20.4871C21.4393 58.6919 22.2131 59.4652 22.2131 60.4169V66.2017C22.2131 67.1534 21.4393 67.9267 20.4871 67.9267ZM2.85642 59.9452C2.59626 59.9452 2.38446 60.1569 2.38446 60.4169V66.2017C2.38446 66.4617 2.59626 66.6734 2.85642 66.6734H20.4871C20.7473 66.6734 20.9591 66.4617 20.9591 66.2017V60.4169C20.9591 60.1569 20.7473 59.9452 20.4871 59.9452H2.85642Z" fill="#1C4778"/>
</g>
<defs>
<clipPath id="clip0_55793_36314">
<rect width="55" height="68" fill="white" transform="translate(0.5)"/>
</clipPath>
</defs>
</svg>
