<svg width="252" height="189" viewBox="0 0 252 189" fill="none" xmlns="http://www.w3.org/2000/svg">
<g style="mix-blend-mode:overlay" filter="url(#filter0_f_55403_4495)">
<path fill-rule="evenodd" clip-rule="evenodd" d="M142.664 50.139C143.252 50.2231 143.846 50.3149 144.444 50.4149C152.631 52.0545 165.246 56.3844 164.446 56.2189C193.334 66.2095 201.012 79.6673 196.177 98.0854C193.865 108.557 189.242 116.513 189.242 116.513C185.407 123.807 181.5 129.372 177.1 133.388C183.262 129.599 188.312 123.229 193.238 113.854C193.238 113.854 197.63 106.29 199.826 96.335C204.419 78.8249 197.125 66.0305 169.682 56.5323C170.442 56.6897 158.457 52.5732 150.679 51.0144C147.897 50.5492 145.223 50.2686 142.664 50.139Z" fill="white"/>
</g>
<g style="mix-blend-mode:overlay" filter="url(#filter1_f_55403_4495)">
<path fill-rule="evenodd" clip-rule="evenodd" d="M163.729 55.0536C164.752 55.4056 165.282 55.6066 165.097 55.5684C193.985 65.5591 202.64 79.6664 197.805 98.0845C195.493 108.556 190.87 116.512 190.87 116.512C189.047 119.978 187.171 123.053 185.21 125.757C187.774 122.574 190.195 118.73 192.586 114.178C192.586 114.178 196.979 106.614 199.175 96.659C203.768 79.1489 196.474 66.3545 169.03 56.8563C169.377 56.9281 167.074 56.1113 163.729 55.0536Z" fill="url(#paint0_linear_55403_4495)"/>
</g>
<g style="mix-blend-mode:multiply" opacity="0.5">
<path fill-rule="evenodd" clip-rule="evenodd" d="M107.33 116.319C111.775 119.96 126.735 129.784 126.735 129.784H126.732C142.974 140.459 156.837 140.887 160.5 140.887C176.743 140.887 186.574 133.2 195.978 115.26C195.978 115.26 200.68 107.144 203.031 96.4629C206.09 84.7759 204.224 75.0468 195.305 66.909C210.112 76.8432 213.627 89.1079 209.636 104.357C207.008 116.292 201.755 125.359 201.755 125.359C191.25 145.401 180.267 153.991 162.119 153.991C158.029 153.991 142.539 153.513 124.394 141.585V141.581C124.394 141.581 107.679 130.608 102.714 126.538C78.5711 106.763 75.8846 90.1746 79.0269 81.4579C83.3253 69.5294 99.0828 59.5072 99.0828 59.5072C99.0828 59.5072 100.262 58.6376 102.5 57.396C98.7074 60.0845 89.1825 67.4871 86.1284 75.9671C83.3182 83.7711 85.7214 98.6193 107.33 116.319Z" fill="#073F53"/>
</g>
<g style="mix-blend-mode:multiply" filter="url(#filter2_b_55403_4495)">
<path fill-rule="evenodd" clip-rule="evenodd" d="M156.828 42.1355C150.435 42.7396 130.832 46.6984 130.832 46.6984V46.7017C128.886 47.0935 127.023 47.5377 125.242 48.0236C132.211 46.6879 140.704 46.2081 150.418 47.8364C158.745 49.5089 171.575 53.9257 170.761 53.7568C200.139 63.9479 207.948 77.6757 203.031 96.4632C202.697 97.9808 202.316 99.4466 201.907 100.845C205.74 92.8834 206.624 87.1997 206.624 87.1997C206.624 87.1997 210.759 68.9967 205.409 57.5001C201.498 49.0952 187.906 39.2029 156.828 42.1355ZM157.58 140.789C151.774 140.402 140.054 138.539 126.732 129.784H126.735C126.735 129.784 111.775 119.96 107.33 116.319C88.8539 101.185 84.4185 88.1363 85.2775 79.7926C82.286 88.8114 83.18 99.2231 87.3079 112.635C87.3079 112.635 89.9618 122.771 96.5038 133.095C107.39 151.87 124.388 156.624 155.724 141.63C155.526 141.758 156.254 141.432 157.58 140.789Z" fill="#5B4883" fill-opacity="0.75"/>
</g>
<g style="mix-blend-mode:screen" opacity="0.5" filter="url(#filter3_f_55403_4495)">
<ellipse cx="0.840347" cy="3.4269" rx="0.840347" ry="3.4269" transform="matrix(0.915643 -0.401992 0.403799 0.914848 202.405 54.95)" fill="white"/>
</g>
<g style="mix-blend-mode:screen" opacity="0.8" filter="url(#filter4_f_55403_4495)">
<ellipse cx="0.666726" cy="1.99657" rx="0.666726" ry="1.99657" transform="matrix(0.915643 -0.401992 0.403799 0.914848 203.224 56.1629)" fill="white"/>
</g>
<g filter="url(#filter5_f_55403_4495)">
<path fill-rule="evenodd" clip-rule="evenodd" d="M198.82 69.7646C207.59 77.9309 211.076 87.242 210.598 97.3327C211.734 86.6233 208.336 77.525 198.82 69.7646Z" fill="url(#paint1_linear_55403_4495)"/>
</g>
<g filter="url(#filter6_f_55403_4495)">
<path fill-rule="evenodd" clip-rule="evenodd" d="M198.82 69.7646C207.59 77.9309 211.076 87.242 210.598 97.3327C211.734 86.6233 208.336 77.525 198.82 69.7646Z" fill="url(#paint2_linear_55403_4495)"/>
</g>
<g opacity="0.8" filter="url(#filter7_f_55403_4495)">
<ellipse cx="0.666726" cy="3.57016" rx="0.666726" ry="3.57016" transform="matrix(0.915643 -0.401992 0.403799 0.914848 205.307 77.5441)" fill="white"/>
</g>
<path fill-rule="evenodd" clip-rule="evenodd" d="M78.5286 98.7541C78.4538 99.0097 78.5326 99.2406 78.6114 99.4714C78.6697 99.6425 78.7281 99.8136 78.724 99.9947C78.4081 100.004 78.2192 100.144 78.1085 100.459C77.3563 102.567 75.6793 103.72 73.4487 103.872C73.2229 103.888 72.9984 103.907 72.7745 103.926C71.7906 104.009 70.8188 104.09 69.8081 103.892C67.3789 103.421 65.7442 100.956 66.4117 98.569C67.1835 95.8085 69.2317 93.7755 72.3578 94.0093C72.7332 94.038 73.1097 94.0329 73.4866 94.0279C73.7506 94.0243 74.0148 94.0208 74.2791 94.0288C74.3273 94.0304 74.3806 94.0241 74.435 94.0176C74.5974 93.9983 74.7692 93.9779 74.8424 94.1652C74.938 94.4125 74.7714 94.5147 74.6009 94.6193L74.6008 94.6193C74.5564 94.6466 74.5116 94.6741 74.4712 94.7043C73.1035 95.7403 72.8723 96.3671 73.3347 97.7279C73.9925 99.6602 76.4576 100.261 77.8936 99.0269C77.9247 99.0002 77.9546 98.9722 77.9842 98.9444C78.1347 98.8034 78.2778 98.6695 78.5253 98.7509L78.5286 98.7541ZM11.1114 104.955L11.3766 104.933L11.5492 104.917C14.9391 104.021 16.5314 101.475 16.3035 99.7143C16.1675 99.7982 16.0335 99.8817 15.9005 99.9646C15.6164 100.142 15.337 100.316 15.053 100.484C14.3366 100.913 12.9397 100.731 12.2819 100.172C11.4515 99.4707 11.165 98.5971 11.051 97.5221C10.9456 96.5453 11.4977 96.1251 12.0618 95.6958C12.2122 95.5814 12.3635 95.4662 12.5033 95.3397C12.4196 95.0976 12.2231 95.1036 12.0262 95.1096C11.8403 95.1153 11.654 95.121 11.5622 94.9175C8.13658 94.6025 5.59337 95.8204 4.12476 99.0485C3.48001 100.474 4.15081 103.124 5.47614 104.053C7.22359 105.277 9.16471 105.116 11.1114 104.955ZM15.7972 135.193C15.7978 133.897 15.7984 132.6 15.7984 131.304L15.7952 131.307H15.7463C15.7463 130.952 15.7482 130.597 15.75 130.242C15.7536 129.531 15.7572 128.821 15.7463 128.111C15.718 126.371 15.7334 124.631 15.7488 122.891V122.891V122.891V122.891V122.891C15.7758 119.838 15.8028 116.785 15.5933 113.734C15.5379 112.896 15.2416 112.37 14.3266 112.175C11.2214 111.512 8.08072 111.638 4.94954 111.764L4.91576 111.766C3.54809 111.821 2.23904 112.217 1.30773 113.429C0.659717 114.273 0.809509 115.117 1.00815 115.997C1.19701 116.835 1.71152 117.095 2.61027 117.102C4.73666 117.115 5.4791 117.709 6.04571 119.739C6.4606 121.226 6.42157 122.726 6.38259 124.225V124.225V124.225V124.225V124.225C6.36865 124.761 6.35471 125.296 6.36157 125.831C6.37294 126.677 6.38537 127.522 6.3978 128.368L6.3978 128.368L6.3978 128.368L6.3978 128.368L6.3978 128.368C6.49217 134.789 6.58659 141.213 6.21829 147.633C6.21413 147.706 6.21031 147.775 6.20667 147.842C6.17014 148.509 6.15128 148.854 5.96947 149.034C5.77537 149.226 5.39553 149.231 4.6102 149.24L4.58361 149.24C4.4213 149.242 4.25868 149.239 4.09653 149.236C3.22092 149.217 2.35922 149.2 1.63662 150.033C0.841898 150.949 0.961483 151.922 1.08187 152.901L1.08188 152.901C1.10356 153.077 1.12526 153.253 1.14166 153.43C1.20027 154.102 1.60731 154.398 2.37255 154.391C7.79111 154.355 13.2129 154.355 18.6315 154.385C19.7744 154.391 20.4648 153.777 20.8067 152.868C21.0944 152.096 21.0179 151.25 20.9429 150.422L20.9429 150.422L20.9428 150.421C20.9279 150.256 20.913 150.092 20.9011 149.929C20.8686 149.481 20.4908 149.263 19.9796 149.276C18.8757 149.305 17.7685 149.292 16.6646 149.279C16.6195 149.279 16.5716 149.282 16.5232 149.285L16.523 149.285C16.2954 149.301 16.0542 149.317 16.0166 148.945C15.9935 148.71 15.9621 148.474 15.9308 148.239C15.8695 147.779 15.8082 147.32 15.8082 146.86C15.7936 142.97 15.7954 139.082 15.7972 135.193ZM40.1822 113.018C40.1709 113.211 40.1586 113.404 40.1463 113.597L40.1463 113.597L40.1463 113.598L40.1463 113.598C40.1158 114.076 40.0854 114.553 40.0714 115.031C40.0704 115.067 40.0674 115.104 40.0643 115.142V115.142C40.0478 115.347 40.0295 115.573 40.3124 115.658C40.5406 115.725 40.707 115.585 40.8659 115.452L40.879 115.441C43.0608 113.612 45.6463 112.537 48.3067 111.673C51.27 110.709 54.3277 110.157 57.4733 110.254C58.6814 110.293 59.0038 110.647 59.0299 111.884C59.0689 113.927 58.4307 115.821 57.6687 117.662C57.084 119.071 55.837 119.361 54.5708 119.655C54.2787 119.723 53.9855 119.791 53.6992 119.874C51.931 120.38 51.0974 119.341 50.241 118.172C50.2114 118.131 50.1849 118.089 50.1584 118.046C50.0508 117.874 49.9443 117.703 49.6386 117.685C46.4962 117.493 43.3408 119.156 42.4225 122.39C41.8527 124.394 41.8103 126.489 41.8266 128.574L41.829 128.932V128.933C41.8705 135.133 41.912 141.333 42.1164 147.53C42.136 148.112 42.3085 148.248 42.8491 148.238C44.0421 148.216 45.2351 148.22 46.4281 148.225C46.7688 148.227 47.1096 148.228 47.4503 148.229C47.4832 148.229 47.516 148.228 47.5485 148.228C47.8571 148.223 48.1442 148.219 48.3328 148.622C48.7496 149.505 48.5672 152.006 47.9518 152.759C47.6099 153.175 47.1247 153.308 46.6134 153.308C44.4347 153.31 42.256 153.311 40.0772 153.312C36.2643 153.313 32.4514 153.314 28.6384 153.324C28.2249 153.324 27.8602 153.185 27.7657 152.87C27.4499 151.847 27.1763 150.827 27.6029 149.726C28.1565 148.3 29.2278 148.092 30.5727 148.141C32.4635 148.209 32.4647 148.158 32.5062 146.302L32.507 146.27C32.5259 145.446 32.55 144.622 32.5741 143.798C32.6454 141.358 32.7168 138.918 32.6535 136.479V136.024C32.7349 131.065 32.7968 126.099 32.2855 121.16C32.2609 120.924 32.2432 120.685 32.2253 120.445L32.2253 120.445C32.1464 119.381 32.0656 118.293 31.3803 117.35C30.6671 116.373 29.6088 116.184 28.5635 116.032C28.0653 115.96 27.8243 115.778 27.6257 115.382C26.5218 113.187 27.7885 111.102 30.2275 111.082C31.7043 111.072 33.1758 110.962 34.6479 110.853C35.9902 110.752 37.333 110.652 38.681 110.628C39.863 110.605 40.2961 110.923 40.1203 112.07C40.1025 112.183 40.1304 112.304 40.1581 112.424L40.1581 112.424L40.1582 112.424L40.1582 112.424C40.171 112.48 40.1837 112.535 40.1919 112.589C40.0519 112.732 40.0519 112.875 40.1919 113.018H40.1822ZM77.9937 134.248C77.9943 132.951 77.9949 131.654 77.9949 130.357L77.9916 130.361H77.9428C77.9428 130.006 77.9446 129.65 77.9464 129.295V129.294C77.95 128.584 77.9537 127.875 77.9428 127.165C77.9144 125.425 77.9298 123.685 77.9452 121.945C77.9722 118.892 77.9993 115.839 77.7897 112.788C77.7344 111.95 77.4381 111.424 76.523 111.229C73.4179 110.565 70.2772 110.692 67.146 110.818L67.1122 110.82C65.7445 110.875 64.4355 111.271 63.5042 112.482C62.8562 113.327 63.006 114.171 63.2046 115.051C63.3935 115.889 63.908 116.149 64.8067 116.155C66.9331 116.168 67.6756 116.763 68.2422 118.793C68.657 120.28 68.618 121.78 68.579 123.278C68.5651 123.814 68.5512 124.35 68.558 124.885C68.5694 125.73 68.5818 126.575 68.5942 127.42L68.5943 127.422C68.6886 133.843 68.783 140.267 68.4147 146.686C68.4106 146.759 68.4068 146.829 68.4031 146.896C68.3666 147.563 68.3477 147.908 68.1659 148.088C67.9718 148.28 67.592 148.284 66.8066 148.294L66.7801 148.294C66.6178 148.296 66.4551 148.293 66.293 148.289C65.4174 148.271 64.5557 148.253 63.8331 149.086C63.0383 150.003 63.1579 150.975 63.2783 151.954V151.954V151.954C63.3 152.131 63.3217 152.307 63.3381 152.483C63.3967 153.156 63.8038 153.451 64.569 153.445C69.9876 153.409 75.4094 153.409 80.8279 153.438C81.9709 153.445 82.6612 152.831 83.0032 151.922C83.2909 151.15 83.2143 150.304 83.1394 149.476C83.1244 149.31 83.1095 149.146 83.0976 148.983C83.065 148.534 82.6873 148.317 82.176 148.33C81.0721 148.359 79.965 148.346 78.8611 148.333C78.8159 148.332 78.7681 148.336 78.7196 148.339L78.7195 148.339C78.4918 148.354 78.2507 148.371 78.2131 147.999C78.1899 147.763 78.1586 147.528 78.1272 147.293C78.0659 146.833 78.0047 146.373 78.0047 145.914C77.99 142.026 77.9919 138.14 77.9937 134.254V134.253V134.248ZM116.635 132.806C117.216 133.162 117.797 133.52 118.308 133.991V133.984C119.594 135.173 120.565 136.488 121.073 138.21C121.626 140.07 121.659 141.925 121.451 143.818C121.195 143.96 121.164 144.212 121.134 144.45C121.125 144.527 121.116 144.602 121.099 144.672C120.786 145.965 120.301 147.076 119.682 148.043L119.683 148.044C119.708 148.066 119.734 148.089 119.764 148.112C119.523 148.492 119.262 148.865 118.976 149.235C116.377 152.035 112.955 153.243 109.353 153.889C106.515 154.397 103.614 154.324 100.723 154.251C100.526 154.246 100.328 154.241 100.131 154.237C97.6923 154.178 95.3119 153.814 92.964 153.262C91.2219 152.853 89.1313 150.814 90.1082 147.946C90.2032 147.666 90.2784 147.378 90.3536 147.09C90.5648 146.281 90.7764 145.471 91.427 144.831C91.7885 144.474 92.0132 144.445 92.4854 144.679C95.6049 146.221 98.9134 147.28 102.352 147.728C104.97 148.069 107.696 148.043 110.206 147.141C111.379 146.718 112.238 145.666 112.577 144.744C112.58 144.733 112.583 144.723 112.586 144.712C112.603 144.655 112.619 144.599 112.632 144.539C113.088 142.519 112.242 140.811 110.62 139.538C109.646 138.774 108.542 138.244 107.437 137.713C107.16 137.58 106.883 137.447 106.608 137.31C104.746 136.382 102.797 135.674 100.848 134.968C100.254 134.752 99.6607 134.537 99.0697 134.316C96.5656 133.377 92.8045 130.925 91.2382 128.655C90.6911 127.863 90.4306 126.817 90.2222 125.849C89.343 121.78 90.0203 118.019 92.5863 114.68C95.1849 111.842 98.6073 110.614 102.209 109.962C105.037 109.45 107.927 109.523 110.808 109.595C111.016 109.601 111.223 109.606 111.431 109.611C113.87 109.673 116.25 110.04 118.598 110.601C120.34 111.017 122.431 113.086 121.454 115.992C121.359 116.276 121.284 116.568 121.209 116.859C120.998 117.681 120.786 118.503 120.135 119.152C119.774 119.516 119.549 119.545 119.077 119.308C115.957 117.743 112.649 116.671 109.21 116.217C106.592 115.872 103.938 116.126 101.356 116.814C101.251 116.843 101.161 116.929 101.07 117.015C101.028 117.055 100.986 117.095 100.942 117.129C99.6363 117.837 98.845 118.831 98.7473 120.425C98.5747 123.267 100.056 124.888 102.365 126.141C104.601 127.356 106.953 128.294 109.304 129.232C111.247 130.006 113.189 130.781 115.065 131.711C115.547 132.137 116.09 132.471 116.635 132.806Z" fill="white"/>
<g filter="url(#filter8_f_55403_4495)">
<path fill-rule="evenodd" clip-rule="evenodd" d="M100.585 110.302C101.121 110.173 101.663 110.061 102.209 109.962C105.037 109.45 107.927 109.523 110.808 109.596C111.016 109.601 111.223 109.606 111.431 109.611C113.87 109.673 116.25 110.04 118.598 110.602C120.34 111.017 122.431 113.086 121.454 115.993C121.359 116.276 121.284 116.568 121.209 116.859C120.998 117.681 120.787 118.503 120.135 119.153C119.774 119.516 119.549 119.546 119.077 119.308C115.957 117.743 112.649 116.671 109.21 116.217C108.482 116.121 107.752 116.072 107.021 116.065C104.647 114.107 102.508 112.184 100.585 110.302Z" fill="#00FFAA"/>
</g>
<g style="mix-blend-mode:luminosity" filter="url(#filter9_b_55403_4495)">
<path d="M126.735 129.784C126.735 129.784 111.775 119.96 107.33 116.319C85.7213 98.6197 83.3181 83.7715 86.1284 75.9674C89.9741 65.2892 104.081 56.3193 104.081 56.3193C104.081 56.3193 122.033 43.0787 150.418 47.8364C158.745 49.509 171.575 53.9258 170.761 53.7569C200.139 63.948 207.948 77.6757 203.031 96.4633C200.68 107.145 195.978 115.261 195.978 115.261C186.573 133.201 176.743 140.888 160.5 140.888C156.837 140.888 142.974 140.459 126.732 129.784H126.735Z" fill="#131917" fill-opacity="0.1"/>
</g>
<g filter="url(#filter10_f_55403_4495)">
<path fill-rule="evenodd" clip-rule="evenodd" d="M100.094 110.223C100.629 110.094 101.171 109.982 101.717 109.883C104.545 109.371 107.435 109.444 110.316 109.516C110.524 109.522 110.732 109.527 110.939 109.532C113.378 109.594 115.758 109.961 118.106 110.523C119.848 110.938 121.939 113.007 120.962 115.914C120.867 116.197 120.793 116.489 120.718 116.78C120.506 117.602 120.295 118.424 119.643 119.074C119.282 119.437 119.057 119.466 118.585 119.229C115.465 117.664 112.157 116.592 108.718 116.138C107.991 116.042 107.26 115.992 106.529 115.986C104.155 114.028 102.017 112.105 100.094 110.223Z" fill="#00FFAA" style="mix-blend-mode:luminosity"/>
</g>
<g style="mix-blend-mode:overlay" filter="url(#filter11_f_55403_4495)">
<path fill-rule="evenodd" clip-rule="evenodd" d="M163.064 137.641C174.592 135.901 182.326 128.697 189.77 114.532C189.77 114.532 194.098 107.08 196.263 97.2724C200.789 80.0216 193.601 67.4168 166.559 58.0593C167.308 58.2144 155.498 54.1589 147.834 52.6232C125.197 48.8382 109.769 57.4584 106.05 59.8294C106.889 59.2397 107.394 58.9195 107.394 58.9195C107.394 58.9195 124.163 46.5791 150.679 51.0134C158.457 52.5722 170.442 56.6887 169.681 56.5313C197.125 66.0295 204.419 78.8239 199.826 96.334C197.63 106.289 193.237 113.853 193.237 113.853C185.04 129.454 176.497 136.736 163.064 137.641Z" fill="white"/>
</g>
<g style="mix-blend-mode:overlay" filter="url(#filter12_f_55403_4495)">
<path fill-rule="evenodd" clip-rule="evenodd" d="M142.665 50.1385C143.253 50.2224 143.846 50.3142 144.443 50.414C152.63 52.0536 165.246 56.3835 164.445 56.218C193.333 66.2086 201.011 79.6664 196.176 98.0845C193.865 108.556 189.241 116.512 189.241 116.512C185.406 123.806 181.498 129.372 177.099 133.387C183.261 129.599 188.311 123.228 193.237 113.854C193.237 113.854 197.629 106.29 199.826 96.3344C204.419 78.8242 197.124 66.0298 169.681 56.5316C170.441 56.689 158.457 52.5726 150.679 51.0137C147.898 50.5487 145.224 50.2681 142.665 50.1385Z" fill="white"/>
</g>
<g style="mix-blend-mode:overlay" filter="url(#filter13_f_55403_4495)">
<path fill-rule="evenodd" clip-rule="evenodd" d="M163.737 55.0563C164.755 55.4064 165.281 55.6062 165.097 55.5681C193.985 65.5587 202.64 79.6661 197.805 98.0842C195.493 108.556 190.869 116.512 190.869 116.512C189.047 119.979 187.169 123.055 185.208 125.76C187.772 122.576 190.194 118.731 192.586 114.178C192.586 114.178 196.979 106.614 199.175 96.6589C203.768 79.1488 196.474 66.3544 169.03 56.8562C169.377 56.9279 167.078 56.1127 163.737 55.0563Z" fill="url(#paint3_linear_55403_4495)"/>
</g>
<g style="mix-blend-mode:overlay" filter="url(#filter14_f_55403_4495)">
<path fill-rule="evenodd" clip-rule="evenodd" d="M163.737 55.0563C164.755 55.4064 165.281 55.6062 165.097 55.5681C193.985 65.5587 202.64 79.6661 197.805 98.0842C195.493 108.556 190.869 116.512 190.869 116.512C189.047 119.979 187.169 123.055 185.208 125.76C187.772 122.576 190.194 118.731 192.586 114.178C192.586 114.178 196.979 106.614 199.175 96.6589C203.768 79.1488 196.474 66.3544 169.03 56.8562C169.377 56.9279 167.078 56.1127 163.737 55.0563Z" fill="url(#paint4_linear_55403_4495)"/>
</g>
<g style="mix-blend-mode:overlay" filter="url(#filter15_f_55403_4495)">
<path d="M198.01 75.221C199.988 78.6383 201.754 85.4511 199.801 85.4511C198.624 86.1288 197.708 80.7663 195.73 77.349C193.752 73.9317 189.543 69.0505 189.543 68.2386C190.72 67.5608 196.031 71.8037 198.01 75.221Z" fill="white" style="mix-blend-mode:overlay"/>
</g>
<g style="mix-blend-mode:color-dodge" filter="url(#filter16_f_55403_4495)">
<path d="M197.683 75.8704C199.662 79.2877 200.777 82.8528 198.823 82.8528C197.683 81.8785 198.034 81.7405 196.055 78.3232C194.077 74.9059 193.45 73.5971 193.45 72.7851C194.627 72.1074 195.705 72.4531 197.683 75.8704Z" fill="white" style="mix-blend-mode:overlay"/>
</g>
<path d="M39.5125 181.461C39.5125 181.227 39.476 181.019 39.4031 180.836C39.3354 180.654 39.213 180.487 39.0359 180.336C38.8589 180.185 38.6089 180.04 38.2859 179.899C37.9682 179.753 37.562 179.605 37.0672 179.454C36.5255 179.287 36.0255 179.102 35.5672 178.899C35.1141 178.691 34.7182 178.451 34.3797 178.18C34.0411 177.904 33.7781 177.589 33.5906 177.235C33.4031 176.875 33.3094 176.461 33.3094 175.993C33.3094 175.529 33.4057 175.107 33.5984 174.727C33.7964 174.347 34.075 174.019 34.4344 173.743C34.799 173.461 35.2286 173.245 35.7234 173.094C36.2182 172.938 36.7651 172.86 37.3641 172.86C38.2078 172.86 38.9344 173.016 39.5437 173.329C40.1583 173.641 40.6297 174.06 40.9578 174.586C41.2911 175.112 41.4578 175.693 41.4578 176.329H39.5125C39.5125 175.954 39.4318 175.623 39.2703 175.336C39.1141 175.045 38.8745 174.816 38.5516 174.649C38.2339 174.482 37.8302 174.399 37.3406 174.399C36.8771 174.399 36.4917 174.469 36.1844 174.61C35.8771 174.75 35.6479 174.941 35.4969 175.18C35.3458 175.42 35.2703 175.691 35.2703 175.993C35.2703 176.206 35.3198 176.402 35.4187 176.579C35.5177 176.75 35.6687 176.912 35.8719 177.063C36.075 177.209 36.3302 177.347 36.6375 177.477C36.9448 177.607 37.3068 177.732 37.7234 177.852C38.3536 178.04 38.9031 178.248 39.3719 178.477C39.8406 178.701 40.2312 178.956 40.5437 179.243C40.8562 179.529 41.0906 179.855 41.2469 180.219C41.4031 180.579 41.4812 180.987 41.4812 181.446C41.4812 181.925 41.3849 182.357 41.1922 182.743C40.9995 183.123 40.7234 183.448 40.3641 183.719C40.0099 183.985 39.5828 184.191 39.0828 184.336C38.588 184.477 38.0359 184.547 37.4266 184.547C36.8797 184.547 36.3406 184.474 35.8094 184.329C35.2833 184.183 34.8042 183.961 34.3719 183.665C33.9396 183.362 33.5958 182.987 33.3406 182.54C33.0854 182.086 32.9578 181.558 32.9578 180.954H34.9187C34.9187 181.323 34.9812 181.639 35.1062 181.899C35.2365 182.159 35.4161 182.373 35.6453 182.54C35.8745 182.701 36.1401 182.821 36.4422 182.899C36.7495 182.977 37.0776 183.016 37.4266 183.016C37.8849 183.016 38.2677 182.951 38.575 182.821C38.8875 182.691 39.1219 182.508 39.2781 182.274C39.4344 182.04 39.5125 181.769 39.5125 181.461ZM45.0609 177.657V184.391H43.1781V175.938H44.9516L45.0609 177.657ZM44.7562 179.852L44.1156 179.844C44.1156 179.261 44.1885 178.722 44.3344 178.227C44.4802 177.732 44.6937 177.303 44.975 176.938C45.2562 176.568 45.6052 176.284 46.0219 176.086C46.4437 175.883 46.9307 175.782 47.4828 175.782C47.8682 175.782 48.2198 175.839 48.5375 175.954C48.8604 176.063 49.1391 176.237 49.3734 176.477C49.613 176.717 49.7953 177.024 49.9203 177.399C50.0505 177.774 50.1156 178.227 50.1156 178.758V184.391H48.2328V178.922C48.2328 178.511 48.1703 178.188 48.0453 177.954C47.9255 177.719 47.751 177.553 47.5219 177.454C47.2979 177.349 47.0297 177.297 46.7172 177.297C46.363 177.297 46.0609 177.365 45.8109 177.5C45.5661 177.636 45.3656 177.821 45.2094 178.055C45.0531 178.29 44.9385 178.56 44.8656 178.868C44.7927 179.175 44.7562 179.503 44.7562 179.852ZM49.9984 179.352L49.1156 179.547C49.1156 179.037 49.1859 178.555 49.3266 178.102C49.4724 177.644 49.6833 177.243 49.9594 176.899C50.2406 176.55 50.587 176.277 50.9984 176.079C51.4099 175.881 51.8812 175.782 52.4125 175.782C52.8448 175.782 53.2302 175.842 53.5687 175.961C53.9125 176.076 54.2042 176.258 54.4437 176.508C54.6833 176.758 54.8656 177.084 54.9906 177.485C55.1156 177.881 55.1781 178.36 55.1781 178.922V184.391H53.2875V178.915C53.2875 178.487 53.225 178.157 53.1 177.922C52.9802 177.688 52.8083 177.527 52.5844 177.438C52.3604 177.344 52.0922 177.297 51.7797 177.297C51.488 177.297 51.2302 177.352 51.0062 177.461C50.7875 177.566 50.6026 177.714 50.4516 177.907C50.3005 178.094 50.1859 178.31 50.1078 178.555C50.0349 178.8 49.9984 179.066 49.9984 179.352ZM62.0312 182.696V178.665C62.0312 178.362 61.9766 178.102 61.8672 177.883C61.7578 177.665 61.5911 177.495 61.3672 177.375C61.1484 177.256 60.8724 177.196 60.5391 177.196C60.2318 177.196 59.9661 177.248 59.7422 177.352C59.5182 177.456 59.3437 177.597 59.2187 177.774C59.0937 177.951 59.0312 178.152 59.0312 178.375H57.1562C57.1562 178.042 57.237 177.719 57.3984 177.407C57.5599 177.094 57.7943 176.816 58.1016 176.571C58.4089 176.326 58.776 176.133 59.2031 175.993C59.6302 175.852 60.1094 175.782 60.6406 175.782C61.276 175.782 61.8385 175.889 62.3281 176.102C62.8229 176.316 63.2109 176.639 63.4922 177.071C63.7786 177.498 63.9219 178.034 63.9219 178.68V182.438C63.9219 182.823 63.9479 183.17 64 183.477C64.0573 183.779 64.138 184.042 64.2422 184.266V184.391H62.3125C62.224 184.188 62.1536 183.93 62.1016 183.618C62.0547 183.3 62.0312 182.993 62.0312 182.696ZM62.3047 179.25L62.3203 180.415H60.9687C60.6198 180.415 60.3125 180.448 60.0469 180.516C59.7812 180.579 59.5599 180.672 59.3828 180.797C59.2057 180.922 59.0729 181.073 58.9844 181.25C58.8958 181.428 58.8516 181.628 58.8516 181.852C58.8516 182.076 58.9036 182.282 59.0078 182.469C59.112 182.652 59.263 182.795 59.4609 182.899C59.6641 183.003 59.9089 183.055 60.1953 183.055C60.5807 183.055 60.9167 182.977 61.2031 182.821C61.4948 182.659 61.724 182.464 61.8906 182.235C62.0573 182 62.1458 181.779 62.1562 181.571L62.7656 182.407C62.7031 182.62 62.5964 182.849 62.4453 183.094C62.2943 183.339 62.0964 183.573 61.8516 183.797C61.612 184.016 61.3229 184.196 60.9844 184.336C60.651 184.477 60.2656 184.547 59.8281 184.547C59.276 184.547 58.7839 184.438 58.3516 184.219C57.9193 183.995 57.5807 183.696 57.3359 183.321C57.0911 182.941 56.9687 182.511 56.9687 182.032C56.9687 181.584 57.0521 181.188 57.2187 180.844C57.3906 180.495 57.6406 180.204 57.9687 179.969C58.3021 179.735 58.7083 179.558 59.1875 179.438C59.6667 179.313 60.2135 179.25 60.8281 179.25H62.3047ZM67.9312 177.547V184.391H66.0484V175.938H67.8453L67.9312 177.547ZM70.5172 175.883L70.5016 177.633C70.387 177.612 70.262 177.597 70.1266 177.586C69.9964 177.576 69.8661 177.571 69.7359 177.571C69.413 177.571 69.1292 177.618 68.8844 177.711C68.6396 177.8 68.4339 177.93 68.2672 178.102C68.1057 178.269 67.9807 178.472 67.8922 178.711C67.8036 178.951 67.7516 179.219 67.7359 179.516L67.3062 179.547C67.3062 179.016 67.3583 178.524 67.4625 178.071C67.5667 177.618 67.7229 177.219 67.9312 176.875C68.1448 176.532 68.4104 176.264 68.7281 176.071C69.051 175.878 69.4234 175.782 69.8453 175.782C69.9599 175.782 70.0823 175.792 70.2125 175.813C70.3479 175.834 70.4495 175.857 70.5172 175.883ZM76.1125 175.938V177.313H71.3469V175.938H76.1125ZM72.7219 173.868H74.6047V182.055C74.6047 182.316 74.6411 182.516 74.7141 182.657C74.7922 182.792 74.899 182.883 75.0344 182.93C75.1698 182.977 75.3286 183 75.5109 183C75.6411 183 75.7661 182.993 75.8859 182.977C76.0057 182.961 76.1021 182.946 76.175 182.93L76.1828 184.368C76.0266 184.415 75.8443 184.456 75.6359 184.493C75.4328 184.529 75.1984 184.547 74.9328 184.547C74.5005 184.547 74.1177 184.472 73.7844 184.321C73.451 184.165 73.1906 183.912 73.0031 183.563C72.8156 183.214 72.7219 182.75 72.7219 182.172V173.868ZM88.0219 181.461C88.0219 181.227 87.9854 181.019 87.9125 180.836C87.8448 180.654 87.7224 180.487 87.5453 180.336C87.3682 180.185 87.1182 180.04 86.7953 179.899C86.4776 179.753 86.0714 179.605 85.5766 179.454C85.0349 179.287 84.5349 179.102 84.0766 178.899C83.6234 178.691 83.2276 178.451 82.8891 178.18C82.5505 177.904 82.2875 177.589 82.1 177.235C81.9125 176.875 81.8187 176.461 81.8187 175.993C81.8187 175.529 81.9151 175.107 82.1078 174.727C82.3057 174.347 82.5844 174.019 82.9437 173.743C83.3083 173.461 83.738 173.245 84.2328 173.094C84.7276 172.938 85.2745 172.86 85.8734 172.86C86.7172 172.86 87.4437 173.016 88.0531 173.329C88.6677 173.641 89.1391 174.06 89.4672 174.586C89.8005 175.112 89.9672 175.693 89.9672 176.329H88.0219C88.0219 175.954 87.9411 175.623 87.7797 175.336C87.6234 175.045 87.3839 174.816 87.0609 174.649C86.7432 174.482 86.3396 174.399 85.85 174.399C85.3865 174.399 85.001 174.469 84.6937 174.61C84.3865 174.75 84.1573 174.941 84.0062 175.18C83.8552 175.42 83.7797 175.691 83.7797 175.993C83.7797 176.206 83.8292 176.402 83.9281 176.579C84.0271 176.75 84.1781 176.912 84.3812 177.063C84.5844 177.209 84.8396 177.347 85.1469 177.477C85.4542 177.607 85.8161 177.732 86.2328 177.852C86.863 178.04 87.4125 178.248 87.8812 178.477C88.35 178.701 88.7406 178.956 89.0531 179.243C89.3656 179.529 89.6 179.855 89.7562 180.219C89.9125 180.579 89.9906 180.987 89.9906 181.446C89.9906 181.925 89.8943 182.357 89.7016 182.743C89.5089 183.123 89.2328 183.448 88.8734 183.719C88.5193 183.985 88.0922 184.191 87.5922 184.336C87.0974 184.477 86.5453 184.547 85.9359 184.547C85.3891 184.547 84.85 184.474 84.3187 184.329C83.7927 184.183 83.3135 183.961 82.8812 183.665C82.449 183.362 82.1052 182.987 81.85 182.54C81.5948 182.086 81.4672 181.558 81.4672 180.954H83.4281C83.4281 181.323 83.4906 181.639 83.6156 181.899C83.7458 182.159 83.9255 182.373 84.1547 182.54C84.3839 182.701 84.6495 182.821 84.9516 182.899C85.2589 182.977 85.587 183.016 85.9359 183.016C86.3943 183.016 86.7771 182.951 87.0844 182.821C87.3969 182.691 87.6312 182.508 87.7875 182.274C87.9437 182.04 88.0219 181.769 88.0219 181.461ZM96.7734 182.399V175.938H98.6641V184.391H96.8828L96.7734 182.399ZM97.0391 180.641L97.6719 180.625C97.6719 181.193 97.6094 181.717 97.4844 182.196C97.3594 182.67 97.1667 183.084 96.9062 183.438C96.6458 183.787 96.3125 184.06 95.9062 184.258C95.5 184.451 95.013 184.547 94.4453 184.547C94.0339 184.547 93.6562 184.487 93.3125 184.368C92.9687 184.248 92.6719 184.063 92.4219 183.813C92.1771 183.563 91.987 183.237 91.8516 182.836C91.7161 182.435 91.6484 181.956 91.6484 181.399V175.938H93.5312V181.415C93.5312 181.722 93.5677 181.98 93.6406 182.188C93.7135 182.391 93.8125 182.555 93.9375 182.68C94.0625 182.805 94.2083 182.894 94.375 182.946C94.5417 182.998 94.7187 183.024 94.9062 183.024C95.4427 183.024 95.8646 182.92 96.1719 182.711C96.4844 182.498 96.7057 182.211 96.8359 181.852C96.9714 181.493 97.0391 181.089 97.0391 180.641ZM105.486 182.102C105.486 181.915 105.439 181.745 105.345 181.594C105.252 181.438 105.072 181.297 104.806 181.172C104.546 181.047 104.16 180.933 103.65 180.829C103.202 180.73 102.791 180.612 102.416 180.477C102.046 180.336 101.728 180.167 101.462 179.969C101.197 179.771 100.991 179.537 100.845 179.266C100.699 178.995 100.627 178.683 100.627 178.329C100.627 177.985 100.702 177.659 100.853 177.352C101.004 177.045 101.22 176.774 101.502 176.54C101.783 176.305 102.124 176.12 102.525 175.985C102.931 175.849 103.384 175.782 103.884 175.782C104.593 175.782 105.199 175.902 105.705 176.141C106.215 176.375 106.606 176.696 106.877 177.102C107.147 177.503 107.283 177.956 107.283 178.461H105.4C105.4 178.237 105.343 178.029 105.228 177.836C105.119 177.639 104.952 177.48 104.728 177.36C104.504 177.235 104.223 177.172 103.884 177.172C103.561 177.172 103.293 177.224 103.08 177.329C102.871 177.428 102.715 177.558 102.611 177.719C102.512 177.881 102.462 178.058 102.462 178.25C102.462 178.391 102.489 178.519 102.541 178.633C102.598 178.743 102.692 178.844 102.822 178.938C102.952 179.027 103.129 179.11 103.353 179.188C103.582 179.266 103.869 179.342 104.212 179.415C104.858 179.55 105.413 179.724 105.877 179.938C106.345 180.146 106.705 180.417 106.955 180.75C107.205 181.079 107.33 181.495 107.33 182C107.33 182.375 107.249 182.719 107.087 183.032C106.931 183.339 106.702 183.607 106.4 183.836C106.098 184.06 105.736 184.235 105.314 184.36C104.897 184.485 104.429 184.547 103.908 184.547C103.142 184.547 102.494 184.412 101.962 184.141C101.431 183.865 101.028 183.514 100.752 183.086C100.481 182.654 100.345 182.206 100.345 181.743H102.166C102.186 182.092 102.283 182.37 102.455 182.579C102.632 182.782 102.851 182.93 103.111 183.024C103.377 183.112 103.65 183.157 103.931 183.157C104.27 183.157 104.554 183.112 104.783 183.024C105.012 182.93 105.186 182.805 105.306 182.649C105.426 182.487 105.486 182.305 105.486 182.102ZM113.003 175.938V177.313H108.237V175.938H113.003ZM109.612 173.868H111.495V182.055C111.495 182.316 111.532 182.516 111.605 182.657C111.683 182.792 111.79 182.883 111.925 182.93C112.06 182.977 112.219 183 112.402 183C112.532 183 112.657 182.993 112.777 182.977C112.896 182.961 112.993 182.946 113.066 182.93L113.073 184.368C112.917 184.415 112.735 184.456 112.527 184.493C112.323 184.529 112.089 184.547 111.823 184.547C111.391 184.547 111.008 184.472 110.675 184.321C110.342 184.165 110.081 183.912 109.894 183.563C109.706 183.214 109.612 182.75 109.612 182.172V173.868ZM119.372 182.696V178.665C119.372 178.362 119.317 178.102 119.208 177.883C119.098 177.665 118.932 177.495 118.708 177.375C118.489 177.256 118.213 177.196 117.88 177.196C117.572 177.196 117.307 177.248 117.083 177.352C116.859 177.456 116.684 177.597 116.559 177.774C116.434 177.951 116.372 178.152 116.372 178.375H114.497C114.497 178.042 114.578 177.719 114.739 177.407C114.901 177.094 115.135 176.816 115.442 176.571C115.749 176.326 116.117 176.133 116.544 175.993C116.971 175.852 117.45 175.782 117.981 175.782C118.617 175.782 119.179 175.889 119.669 176.102C120.164 176.316 120.552 176.639 120.833 177.071C121.119 177.498 121.262 178.034 121.262 178.68V182.438C121.262 182.823 121.289 183.17 121.341 183.477C121.398 183.779 121.479 184.042 121.583 184.266V184.391H119.653C119.565 184.188 119.494 183.93 119.442 183.618C119.395 183.3 119.372 182.993 119.372 182.696ZM119.645 179.25L119.661 180.415H118.309C117.96 180.415 117.653 180.448 117.387 180.516C117.122 180.579 116.901 180.672 116.723 180.797C116.546 180.922 116.414 181.073 116.325 181.25C116.236 181.428 116.192 181.628 116.192 181.852C116.192 182.076 116.244 182.282 116.348 182.469C116.453 182.652 116.604 182.795 116.802 182.899C117.005 183.003 117.249 183.055 117.536 183.055C117.921 183.055 118.257 182.977 118.544 182.821C118.835 182.659 119.065 182.464 119.231 182.235C119.398 182 119.486 181.779 119.497 181.571L120.106 182.407C120.044 182.62 119.937 182.849 119.786 183.094C119.635 183.339 119.437 183.573 119.192 183.797C118.953 184.016 118.664 184.196 118.325 184.336C117.992 184.477 117.606 184.547 117.169 184.547C116.617 184.547 116.124 184.438 115.692 184.219C115.26 183.995 114.921 183.696 114.677 183.321C114.432 182.941 114.309 182.511 114.309 182.032C114.309 181.584 114.393 181.188 114.559 180.844C114.731 180.495 114.981 180.204 115.309 179.969C115.643 179.735 116.049 179.558 116.528 179.438C117.007 179.313 117.554 179.25 118.169 179.25H119.645ZM125.397 175.938V184.391H123.506V175.938H125.397ZM123.381 173.719C123.381 173.433 123.475 173.196 123.662 173.008C123.855 172.816 124.121 172.719 124.459 172.719C124.793 172.719 125.056 172.816 125.248 173.008C125.441 173.196 125.537 173.433 125.537 173.719C125.537 174 125.441 174.235 125.248 174.422C125.056 174.61 124.793 174.704 124.459 174.704C124.121 174.704 123.855 174.61 123.662 174.422C123.475 174.235 123.381 174 123.381 173.719ZM129.477 177.743V184.391H127.594V175.938H129.367L129.477 177.743ZM129.141 179.852L128.531 179.844C128.536 179.245 128.62 178.696 128.781 178.196C128.948 177.696 129.177 177.266 129.469 176.907C129.766 176.547 130.12 176.271 130.531 176.079C130.943 175.881 131.401 175.782 131.906 175.782C132.312 175.782 132.68 175.839 133.008 175.954C133.341 176.063 133.625 176.243 133.859 176.493C134.099 176.743 134.281 177.068 134.406 177.469C134.531 177.865 134.594 178.352 134.594 178.93V184.391H132.703V178.922C132.703 178.516 132.643 178.196 132.523 177.961C132.409 177.722 132.24 177.553 132.016 177.454C131.797 177.349 131.523 177.297 131.195 177.297C130.872 177.297 130.583 177.365 130.328 177.5C130.073 177.636 129.857 177.821 129.68 178.055C129.508 178.29 129.375 178.56 129.281 178.868C129.188 179.175 129.141 179.503 129.141 179.852ZM141.431 182.696V178.665C141.431 178.362 141.377 178.102 141.267 177.883C141.158 177.665 140.991 177.495 140.767 177.375C140.548 177.256 140.272 177.196 139.939 177.196C139.632 177.196 139.366 177.248 139.142 177.352C138.918 177.456 138.744 177.597 138.619 177.774C138.494 177.951 138.431 178.152 138.431 178.375H136.556C136.556 178.042 136.637 177.719 136.798 177.407C136.96 177.094 137.194 176.816 137.502 176.571C137.809 176.326 138.176 176.133 138.603 175.993C139.03 175.852 139.509 175.782 140.041 175.782C140.676 175.782 141.239 175.889 141.728 176.102C142.223 176.316 142.611 176.639 142.892 177.071C143.179 177.498 143.322 178.034 143.322 178.68V182.438C143.322 182.823 143.348 183.17 143.4 183.477C143.457 183.779 143.538 184.042 143.642 184.266V184.391H141.712C141.624 184.188 141.554 183.93 141.502 183.618C141.455 183.3 141.431 182.993 141.431 182.696ZM141.705 179.25L141.72 180.415H140.369C140.02 180.415 139.712 180.448 139.447 180.516C139.181 180.579 138.96 180.672 138.783 180.797C138.606 180.922 138.473 181.073 138.384 181.25C138.296 181.428 138.252 181.628 138.252 181.852C138.252 182.076 138.304 182.282 138.408 182.469C138.512 182.652 138.663 182.795 138.861 182.899C139.064 183.003 139.309 183.055 139.595 183.055C139.981 183.055 140.317 182.977 140.603 182.821C140.895 182.659 141.124 182.464 141.291 182.235C141.457 182 141.546 181.779 141.556 181.571L142.166 182.407C142.103 182.62 141.996 182.849 141.845 183.094C141.694 183.339 141.496 183.573 141.252 183.797C141.012 184.016 140.723 184.196 140.384 184.336C140.051 184.477 139.666 184.547 139.228 184.547C138.676 184.547 138.184 184.438 137.752 184.219C137.319 183.995 136.981 183.696 136.736 183.321C136.491 182.941 136.369 182.511 136.369 182.032C136.369 181.584 136.452 181.188 136.619 180.844C136.791 180.495 137.041 180.204 137.369 179.969C137.702 179.735 138.108 179.558 138.587 179.438C139.067 179.313 139.614 179.25 140.228 179.25H141.705ZM145.448 172.391H147.331V182.586L147.152 184.391H145.448V172.391ZM152.847 180.086V180.25C152.847 180.875 152.777 181.451 152.636 181.977C152.501 182.498 152.292 182.951 152.011 183.336C151.735 183.722 151.391 184.021 150.98 184.235C150.573 184.443 150.102 184.547 149.566 184.547C149.04 184.547 148.581 184.448 148.191 184.25C147.8 184.053 147.472 183.771 147.206 183.407C146.946 183.042 146.735 182.607 146.573 182.102C146.412 181.597 146.297 181.04 146.23 180.43V179.907C146.297 179.292 146.412 178.735 146.573 178.235C146.735 177.73 146.946 177.295 147.206 176.93C147.472 176.56 147.797 176.277 148.183 176.079C148.573 175.881 149.029 175.782 149.55 175.782C150.092 175.782 150.568 175.886 150.98 176.094C151.396 176.303 151.743 176.599 152.019 176.985C152.295 177.365 152.501 177.818 152.636 178.344C152.777 178.87 152.847 179.451 152.847 180.086ZM150.964 180.25V180.086C150.964 179.706 150.933 179.349 150.87 179.016C150.808 178.678 150.704 178.381 150.558 178.125C150.417 177.87 150.224 177.67 149.98 177.524C149.74 177.373 149.441 177.297 149.081 177.297C148.748 177.297 148.461 177.355 148.222 177.469C147.982 177.584 147.782 177.74 147.62 177.938C147.459 178.136 147.331 178.365 147.237 178.625C147.149 178.886 147.089 179.167 147.058 179.469V180.883C147.105 181.274 147.204 181.633 147.355 181.961C147.511 182.284 147.73 182.545 148.011 182.743C148.292 182.935 148.654 183.032 149.097 183.032C149.446 183.032 149.74 182.961 149.98 182.821C150.219 182.68 150.409 182.485 150.55 182.235C150.696 181.98 150.8 181.683 150.862 181.344C150.93 181.006 150.964 180.641 150.964 180.25ZM156.606 175.938V184.391H154.716V175.938H156.606ZM154.591 173.719C154.591 173.433 154.684 173.196 154.872 173.008C155.065 172.816 155.33 172.719 155.669 172.719C156.002 172.719 156.265 172.816 156.458 173.008C156.651 173.196 156.747 173.433 156.747 173.719C156.747 174 156.651 174.235 156.458 174.422C156.265 174.61 156.002 174.704 155.669 174.704C155.33 174.704 155.065 174.61 154.872 174.422C154.684 174.235 154.591 174 154.591 173.719ZM160.834 172.391V184.391H158.944V172.391H160.834ZM165.062 175.938V184.391H163.172V175.938H165.062ZM163.047 173.719C163.047 173.433 163.141 173.196 163.328 173.008C163.521 172.816 163.786 172.719 164.125 172.719C164.458 172.719 164.721 172.816 164.914 173.008C165.107 173.196 165.203 173.433 165.203 173.719C165.203 174 165.107 174.235 164.914 174.422C164.721 174.61 164.458 174.704 164.125 174.704C163.786 174.704 163.521 174.61 163.328 174.422C163.141 174.235 163.047 174 163.047 173.719ZM171.15 175.938V177.313H166.384V175.938H171.15ZM167.759 173.868H169.642V182.055C169.642 182.316 169.679 182.516 169.752 182.657C169.83 182.792 169.936 182.883 170.072 182.93C170.207 182.977 170.366 183 170.548 183C170.679 183 170.804 182.993 170.923 182.977C171.043 182.961 171.14 182.946 171.212 182.93L171.22 184.368C171.064 184.415 170.882 184.456 170.673 184.493C170.47 184.529 170.236 184.547 169.97 184.547C169.538 184.547 169.155 184.472 168.822 184.321C168.489 184.165 168.228 183.912 168.041 183.563C167.853 183.214 167.759 182.75 167.759 182.172V173.868ZM175.206 183.469L177.503 175.938H179.519L176.128 185.68C176.05 185.889 175.948 186.115 175.823 186.36C175.698 186.605 175.534 186.836 175.331 187.055C175.133 187.279 174.886 187.459 174.589 187.594C174.292 187.735 173.933 187.805 173.511 187.805C173.344 187.805 173.183 187.79 173.027 187.758C172.876 187.732 172.732 187.704 172.597 187.672L172.589 186.235C172.641 186.24 172.704 186.245 172.777 186.25C172.855 186.256 172.917 186.258 172.964 186.258C173.277 186.258 173.537 186.219 173.745 186.141C173.954 186.068 174.123 185.948 174.253 185.782C174.389 185.615 174.503 185.391 174.597 185.11L175.206 183.469ZM173.909 175.938L175.917 182.266L176.253 184.25L174.948 184.586L171.878 175.938H173.909Z" fill="white"/>
<defs>
<filter id="filter0_f_55403_4495" x="92.6636" y="0.139038" width="158.439" height="183.249" filterUnits="userSpaceOnUse" color-interpolation-filters="sRGB">
<feFlood flood-opacity="0" result="BackgroundImageFix"/>
<feBlend mode="normal" in="SourceGraphic" in2="BackgroundImageFix" result="shape"/>
<feGaussianBlur stdDeviation="25" result="effect1_foregroundBlur_55403_4495"/>
</filter>
<filter id="filter1_f_55403_4495" x="133.729" y="25.0536" width="96.7231" height="130.704" filterUnits="userSpaceOnUse" color-interpolation-filters="sRGB">
<feFlood flood-opacity="0" result="BackgroundImageFix"/>
<feBlend mode="normal" in="SourceGraphic" in2="BackgroundImageFix" result="shape"/>
<feGaussianBlur stdDeviation="15" result="effect1_foregroundBlur_55403_4495"/>
</filter>
<filter id="filter2_b_55403_4495" x="43.511" y="1.60883" width="204.637" height="188.902" filterUnits="userSpaceOnUse" color-interpolation-filters="sRGB">
<feFlood flood-opacity="0" result="BackgroundImageFix"/>
<feGaussianBlur in="BackgroundImageFix" stdDeviation="20"/>
<feComposite in2="SourceAlpha" operator="in" result="effect1_backgroundBlur_55403_4495"/>
<feBlend mode="normal" in="SourceGraphic" in2="effect1_backgroundBlur_55403_4495" result="shape"/>
</filter>
<filter id="filter3_f_55403_4495" x="198.975" y="50.5938" width="11.1672" height="14.307" filterUnits="userSpaceOnUse" color-interpolation-filters="sRGB">
<feFlood flood-opacity="0" result="BackgroundImageFix"/>
<feBlend mode="normal" in="SourceGraphic" in2="BackgroundImageFix" result="shape"/>
<feGaussianBlur stdDeviation="2" result="effect1_foregroundBlur_55403_4495"/>
</filter>
<filter id="filter4_f_55403_4495" x="201.629" y="53.8751" width="6.02258" height="7.69275" filterUnits="userSpaceOnUse" color-interpolation-filters="sRGB">
<feFlood flood-opacity="0" result="BackgroundImageFix"/>
<feBlend mode="normal" in="SourceGraphic" in2="BackgroundImageFix" result="shape"/>
<feGaussianBlur stdDeviation="1" result="effect1_foregroundBlur_55403_4495"/>
</filter>
<filter id="filter5_f_55403_4495" x="196.82" y="67.7646" width="15.9882" height="31.5681" filterUnits="userSpaceOnUse" color-interpolation-filters="sRGB">
<feFlood flood-opacity="0" result="BackgroundImageFix"/>
<feBlend mode="normal" in="SourceGraphic" in2="BackgroundImageFix" result="shape"/>
<feGaussianBlur stdDeviation="1" result="effect1_foregroundBlur_55403_4495"/>
</filter>
<filter id="filter6_f_55403_4495" x="196.82" y="67.7646" width="15.9882" height="31.5681" filterUnits="userSpaceOnUse" color-interpolation-filters="sRGB">
<feFlood flood-opacity="0" result="BackgroundImageFix"/>
<feBlend mode="normal" in="SourceGraphic" in2="BackgroundImageFix" result="shape"/>
<feGaussianBlur stdDeviation="1" result="effect1_foregroundBlur_55403_4495"/>
</filter>
<filter id="filter7_f_55403_4495" x="203.793" y="75.2649" width="7.13184" height="10.5546" filterUnits="userSpaceOnUse" color-interpolation-filters="sRGB">
<feFlood flood-opacity="0" result="BackgroundImageFix"/>
<feBlend mode="normal" in="SourceGraphic" in2="BackgroundImageFix" result="shape"/>
<feGaussianBlur stdDeviation="1" result="effect1_foregroundBlur_55403_4495"/>
</filter>
<filter id="filter8_f_55403_4495" x="97.5854" y="106.544" width="27.1177" height="15.9171" filterUnits="userSpaceOnUse" color-interpolation-filters="sRGB">
<feFlood flood-opacity="0" result="BackgroundImageFix"/>
<feBlend mode="normal" in="SourceGraphic" in2="BackgroundImageFix" result="shape"/>
<feGaussianBlur stdDeviation="1.5" result="effect1_foregroundBlur_55403_4495"/>
</filter>
<filter id="filter9_b_55403_4495" x="81.1772" y="42.8047" width="127.221" height="102.083" filterUnits="userSpaceOnUse" color-interpolation-filters="sRGB">
<feFlood flood-opacity="0" result="BackgroundImageFix"/>
<feGaussianBlur in="BackgroundImageFix" stdDeviation="2"/>
<feComposite in2="SourceAlpha" operator="in" result="effect1_backgroundBlur_55403_4495"/>
<feBlend mode="normal" in="SourceGraphic" in2="effect1_backgroundBlur_55403_4495" result="shape"/>
</filter>
<filter id="filter10_f_55403_4495" x="95.0935" y="104.465" width="31.1179" height="19.9171" filterUnits="userSpaceOnUse" color-interpolation-filters="sRGB">
<feFlood flood-opacity="0" result="BackgroundImageFix"/>
<feBlend mode="normal" in="SourceGraphic" in2="BackgroundImageFix" result="shape"/>
<feGaussianBlur stdDeviation="2.5" result="effect1_foregroundBlur_55403_4495"/>
</filter>
<filter id="filter11_f_55403_4495" x="94.0503" y="38.0518" width="119.052" height="111.589" filterUnits="userSpaceOnUse" color-interpolation-filters="sRGB">
<feFlood flood-opacity="0" result="BackgroundImageFix"/>
<feBlend mode="normal" in="SourceGraphic" in2="BackgroundImageFix" result="shape"/>
<feGaussianBlur stdDeviation="6" result="effect1_foregroundBlur_55403_4495"/>
</filter>
<filter id="filter12_f_55403_4495" x="130.665" y="38.1385" width="82.437" height="107.249" filterUnits="userSpaceOnUse" color-interpolation-filters="sRGB">
<feFlood flood-opacity="0" result="BackgroundImageFix"/>
<feBlend mode="normal" in="SourceGraphic" in2="BackgroundImageFix" result="shape"/>
<feGaussianBlur stdDeviation="6" result="effect1_foregroundBlur_55403_4495"/>
</filter>
<filter id="filter13_f_55403_4495" x="159.737" y="51.0563" width="44.7144" height="78.7037" filterUnits="userSpaceOnUse" color-interpolation-filters="sRGB">
<feFlood flood-opacity="0" result="BackgroundImageFix"/>
<feBlend mode="normal" in="SourceGraphic" in2="BackgroundImageFix" result="shape"/>
<feGaussianBlur stdDeviation="2" result="effect1_foregroundBlur_55403_4495"/>
</filter>
<filter id="filter14_f_55403_4495" x="159.737" y="51.0563" width="44.7144" height="78.7037" filterUnits="userSpaceOnUse" color-interpolation-filters="sRGB">
<feFlood flood-opacity="0" result="BackgroundImageFix"/>
<feBlend mode="normal" in="SourceGraphic" in2="BackgroundImageFix" result="shape"/>
<feGaussianBlur stdDeviation="2" result="effect1_foregroundBlur_55403_4495"/>
</filter>
<filter id="filter15_f_55403_4495" x="181.543" y="60.1666" width="27.1066" height="33.343" filterUnits="userSpaceOnUse" color-interpolation-filters="sRGB">
<feFlood flood-opacity="0" result="BackgroundImageFix"/>
<feBlend mode="normal" in="SourceGraphic" in2="BackgroundImageFix" result="shape"/>
<feGaussianBlur stdDeviation="4" result="effect1_foregroundBlur_55403_4495"/>
</filter>
<filter id="filter16_f_55403_4495" x="185.45" y="64.5" width="22.3931" height="26.3528" filterUnits="userSpaceOnUse" color-interpolation-filters="sRGB">
<feFlood flood-opacity="0" result="BackgroundImageFix"/>
<feBlend mode="normal" in="SourceGraphic" in2="BackgroundImageFix" result="shape"/>
<feGaussianBlur stdDeviation="4" result="effect1_foregroundBlur_55403_4495"/>
</filter>
<linearGradient id="paint0_linear_55403_4495" x1="163.653" y1="54.9229" x2="181.998" y2="125.781" gradientUnits="userSpaceOnUse">
<stop stop-color="white" stop-opacity="0"/>
<stop offset="0.462537" stop-color="white"/>
<stop offset="1" stop-color="white" stop-opacity="0"/>
</linearGradient>
<linearGradient id="paint1_linear_55403_4495" x1="198.796" y1="69.7136" x2="207.116" y2="96.6209" gradientUnits="userSpaceOnUse">
<stop stop-color="white" stop-opacity="0"/>
<stop offset="0.462537" stop-color="white"/>
<stop offset="1" stop-color="white" stop-opacity="0"/>
</linearGradient>
<linearGradient id="paint2_linear_55403_4495" x1="198.796" y1="69.7136" x2="207.116" y2="96.6209" gradientUnits="userSpaceOnUse">
<stop stop-color="white" stop-opacity="0"/>
<stop offset="0.462537" stop-color="white"/>
<stop offset="1" stop-color="white" stop-opacity="0"/>
</linearGradient>
<linearGradient id="paint3_linear_55403_4495" x1="163.662" y1="54.9256" x2="182.01" y2="125.782" gradientUnits="userSpaceOnUse">
<stop stop-color="white" stop-opacity="0"/>
<stop offset="0.462537" stop-color="white"/>
<stop offset="1" stop-color="white" stop-opacity="0"/>
</linearGradient>
<linearGradient id="paint4_linear_55403_4495" x1="163.662" y1="54.9256" x2="182.01" y2="125.782" gradientUnits="userSpaceOnUse">
<stop stop-color="white" stop-opacity="0"/>
<stop offset="0.462537" stop-color="white"/>
<stop offset="1" stop-color="white" stop-opacity="0"/>
</linearGradient>
</defs>
</svg>
