<svg width="45" height="26" viewBox="0 0 45 26" fill="none" xmlns="http://www.w3.org/2000/svg">
<g opacity="0.86">
<path d="M38.7854 23.8855C40.1942 22.831 41.3592 21.2335 42.4725 19.0731L42.482 19.056C42.4911 19.0396 42.5041 19.0159 42.5206 18.9852C42.5537 18.9238 42.6008 18.8346 42.6586 18.7201C42.7744 18.4913 42.9334 18.1609 43.1098 17.7499C43.461 16.9311 43.8839 15.7851 44.1674 14.4783C44.7639 12.1507 44.6012 10.0585 43.3252 8.22976C42.0671 6.42652 39.7796 4.95909 36.3119 3.73349C36.0384 3.62824 33.4194 2.69984 31.4841 2.30371L31.4761 2.30207L31.468 2.30068C28.054 1.71814 25.2609 2.23685 23.3176 2.90526C22.3466 3.23924 21.5877 3.61059 21.0684 3.90068C20.8087 4.04577 20.6086 4.17072 20.4716 4.26077C20.4031 4.3058 20.3503 4.34213 20.3137 4.36793C20.2954 4.38083 20.2812 4.39109 20.271 4.3985L20.2677 4.40091L20.2383 4.42039C20.2119 4.43797 20.174 4.46354 20.1259 4.4967C20.0297 4.56299 19.8926 4.65969 19.7259 4.78343C19.3929 5.03057 18.9393 5.38726 18.4561 5.82646C17.5034 6.69233 16.3781 7.92953 15.886 9.31957C15.1269 11.4631 15.8695 15.1995 20.9924 19.471C21.533 19.9221 22.6878 20.7368 23.6861 21.4254C24.1897 21.7728 24.6606 22.093 25.0055 22.3262C25.141 22.4178 25.2571 22.496 25.3482 22.5573V22.5584L25.5701 22.7069C29.4763 25.3211 32.8259 25.4334 33.7402 25.4334C35.7274 25.4334 37.361 24.9517 38.7854 23.8855Z" stroke="white"/>
<path d="M27.195 2.08391L27.1491 1.86073L27.1369 1.80107L27.195 2.08391ZM27.0945 1.5948C27.0945 1.59481 27.0945 1.59481 27.0945 1.59482L27.0943 1.59415L26.695 1.67624V1.68133C22.3664 2.66962 20.0345 4.87205 19.4057 5.50608C17.9959 6.92702 17.1709 8.43543 16.8976 10.2081C16.627 11.9627 16.9042 13.9299 17.6084 16.262L17.6135 16.2809C17.6184 16.2991 17.6255 16.3252 17.635 16.3589C17.654 16.4261 17.6822 16.5232 17.7203 16.6459C17.7964 16.8913 17.912 17.2398 18.0711 17.658C18.388 18.491 18.8806 19.6079 19.5839 20.7393C20.7713 22.8204 22.3376 24.1947 24.5163 24.5814C26.6636 24.9625 29.3078 24.3646 32.6213 22.7505C32.6264 22.748 32.6346 22.7441 32.6459 22.7386C32.9467 22.593 35.4009 21.4052 37.0322 20.3131L37.039 20.3085L37.0457 20.3037C39.8721 18.2743 41.4955 15.9079 42.4121 14.0442C42.8701 13.1128 43.1519 12.3066 43.3198 11.7296C43.4037 11.441 43.4593 11.2094 43.4942 11.0478C43.5117 10.9669 43.524 10.9035 43.5321 10.8591C43.5362 10.8369 43.5392 10.8195 43.5413 10.807L43.542 10.8027L43.5495 10.7675C43.556 10.7362 43.5653 10.691 43.5765 10.633C43.5989 10.5172 43.6294 10.3506 43.6622 10.1435C43.7277 9.72989 43.803 9.15225 43.8424 8.4948C43.92 7.19891 43.8635 5.5157 43.2513 4.1764C42.3041 2.1043 39.183 -0.0192997 32.5855 0.614457L32.5854 0.614463C31.8891 0.681451 30.5048 0.929541 29.3192 1.15509C28.7211 1.26889 28.1651 1.37861 27.7587 1.45987C27.5554 1.50051 27.3895 1.53404 27.2743 1.55743L27.1413 1.58454L27.1064 1.59167L27.0975 1.59351L27.0952 1.59398L27.0946 1.59411L27.0944 1.59414L27.0945 1.5948Z" stroke="white"/>
<path d="M37.9609 21.3146C39.2308 20.364 40.278 18.9265 41.2761 16.9898L41.2843 16.9752C41.2925 16.9603 41.3043 16.9388 41.3192 16.9112C41.349 16.8559 41.3914 16.7756 41.4434 16.6727C41.5474 16.467 41.6903 16.1704 41.8486 15.8013C42.1639 15.0666 42.5435 14.038 42.798 12.8647C43.3343 10.7715 43.1894 8.88215 42.0364 7.22945C40.9003 5.60097 38.8386 4.28197 35.7269 3.18312C35.7181 3.18002 35.7055 3.17554 35.6892 3.16976C35.3233 3.03959 33.1116 2.25286 31.4049 1.90388L31.3969 1.90224L31.3888 1.90086C28.3233 1.3778 25.8144 1.84361 24.0683 2.44423C23.1959 2.74433 22.5137 3.07806 22.0466 3.33902C21.8129 3.46954 21.6328 3.58203 21.5092 3.66328C21.4474 3.70391 21.3997 3.73675 21.3665 3.76015C21.3498 3.77185 21.3369 3.78119 21.3275 3.78798L21.3255 3.7895L21.3001 3.80632C21.2763 3.82219 21.2421 3.84523 21.1988 3.87506C21.1122 3.93471 20.989 4.02162 20.8392 4.13277C20.5401 4.35474 20.1326 4.6751 19.6985 5.06965C18.8439 5.84624 17.8286 6.9609 17.3839 8.21789L17.3838 8.21792C16.6944 10.1669 17.3775 13.5325 21.9705 17.3622L21.9705 17.3622C22.4566 17.7675 23.4922 18.4982 24.3852 19.1142C24.4997 19.1933 24.6124 19.2707 24.7218 19.3457H24.703L26.0714 20.2613C29.5798 22.6085 32.5887 22.7104 33.4138 22.7104C35.2017 22.7104 36.6754 22.2767 37.9609 21.3146Z" stroke="white"/>
<path d="M8.23097 16.2078C8.2228 16.3509 8.2119 16.4934 8.20781 16.6366C8.20645 16.685 8.18806 16.7486 8.25822 16.7701C8.30727 16.7846 8.34269 16.7528 8.37676 16.7237C8.83318 16.3343 9.37408 16.1054 9.93064 15.9214C10.5506 15.716 11.1902 15.5984 11.8483 15.6192C12.101 15.6275 12.1685 15.7029 12.1739 15.9664C12.1821 16.4014 12.0486 16.8046 11.8892 17.1968C11.7386 17.5661 11.3783 17.5744 11.0588 17.6678C10.6888 17.7757 10.5145 17.5544 10.3353 17.3054C10.304 17.2618 10.289 17.2065 10.2093 17.2016C9.55188 17.1608 8.89177 17.5149 8.69966 18.2038C8.58044 18.6305 8.57159 19.0766 8.57499 19.5207C8.58385 20.8666 8.59202 22.2125 8.63562 23.5577C8.63971 23.6815 8.67582 23.7106 8.7889 23.7085C9.10976 23.7023 9.43062 23.7057 9.75148 23.7064C9.82369 23.7064 9.89249 23.6954 9.93609 23.7901C10.0233 23.9782 9.98514 24.5108 9.85639 24.6713C9.78486 24.7598 9.68335 24.7881 9.5764 24.7881C8.32294 24.7895 7.06948 24.7881 5.81602 24.7916C5.7295 24.7916 5.6532 24.7619 5.63345 24.6948C5.56737 24.4769 5.51014 24.2597 5.59939 24.0253C5.71519 23.7217 5.93932 23.6774 6.22067 23.6878C6.6185 23.7023 6.61646 23.6912 6.62532 23.2894C6.64099 22.5943 6.67368 21.8992 6.65597 21.2041C6.65597 21.1716 6.65597 21.1391 6.65597 21.1073C6.673 20.0512 6.68595 18.9937 6.57899 17.9417C6.55106 17.6692 6.56537 17.3766 6.38961 17.1304C6.24042 16.9222 6.01902 16.8821 5.80035 16.8496C5.69612 16.8344 5.64571 16.7956 5.60415 16.7113C5.37322 16.2437 5.63822 15.7997 6.14846 15.7955C6.73908 15.7914 7.32562 15.7098 7.91693 15.6987C8.16421 15.6939 8.25482 15.7617 8.21803 16.0058C8.21258 16.0411 8.22757 16.0798 8.23302 16.1165C8.20372 16.1469 8.20372 16.1773 8.23302 16.2078H8.23097Z" fill="white"/>
<path d="M3.12976 19.8734C3.12976 20.9779 3.12772 22.0818 3.1318 23.1863C3.1318 23.3343 3.1611 23.4823 3.1754 23.6303C3.18494 23.7265 3.25715 23.7009 3.31097 23.7016C3.5419 23.7043 3.77352 23.7071 4.00446 23.7009C4.11141 23.6981 4.19043 23.7444 4.19725 23.8399C4.21223 24.0488 4.2497 24.2687 4.17749 24.4658C4.10596 24.6595 3.96154 24.7902 3.72243 24.7888C2.58886 24.7826 1.45462 24.7826 0.321052 24.7902C0.160964 24.7916 0.07581 24.7286 0.0635479 24.5855C0.0410673 24.3392 -0.0290993 24.0923 0.167095 23.862C0.346258 23.6518 0.566295 23.696 0.783607 23.6933C1.12286 23.6891 1.10651 23.6912 1.12558 23.3509C1.21278 21.8037 1.17599 20.2552 1.15556 18.708C1.15011 18.2757 1.20733 17.8407 1.08948 17.4105C0.970945 16.9782 0.815625 16.8516 0.370782 16.8489C0.182763 16.8475 0.0751288 16.7922 0.0356175 16.6137C-0.00593749 16.4263 -0.037274 16.2465 0.0982905 16.0666C0.293122 15.8087 0.566976 15.7243 0.853092 15.7125C1.51048 15.6855 2.16991 15.6579 2.82184 15.7997C3.01327 15.8412 3.07526 15.9532 3.08684 16.1316C3.15565 17.1518 3.10251 18.1727 3.11886 19.1935C3.12227 19.4204 3.11886 19.6472 3.11886 19.8741C3.12227 19.8741 3.12567 19.8741 3.12908 19.8741L3.12976 19.8734Z" fill="white"/>
<path d="M16.141 19.9004C16.141 21.0049 16.1389 22.1088 16.143 23.2133C16.143 23.3613 16.1723 23.5093 16.1866 23.6573C16.1962 23.7535 16.2684 23.7279 16.3222 23.7286C16.5531 23.7313 16.7848 23.7341 17.0157 23.7279C17.1226 23.7251 17.2017 23.7715 17.2085 23.8669C17.2235 24.0758 17.2609 24.2957 17.1887 24.4928C17.1172 24.6865 16.9728 24.8172 16.7337 24.8158C15.6001 24.8096 14.4658 24.8096 13.3323 24.8172C13.1722 24.8186 13.087 24.7556 13.0748 24.6125C13.0523 24.3663 12.9821 24.1193 13.1783 23.889C13.3575 23.6788 13.5775 23.723 13.7948 23.7203C14.1341 23.7161 14.1177 23.7182 14.1368 23.3779C14.224 21.8307 14.1872 20.2822 14.1668 18.735C14.1613 18.3027 14.2186 17.8677 14.1007 17.4375C13.9822 17.0052 13.8269 16.8786 13.382 16.8759C13.194 16.8745 13.0864 16.8192 13.0468 16.6407C13.0053 16.4533 12.974 16.2735 13.1095 16.0936C13.3044 15.8357 13.5782 15.7513 13.8643 15.7395C14.5217 15.7126 15.1811 15.6849 15.8331 15.8267C16.0245 15.8682 16.0865 15.9802 16.0981 16.1587C16.1669 17.1788 16.1137 18.1997 16.1301 19.2205C16.1335 19.4474 16.1301 19.6742 16.1301 19.9011C16.1335 19.9011 16.1369 19.9011 16.1403 19.9011L16.141 19.9004Z" fill="white"/>
<path d="M2.20467 14.2574C1.7789 14.2926 1.35245 14.3424 0.970282 14.0699C0.693022 13.8721 0.552688 13.3078 0.687572 13.0041C0.994806 12.3166 1.52685 12.0573 2.2435 12.1244C2.28301 12.2136 2.40631 12.114 2.44037 12.2143C2.3014 12.3422 2.10862 12.4155 2.13655 12.6791C2.16039 12.908 2.22034 13.094 2.39405 13.2434C2.53166 13.3624 2.82391 13.4011 2.97378 13.3098C3.06097 13.2573 3.14613 13.2019 3.23537 13.1459C3.28305 13.5208 2.94993 14.063 2.24077 14.2539" fill="white"/>
<path d="M16.2528 13.1701C16.2255 13.2649 16.2957 13.3437 16.2937 13.4343C16.2276 13.4364 16.1881 13.4661 16.1649 13.5332C16.0075 13.9821 15.6567 14.2276 15.1901 14.2601C14.9353 14.2781 14.688 14.3161 14.4285 14.2643C13.9203 14.164 13.5783 13.639 13.7179 13.1307C13.8794 12.5428 14.3079 12.1098 14.9619 12.1596C15.0954 12.17 15.2296 12.1596 15.3638 12.1638C15.404 12.1652 15.4612 12.1396 15.4816 12.1928C15.5068 12.2592 15.4448 12.2765 15.404 12.3076C15.1179 12.5283 15.0695 12.6618 15.1662 12.9515C15.3038 13.3631 15.8195 13.491 16.1199 13.2282C16.1595 13.1936 16.1901 13.1487 16.2521 13.1694L16.2528 13.1701Z" fill="white"/>
<path d="M24.5751 20.6743C24.368 20.4799 24.105 20.3762 23.8966 20.1888C23.0294 19.751 22.094 19.475 21.2398 19.0026C20.7568 18.7356 20.4468 18.3905 20.4829 17.7853C20.5034 17.4457 20.6689 17.2341 20.9421 17.0833C20.9707 17.0605 20.9966 17.0252 21.0286 17.0162C21.5688 16.8696 22.124 16.8157 22.6717 16.889C23.3911 16.9858 24.0832 17.214 24.7358 17.5474C24.8346 17.5979 24.8816 17.5917 24.9572 17.5142C25.1419 17.3268 25.1575 17.0723 25.2331 16.8413C25.4375 16.2222 25.0002 15.7817 24.6357 15.6931C24.1445 15.5735 23.6466 15.4953 23.1363 15.4822C22.4905 15.4663 21.8413 15.44 21.2071 15.5569C20.4536 15.6959 19.7377 15.9574 19.194 16.5618C18.6572 17.2728 18.5155 18.0737 18.6995 18.9404C18.7431 19.1465 18.7976 19.3692 18.912 19.5379C19.2397 20.0214 20.0265 20.5436 20.5504 20.7434C21.0797 20.9454 21.6192 21.1232 22.1274 21.3811C22.4142 21.5264 22.7119 21.6523 22.9667 21.8556C23.3059 22.1267 23.4831 22.4905 23.3877 22.9207C23.3843 22.9359 23.3802 22.9498 23.3761 22.9643C23.3053 23.1607 23.1254 23.3848 22.8802 23.4747C22.3549 23.667 21.7848 23.6725 21.237 23.5999C20.5177 23.5044 19.8255 23.279 19.1729 22.9504C19.0741 22.9006 19.0271 22.9069 18.9515 22.983C18.7669 23.1676 18.7512 23.4194 18.6756 23.6462C18.4713 24.2569 18.9086 24.6913 19.2731 24.7784C19.7642 24.896 20.2622 24.9735 20.7724 24.9859C21.4183 25.0018 22.0675 25.0274 22.7017 24.9119C23.4551 24.7743 24.1711 24.517 24.7147 23.9208C24.7747 23.842 24.8292 23.7624 24.8796 23.6815C24.8734 23.6767 24.868 23.6718 24.8625 23.667C24.992 23.4609 25.0935 23.2243 25.1589 22.9491C25.1732 22.8882 25.1616 22.8073 25.2325 22.7672C25.2761 22.3639 25.2692 21.969 25.1534 21.5727C25.0472 21.2062 24.8442 20.926 24.5751 20.6729V20.6743Z" fill="white"/>
</g>
</svg>
