<?xml version="1.0" encoding="UTF-8"?><svg id="Layer_1" xmlns="http://www.w3.org/2000/svg" viewBox="0 0 461.06 247.6"><defs><style>.cls-1{fill:#003C71;opacity:.5;}.cls-1,.cls-2{stroke-width:0px;}.cls-2{fill:#003C71;}</style></defs><path class="cls-1" d="m448.58,39.08c-3.89-18.41-20.55-30.93-48.18-36.21-29.64-5.67-72.06-2.84-113.49,7.56-40.65,10.21-70.81,25.07-80.83,39.82-19.47,19.11-27.66,43.8-24.37,73.39,2.53,22.72,11.62,48.16,27.78,77.77l.08.14c15.17,24.74,32.42,36.86,54.28,38.12,1.31.08,2.63.11,3.96.11,19.69,0,41.94-8.12,68.91-20.25,36.6-14.36,69.59-40.64,90.53-72.12,22.71-34.15,30.29-72.62,21.33-108.32Zm-26.68,104.77c-20.24,30.43-52.17,55.85-87.6,69.73l-.15.06c-27.97,12.58-50.56,20.73-69.93,19.61-19.56-1.13-35.18-12.25-49.14-35-35.43-64.94-36.84-111.93-4.29-143.65l.25-.24.19-.29c18.32-27.69,124.17-57.11,187.96-44.9,25.27,4.83,39.78,15.36,43.12,31.29l.03.12c8.53,33.95,1.28,70.62-20.43,103.26Z"/><path class="cls-1" d="m446.84,70.82c-13.57-15.63-35.91-26.54-65.29-38.12-35.83-16.18-77.68-21.46-114.83-14.47-40.31,7.58-73.14,29.01-92.45,60.34-9.91,14.81-8.6,33.93,3.81,55.31,14.62,25.19,45.21,53.94,81.83,76.91,34.03,21.34,66.48,33.74,87.96,33.73,1.26,0,2.48-.04,3.66-.13,65.32-4.73,89.49-54.68,105.87-107.95l.04-.16c7.13-28.13,3.76-48.94-10.6-65.48Zm4.39,63.82c-7.13,23.17-16.64,49.56-33.06,69.63-16.88,20.64-38.84,31.67-67.12,33.72-19.74,1.42-53.36-11.08-87.75-32.64-35.78-22.44-65.57-50.37-79.69-74.7-11.26-19.41-12.6-35.74-3.99-48.56l.07-.11c18.35-29.81,49.67-50.21,88.2-57.45,10.38-1.95,21.14-2.91,32.04-2.91,26.8,0,54.39,5.81,79.04,16.96l.15.06c28.53,11.24,50.14,21.73,62.86,36.38,12.85,14.79,15.78,33.74,9.24,59.61Z"/><path class="cls-1" d="m439.28,61.11c-12.33-14.21-32.65-24.13-59.35-34.65-32.57-14.71-70.62-19.51-104.4-13.16-36.64,6.89-66.49,26.37-84.05,54.86-9.51,14.21-7.09,33,7,54.35,15.12,22.89,43.88,48.71,76.95,69.08,28.87,17.78,54.86,27.82,71.48,27.82,2.06,0,3.98-.15,5.74-.47.62.01,1.24.02,1.85.02,24,0,44.64-10.33,61.38-30.73,13.18-16.07,23.97-38.13,32.99-67.44l.04-.14c6.48-25.58,3.42-44.49-9.64-59.53Zm3.99,58.02c-19.78,64.27-49.48,95.01-90.78,93.96h-.31s-.31.05-.31.05c-1.54.29-3.23.44-5.06.44-33.41,0-112.61-47.59-143.45-94.29-12.89-19.52-15.25-35.64-7-47.92l.06-.1c16.68-27.1,45.16-45.65,80.19-52.23,9.44-1.77,19.22-2.65,29.12-2.65,24.36,0,49.45,5.28,71.86,15.42l.13.06c25.94,10.22,45.58,19.75,57.15,33.08,11.68,13.45,14.35,30.67,8.4,54.19Z"/><path class="cls-2" d="m85.92,155.81c-.09,1.49-.2,2.98-.24,4.48-.01.51-.21,1.17.53,1.39.51.15.88-.18,1.24-.48,4.76-4.07,10.41-6.45,16.22-8.38,6.47-2.14,13.15-3.37,20.02-3.15,2.64.09,3.34.87,3.4,3.62.08,4.54-1.31,8.75-2.97,12.84-1.57,3.86-5.33,3.94-8.67,4.92-3.86,1.13-5.68-1.18-7.55-3.78-.33-.46-.48-1.03-1.32-1.08-6.86-.43-13.75,3.27-15.76,10.46-1.24,4.45-1.34,9.11-1.3,13.75.09,14.05.18,28.1.63,42.14.04,1.29.42,1.6,1.6,1.57,3.35-.06,6.7-.03,10.05-.02.75,0,1.47-.11,1.93.87.91,1.96.51,7.52-.83,9.2-.75.92-1.81,1.22-2.92,1.22-13.09.01-26.17,0-39.26.04-.9,0-1.7-.31-1.91-1.01-.69-2.27-1.29-4.54-.36-6.99,1.21-3.17,3.55-3.63,6.49-3.52,4.15.15,4.13.04,4.22-4.16.16-7.26.5-14.51.32-21.77v-1.01c.18-11.03.31-22.07-.8-33.05-.29-2.84-.14-5.9-1.98-8.47-1.56-2.17-3.87-2.59-6.15-2.93-1.09-.16-1.61-.56-2.05-1.44-2.41-4.88.36-9.52,5.68-9.56,6.17-.04,12.29-.89,18.46-1.01,2.58-.05,3.53.66,3.14,3.21-.06.37.1.77.16,1.16-.31.32-.31.63,0,.95h-.02Z"/><path class="cls-2" d="m32.67,194.08c0,11.53-.02,23.05.02,34.58,0,1.55.31,3.09.46,4.64.1,1,.85.74,1.42.74,2.41.03,4.83.06,7.24,0,1.12-.03,1.94.45,2.01,1.45.16,2.18.55,4.48-.21,6.53-.75,2.02-2.25,3.39-4.75,3.37-11.83-.06-23.67-.06-35.51.01-1.67.01-2.56-.64-2.69-2.14-.23-2.57-.97-5.15,1.08-7.55,1.87-2.19,4.17-1.73,6.44-1.76,3.54-.04,3.37-.02,3.57-3.57.91-16.15.85-57.52-.38-62.01-1.24-4.51-2.86-5.83-7.5-5.86-1.96-.01-3.09-.59-3.5-2.46-.43-1.96-.76-3.83.65-5.71,2.03-2.69,4.89-3.57,7.88-3.7,6.86-.28,13.75-.57,20.55.91,2,.43,2.65,1.6,2.77,3.46.72,10.65.16,21.31.33,31.96.04,2.37,0,4.74,0,7.1h.11Z"/><path class="cls-2" d="m168.5,194.36c0,11.53-.02,23.05.02,34.58,0,1.55.31,3.09.46,4.64.1,1,.85.74,1.41.74,2.41.03,4.83.06,7.24,0,1.12-.03,1.94.46,2.01,1.45.16,2.18.55,4.48-.21,6.53-.75,2.02-2.25,3.39-4.75,3.37-11.83-.06-23.67-.06-35.51.01-1.67.01-2.56-.64-2.69-2.14-.23-2.57-.97-5.15,1.08-7.55,1.87-2.19,4.17-1.73,6.44-1.76,3.54-.04,3.37-.02,3.57-3.57.91-16.15.53-32.32.31-48.47-.06-4.51.54-9.05-.69-13.55-1.24-4.51-2.86-5.83-7.5-5.86-1.96-.01-3.09-.59-3.5-2.46-.43-1.96-.76-3.83.65-5.71,2.03-2.69,4.89-3.57,7.88-3.7,6.86-.28,13.75-.57,20.55.91,2,.43,2.65,1.6,2.77,3.47.72,10.65.16,21.31.33,31.96.04,2.37,0,4.74,0,7.1h.11Z"/><path class="cls-2" d="m23.02,135.45c-23.15,4.49-20.14-24.52.41-22.27.75.08,1.85.56,2.06.94-8.18,5.09,1,16.78,8.3,9.73.5,3.91-2.98,9.57-10.38,11.57"/><path class="cls-2" d="m256.54,202.44c-2.16-2.03-4.91-3.11-7.08-5.07-9.05-4.57-18.82-7.45-27.73-12.38-5.04-2.79-8.28-6.39-7.9-12.71.21-3.55,1.94-5.75,4.79-7.33.3-.24.57-.61.9-.7,5.64-1.53,11.44-2.09,17.15-1.33,7.51,1.01,14.74,3.39,21.55,6.87,1.03.53,1.52.46,2.31-.35,1.93-1.96,2.09-4.61,2.88-7.03,2.13-6.46-2.43-11.06-6.24-11.99-5.13-1.25-10.33-2.06-15.65-2.2-6.74-.17-13.52-.44-20.14.78-7.87,1.45-15.34,4.18-21.02,10.49-5.6,7.42-7.08,15.78-5.16,24.83.46,2.15,1.02,4.48,2.22,6.24,3.42,5.05,11.63,10.5,17.1,12.58,5.53,2.11,11.16,3.96,16.46,6.66,2.99,1.52,6.1,2.83,8.76,4.95,3.54,2.83,5.39,6.63,4.39,11.12-.04.16-.08.3-.12.46-.74,2.05-2.62,4.39-5.18,5.33-5.48,2.01-11.44,2.06-17.15,1.31-7.51-1-14.74-3.35-21.55-6.78-1.03-.52-1.52-.45-2.31.34-1.93,1.93-2.09,4.56-2.88,6.92-2.13,6.38,2.43,10.91,6.24,11.82,5.13,1.23,10.33,2.04,15.65,2.17,6.74.17,13.52.43,20.14-.77,7.86-1.44,15.34-4.12,21.01-10.35.63-.82,1.2-1.65,1.72-2.5-.06-.05-.12-.1-.18-.15,1.35-2.15,2.41-4.62,3.09-7.49.15-.64.03-1.48.77-1.9.46-4.21.38-8.33-.82-12.47-1.11-3.83-3.23-6.75-6.04-9.39h0Z"/><path class="cls-2" d="m159.19,135.45c-23.15,4.49-20.14-24.52.41-22.27.75.08,1.85.56,2.06.94-8.18,5.09,1,16.78,8.3,9.73.5,3.91-2.98,9.57-10.38,11.57"/></svg>