<svg width="717" height="631" viewBox="0 0 717 631" fill="none" xmlns="http://www.w3.org/2000/svg">
<g filter="url(#filter0_f_53497_32678)">
<path d="M276.612 41.6142V41.5962C276.621 41.5943 276.631 41.5924 276.641 41.5904C277.447 41.4281 278.635 41.1895 280.159 40.8847C283.207 40.275 287.602 39.4002 292.988 38.3399C303.758 36.2192 318.489 33.3566 334.329 30.389C366.041 24.4479 402.102 18.1047 419.791 16.429C592.316 0.109185 667.055 55.2045 688.408 101.206L689.768 100.575L688.408 101.206C703.12 132.897 704.829 173.972 702.803 207.284C701.792 223.911 699.854 238.545 698.169 249.022C697.326 254.26 696.548 258.456 695.98 261.34C695.696 262.783 695.465 263.896 695.305 264.648C695.226 265.024 695.164 265.309 695.122 265.5C695.101 265.595 695.085 265.667 695.074 265.714L695.062 265.767L695.06 265.78L695.059 265.783C695.059 265.783 695.059 265.783 696.522 266.115L695.059 265.783L695.047 265.834L695.039 265.885L695.039 265.889L695.036 265.905L695.025 265.974L695.007 266.085C694.999 266.134 694.989 266.192 694.977 266.26C694.934 266.515 694.867 266.899 694.772 267.407C694.584 268.422 694.287 269.93 693.857 271.89C692.997 275.811 691.604 281.539 689.477 288.74C685.221 303.143 678.028 323.437 666.283 346.952C642.798 393.976 601.115 453.883 528.325 505.357C506.359 519.836 476.425 536.233 452.494 548.671C440.531 554.888 430.081 560.11 422.898 563.598C419.304 565.344 416.536 566.651 414.809 567.432C413.931 567.829 413.363 568.07 413.093 568.169C413.045 568.187 413.025 568.193 413.025 568.194L413.035 568.191C413.041 568.189 413.106 568.171 413.202 568.161C413.249 568.156 413.35 568.147 413.481 568.159C413.58 568.168 413.891 568.203 414.207 568.429C414.451 568.603 414.631 568.841 414.734 569.108C414.254 569.32 413.892 569.471 413.657 569.56L412.863 568.147C325.855 609.883 259.013 623.999 206.496 614.819C154.082 605.658 115.652 573.237 85.5402 521.177L85.5254 521.152L85.5097 521.127C67.3889 492.459 54.6471 464.042 46.4353 442.788C42.3303 432.163 39.3594 423.333 37.416 417.163C36.4443 414.079 35.7296 411.66 35.2584 410.014C35.0229 409.192 34.8482 408.563 34.7328 408.14C34.6981 408.014 34.6688 407.905 34.6448 407.816C34.6288 407.757 34.6152 407.706 34.6039 407.664L34.5724 407.545L34.5648 407.517L34.563 407.51L34.5626 407.508C34.5626 407.508 34.5626 407.508 34.4658 407.534L34.5626 407.508L34.5546 407.478L34.5452 407.447C16.0721 347.278 9.32264 298.13 16.0417 255.226C22.7532 212.37 42.9263 175.6 78.5812 140.214L78.5815 140.214C94.6095 124.297 157.403 65.6731 275.409 41.857L276.612 41.6142Z" stroke="white" stroke-width="3"/>
</g>
<defs>
<filter id="filter0_f_53497_32678" x="0" y="0" width="717" height="631" filterUnits="userSpaceOnUse" color-interpolation-filters="sRGB">
<feFlood flood-opacity="0" result="BackgroundImageFix"/>
<feBlend mode="normal" in="SourceGraphic" in2="BackgroundImageFix" result="shape"/>
<feGaussianBlur stdDeviation="6" result="effect1_foregroundBlur_53497_32678"/>
</filter>
</defs>
</svg>
