<svg width="686" height="548" viewBox="0 0 686 548" fill="none" xmlns="http://www.w3.org/2000/svg">
<g filter="url(#filter0_f_53497_32679)">
<path d="M243.584 472.905L243.578 472.913C243.578 472.913 243.578 472.913 243.578 472.913C243.583 472.904 243.583 472.904 243.583 472.904L243.58 472.902L243.569 472.895L243.524 472.865L243.346 472.748L242.646 472.286C242.032 471.881 241.129 471.284 239.969 470.516C237.651 468.981 234.311 466.765 230.226 464.043C222.055 458.598 210.904 451.128 198.983 443.025C175.114 426.799 148.24 408.092 135.963 398.006C16.1869 299.603 3.4027 217.521 18.6931 174.93C29.2402 145.556 53.9278 118.404 76.1317 98.5229C87.2123 88.6015 97.6305 80.5293 105.278 74.9381C109.101 72.143 112.23 69.9693 114.4 68.4958C115.485 67.7591 116.331 67.1976 116.904 66.8211C117.191 66.6328 117.409 66.4908 117.555 66.3963C117.628 66.3491 117.683 66.3137 117.719 66.2904L117.76 66.2644L117.769 66.2582L117.771 66.2568C117.772 66.2566 117.772 66.2566 116.965 64.9919L117.772 66.2566L117.816 66.2287L117.857 66.1978L117.857 66.1971C117.857 66.1978 117.857 66.1978 117.857 66.1978L117.86 66.1961L117.871 66.1876L117.921 66.1509C117.967 66.1178 118.036 66.0673 118.13 66.0001C118.317 65.8657 118.601 65.6647 118.979 65.4023C119.734 64.8775 120.869 64.1073 122.372 63.134C125.377 61.1874 129.856 58.4288 135.727 55.1975C147.468 48.7346 164.774 40.3826 186.991 32.8528C231.417 17.7959 295.481 6.02657 373.994 19.2216C397.028 23.8643 426.324 32.3204 449.33 39.5111C460.83 43.1057 470.743 46.3793 477.495 48.6941C480.873 49.8523 483.451 50.7672 485.037 51.3607C485.844 51.6629 486.352 51.8658 486.58 51.9707C486.617 51.9876 486.632 51.9954 486.632 51.9953C486.632 51.9953 486.627 51.9926 486.618 51.9875C486.611 51.9833 486.551 51.9494 486.476 51.8892C486.439 51.8598 486.361 51.7953 486.278 51.6967C486.214 51.6218 486.023 51.3858 485.953 51.0136C485.897 50.7176 485.932 50.4131 486.051 50.1404C486.557 50.3338 486.93 50.4836 487.158 50.5859L486.729 52.1373C568.182 80.4778 619.453 113.648 647.005 152.561C674.497 191.389 678.534 236.172 664.959 288.197L664.952 288.226L664.945 288.255C658.444 317.879 648.69 343.957 640.557 362.633C636.492 371.968 632.834 379.449 630.195 384.591C628.875 387.163 627.811 389.149 627.077 390.49C626.71 391.161 626.426 391.671 626.235 392.011C626.139 392.181 626.066 392.309 626.018 392.394L625.964 392.489L625.951 392.512L625.948 392.517L625.947 392.518C625.947 392.518 625.947 392.518 626 392.549L625.947 392.518L625.931 392.546L625.916 392.574C599.855 442.439 573.282 477.896 542.095 500.896C510.948 523.867 475.08 534.5 430.247 534.5C410.271 534.5 334.891 532.188 246.145 474.592L243.584 472.905Z" stroke="white" stroke-width="3"/>
</g>
<defs>
<filter id="filter0_f_53497_32679" x="0" y="0" width="686" height="548" filterUnits="userSpaceOnUse" color-interpolation-filters="sRGB">
<feFlood flood-opacity="0" result="BackgroundImageFix"/>
<feBlend mode="normal" in="SourceGraphic" in2="BackgroundImageFix" result="shape"/>
<feGaussianBlur stdDeviation="6" result="effect1_foregroundBlur_53497_32679"/>
</filter>
</defs>
</svg>
