<svg width="763" height="609" viewBox="0 0 763 609" fill="none" xmlns="http://www.w3.org/2000/svg">
<g filter="url(#filter0_f_53497_32677)">
<path d="M271.104 527.129L270.429 526.685L269.604 527.937C270.429 526.685 270.429 526.684 270.428 526.684L270.425 526.682L270.412 526.674L270.362 526.64L270.163 526.509C269.987 526.393 269.725 526.22 269.382 525.994C268.697 525.542 267.688 524.875 266.393 524.018C263.805 522.305 260.076 519.831 255.515 516.792C246.393 510.715 233.945 502.375 220.636 493.329C193.991 475.218 163.982 454.329 150.27 443.057L150.27 443.057C16.5384 333.177 2.19409 241.468 19.3137 193.831L19.3138 193.831C31.1076 160.999 58.6922 130.663 83.4814 108.463C95.8546 97.3823 107.487 88.3666 116.026 82.1218C120.295 79 123.789 76.5719 126.213 74.9258C127.425 74.1028 128.37 73.4754 129.01 73.0545C129.33 72.8441 129.574 72.6854 129.737 72.5797C129.819 72.5268 129.88 72.4872 129.921 72.461L129.966 72.4319L129.977 72.4249L129.98 72.4233C129.98 72.4231 129.98 72.423 129.173 71.1585L129.98 72.423L130.024 72.3951L130.066 72.3643L130.035 72.3231C130.066 72.3643 130.066 72.3642 130.066 72.3642L130.068 72.3622L130.082 72.3526L130.138 72.3112C130.189 72.2739 130.267 72.2173 130.372 72.1421C130.582 71.9916 130.899 71.7666 131.322 71.4732C132.167 70.8863 133.435 70.0253 135.114 68.9376C138.472 66.7623 143.475 63.6805 150.032 60.0709C163.147 52.8514 182.474 43.5228 207.286 35.1129C256.903 18.2959 328.451 5.15263 416.139 19.8923C441.864 25.0828 474.578 34.5223 500.26 42.5481C513.099 46.5602 524.166 50.2144 531.702 52.7996C535.473 54.0931 538.351 55.1156 540.122 55.7801C541.023 56.1179 541.593 56.3467 541.852 56.4666C541.897 56.4874 541.915 56.497 541.915 56.497L541.904 56.4907L541.903 56.4903C541.894 56.4851 541.836 56.4507 541.761 56.3902C541.724 56.3597 541.646 56.2928 541.562 56.1906C541.496 56.1105 541.311 55.8708 541.248 55.4977C541.199 55.2055 541.239 54.909 541.356 54.6445C541.843 54.8326 542.205 54.9801 542.435 55.0839L542.004 56.6515C632.937 88.2968 690.213 125.342 721.003 168.826C751.733 212.225 756.24 262.275 741.078 320.389L741.07 320.417L741.064 320.446C733.801 353.537 722.907 382.664 713.826 403.521C709.286 413.948 705.202 422.303 702.255 428.048C700.781 430.92 699.592 433.139 698.773 434.638C698.363 435.387 698.046 435.956 697.832 436.337C697.725 436.527 697.643 436.671 697.589 436.766L697.529 436.872L697.514 436.898L697.51 436.904L697.509 436.905C697.509 436.905 697.509 436.905 698.108 437.251L697.509 436.905L697.494 436.932L697.479 436.96C668.386 492.636 638.71 532.246 603.866 557.947C569.062 583.619 528.984 595.5 478.904 595.5C456.435 595.5 371.15 592.885 271.104 527.147V527.129Z" stroke="white" stroke-width="3"/>
</g>
<defs>
<filter id="filter0_f_53497_32677" x="0" y="0" width="763" height="609" filterUnits="userSpaceOnUse" color-interpolation-filters="sRGB">
<feFlood flood-opacity="0" result="BackgroundImageFix"/>
<feBlend mode="normal" in="SourceGraphic" in2="BackgroundImageFix" result="shape"/>
<feGaussianBlur stdDeviation="6" result="effect1_foregroundBlur_53497_32677"/>
</filter>
</defs>
</svg>
