<svg width="24" height="24" viewBox="0 0 24 24" fill="none" xmlns="http://www.w3.org/2000/svg">
<mask id="mask0_55257_52723" style="mask-type:alpha" maskUnits="userSpaceOnUse" x="0" y="0" width="24" height="24">
<rect width="24" height="24" fill="#D9D9D9"/>
</mask>
<g mask="url(#mask0_55257_52723)">
<path d="M12 21.5C10.6833 21.5 9.45 21.25 8.3 20.75C7.15 20.25 6.14583 19.5708 5.2875 18.7125C4.42917 17.8542 3.75 16.85 3.25 15.7C2.75 14.55 2.5 13.3167 2.5 12C2.5 10.6833 2.75 9.45 3.25 8.3C3.75 7.15 4.42917 6.14583 5.2875 5.2875C6.14583 4.42917 7.15 3.75 8.3 3.25C9.45 2.75 10.6833 2.5 12 2.5V0L16 4L12 8V5.5C10.2 5.5 8.66667 6.13333 7.4 7.4C6.13333 8.66667 5.5 10.2 5.5 12C5.5 13.1 5.75417 14.1208 6.2625 15.0625C6.77083 16.0042 7.45 16.7667 8.3 17.35C8.56667 16.8833 8.9625 16.4875 9.4875 16.1625C10.0125 15.8375 10.6167 15.6333 11.3 15.55C11.25 15.2 11.1833 14.85 11.1 14.5C11.0167 14.15 10.9167 13.825 10.8 13.525C10.6167 13.675 10.4167 13.7917 10.2 13.875C9.98333 13.9583 9.75 14 9.5 14C8.95 14 8.47917 13.8042 8.0875 13.4125C7.69583 13.0208 7.5 12.55 7.5 12V11C7.5 10.7167 7.45417 10.45 7.3625 10.2C7.27083 9.95 7.15 9.71667 7 9.5C7.83333 9.48333 8.575 9.55833 9.225 9.725C9.79167 9.875 10.3083 10.1208 10.775 10.4625C11.2417 10.8042 11.4833 11.3167 11.5 12C11.5 12.15 11.4875 12.2875 11.4625 12.4125C11.4375 12.5375 11.3917 12.6667 11.325 12.8C11.1083 12.6333 10.8917 12.4833 10.675 12.35C10.4583 12.2167 10.2333 12.1 10 12C10.2833 12.2167 10.6083 12.55 10.975 13C11.3417 13.45 11.6833 13.9833 12 14.6C12.3333 13.7833 12.75 12.9792 13.25 12.1875C13.75 11.3958 14.3333 10.6667 15 10C14.6167 10.2667 14.25 10.55 13.9 10.85C13.55 11.15 13.2083 11.4667 12.875 11.8C12.7583 11.6167 12.6667 11.4125 12.6 11.1875C12.5333 10.9625 12.5 10.7333 12.5 10.5C12.5 9.8 12.7417 9.20833 13.225 8.725C13.7083 8.24167 14.3 8 15 8H16C16.3833 8 16.7 7.95 16.95 7.85C17.2 7.75 17.4083 7.63333 17.575 7.5C17.7583 7.35 17.9 7.18333 18 7C18.0667 8.11667 18.0083 9.11667 17.825 10C17.675 10.75 17.3917 11.4375 16.975 12.0625C16.5583 12.6875 15.9 13 15 13C14.75 13 14.5125 12.9667 14.2875 12.9C14.0625 12.8333 13.8583 12.7417 13.675 12.625C13.5583 12.9417 13.425 13.3625 13.275 13.8875C13.125 14.4125 13.0083 14.975 12.925 15.575C13.5583 15.6917 14.1167 15.9083 14.6 16.225C15.0833 16.5417 15.45 16.9167 15.7 17.35C16.55 16.7667 17.2292 16.0083 17.7375 15.075C18.2458 14.1417 18.5 13.1167 18.5 12H21.5C21.5 13.3167 21.25 14.55 20.75 15.7C20.25 16.85 19.5708 17.8542 18.7125 18.7125C17.8542 19.5708 16.85 20.25 15.7 20.75C14.55 21.25 13.3167 21.5 12 21.5Z" fill="#1C1B1F"/>
</g>
</svg>
