<svg width="18" height="18" viewBox="0 0 18 18" fill="none" xmlns="http://www.w3.org/2000/svg">
<mask id="mask0_55257_52749" style="mask-type:alpha" maskUnits="userSpaceOnUse" x="0" y="0" width="18" height="18">
<rect width="18" height="18" fill="#D9D9D9"/>
</mask>
<g mask="url(#mask0_55257_52749)">
<path d="M6.9 6.9L8.56875 4.14375L7.4625 2.30625C7.3125 2.05625 7.097 1.93125 6.816 1.93125C6.5345 1.93125 6.31875 2.05625 6.16875 2.30625L4.33125 5.3625L6.9 6.9ZM14.1562 12L12.4875 9.225L15.0938 7.725L16.2938 9.73125C16.4313 9.94375 16.5062 10.1813 16.5187 10.4438C16.5312 10.7063 16.475 10.95 16.35 11.175C16.225 11.425 16.0405 11.625 15.7965 11.775C15.553 11.925 15.2875 12 15 12H14.1562ZM12 17.25L9 14.25L12 11.25V12.75H15.5625L14.475 14.925C14.3375 15.175 14.15 15.375 13.9125 15.525C13.675 15.675 13.4125 15.75 13.125 15.75H12V17.25ZM4.74375 15.75C4.49375 15.75 4.2655 15.6845 4.059 15.5535C3.853 15.422 3.7 15.25 3.6 15.0375C3.5 14.8375 3.45325 14.628 3.45975 14.409C3.46575 14.1905 3.525 13.9875 3.6375 13.8L4.275 12.75H7.5V15.75H4.74375ZM2.8875 13.6125L1.66875 11.175C1.55625 10.95 1.50325 10.7095 1.50975 10.4535C1.51575 10.197 1.5875 9.95625 1.725 9.73125L2.025 9.225L0.75 8.45625L4.85625 7.425L5.8875 11.55L4.59375 10.7625L2.8875 13.6125ZM13.0125 7.2L8.90625 6.16875L10.2 5.4L7.85625 1.5H10.5C10.7625 1.5 11.0095 1.5655 11.241 1.6965C11.472 1.828 11.6562 2.00625 11.7938 2.23125L12.7687 3.8625L14.0438 3.075L13.0125 7.2Z" fill="#1C1B1F"/>
</g>
</svg>
