<svg width="24" height="24" viewBox="0 0 24 24" fill="none" xmlns="http://www.w3.org/2000/svg">
<mask id="mask0_55257_52718" style="mask-type:alpha" maskUnits="userSpaceOnUse" x="0" y="0" width="24" height="24">
<rect width="24" height="24" fill="#D9D9D9"/>
</mask>
<g mask="url(#mask0_55257_52718)">
<path d="M15.175 11H9.82496C9.74162 11.2 9.64162 11.3958 9.52496 11.5875C9.40829 11.7792 9.26662 11.9417 9.09996 12.075L9.82496 20H15.175L15.9 12.075C15.7333 11.925 15.5916 11.7583 15.475 11.575C15.3583 11.3917 15.2583 11.2 15.175 11ZM9.54996 7L9.27496 8.1C9.39162 8.23333 9.49579 8.375 9.58746 8.525C9.67912 8.675 9.75829 8.83333 9.82496 9H15.175C15.2416 8.83333 15.3208 8.675 15.4125 8.525C15.5041 8.375 15.6083 8.23333 15.725 8.1L15.45 7H9.54996ZM9.82496 22C9.30829 22 8.85829 21.8292 8.47496 21.4875C8.09162 21.1458 7.87496 20.7167 7.82496 20.2L7.04996 11.55C7.03329 11.3833 7.06246 11.2292 7.13746 11.0875C7.21246 10.9458 7.32496 10.8333 7.47496 10.75C7.60829 10.6667 7.72496 10.5667 7.82496 10.45C7.92496 10.3333 7.97496 10.1917 7.97496 10.025C7.97496 9.875 7.94162 9.7375 7.87496 9.6125C7.80829 9.4875 7.70829 9.38333 7.57496 9.3C7.40829 9.21667 7.28329 9.0875 7.19996 8.9125C7.11662 8.7375 7.09996 8.55833 7.14996 8.375L7.79996 5.75C7.84996 5.51667 7.96662 5.33333 8.14996 5.2C8.33329 5.06667 8.54162 5 8.77496 5H11.5V4H9.99996V2H15V4H13.5V5H16.225C16.4583 5 16.6625 5.06667 16.8375 5.2C17.0125 5.33333 17.125 5.51667 17.175 5.75L17.85 8.375C17.9 8.55833 17.8833 8.7375 17.8 8.9125C17.7166 9.0875 17.5916 9.21667 17.425 9.3C17.2916 9.36667 17.1875 9.45833 17.1125 9.575C17.0375 9.69167 17 9.825 17 9.975C17 10.1583 17.0458 10.3125 17.1375 10.4375C17.2291 10.5625 17.35 10.6667 17.5 10.75C17.65 10.8333 17.7666 10.9458 17.85 11.0875C17.9333 11.2292 17.9666 11.3833 17.95 11.55L17.175 20.175C17.125 20.6917 16.9083 21.125 16.525 21.475C16.1416 21.825 15.6916 22 15.175 22H9.82496Z" fill="#1C1B1F"/>
</g>
</svg>
